<?xml version="1.0" encoding="UTF-8"?>
<svg width="617px" height="148px" viewBox="0 0 617 148" version="1.1" xmlns="http://www.w3.org/2000/svg" xmlns:xlink="http://www.w3.org/1999/xlink">
    <!-- Generator: Sketch 64 (93537) - https://sketch.com -->
    <title>FA-Logo-Header</title>
    <desc>Created with Sketch.</desc>
    <g id="Page-1" stroke="none" stroke-width="1" fill="none" fill-rule="evenodd">
        <g id="FA-Logo-Header" transform="translate(3.000000, 7.000000)">
            <g id="flame-copy-4" fill-rule="nonzero">
                <path d="M20.87688,125.529418 C14.5366439,118.331546 8.19667793,110.845942 4.16185941,101.920601 C0.127311074,92.4195284 -1.02553281,81.4789888 0.991876445,71.1141819 C3.0092857,60.749375 7.6201209,50.9603007 14.2486355,42.6109629 C13.6723487,49.8088354 16.2660448,57.2944393 21.1651585,62.7648441 C18.2831839,48.9451015 22.8942892,33.9736238 32.1162298,23.0330842 C41.3381704,12.0925447 54.0186426,4.89440218 67.2751315,0 C60.646887,6.90987128 59.7823217,17.8504108 62.3760178,27.0637525 C64.9697139,36.2768242 70.4453846,44.3384307 75.3444983,52.6877685 C80.2436121,61.0371063 84.8547174,69.6744454 85.1429959,79.1755184 C87.7366921,74.2811162 90.6186667,69.3864441 92.3477974,63.9163093 C94.0769282,58.4459046 94.9414935,52.6877685 93.5006413,47.2173638 C98.6880335,53.5515024 101.570008,59.8853711 103.01086,67.9469776 C104.451713,76.0085841 104.163704,84.3579219 103.299139,92.4195284 C102.146295,101.344869 99.8408774,110.55794 94.9417637,118.043544 C89.1780846,126.968885 79.9558739,133.302753 69.869368,136.757689 C52.0012333,139.924893 34.4216474,137.333692 20.87688,125.529418 Z" id="Path" stroke="#FFFFFF" stroke-width="5" fill="#F3705A"></path>
                <path d="M42.1409372,136.188479 C65.8726577,145.421268 89.3151457,117.434832 76.2915413,95.7959038 C76.2915413,95.5072946 76.0020374,95.5072946 76.0020374,95.2189559 C77.1597816,107.048146 74.2655568,115.703717 68.7666112,120.608721 C71.6608359,113.684264 69.6348514,105.605641 66.1618903,98.6811843 C62.6889291,92.0453366 57.7689912,85.9864368 54.0065261,79.6389278 C50.2440611,73.0030801 47.3501076,65.5014048 49.0865882,58 C42.1406659,63.1933427 37.220728,70.9833567 35.1947435,79.3503186 C33.168759,87.7172806 34.3265032,96.9500701 38.0889682,104.740084 C33.7477668,101.566465 30.5643095,96.3731222 30.2748056,90.8911703 C25.6441002,96.3731222 22.7501468,103.585918 23.0393793,110.798984 C23.0396507,122.051226 32.0112862,132.149303 42.1409372,136.188479 Z" id="Path" fill="#FFD15C"></path>
            </g>
            <text id="Fever-Alert" font-family="Gilroy-Regular, Gilroy" font-size="100" font-weight="normal" fill="#000000">
                <tspan x="134" y="120">Fever Alert</tspan>
            </text>
        </g>
    </g>
</svg>