<?xml version="1.0" encoding="UTF-8"?>
<svg width="588px" height="312px" viewBox="0 0 588 312" version="1.1" xmlns="http://www.w3.org/2000/svg" xmlns:xlink="http://www.w3.org/1999/xlink">
    <title>Notification</title>
    <defs>
        <filter x="-3.3%" y="-9.8%" width="106.7%" height="119.5%" filterUnits="objectBoundingBox" id="filter-1">
            <feOffset dx="0" dy="2" in="SourceAlpha" result="shadowOffsetOuter1"></feOffset>
            <feGaussianBlur stdDeviation="2" in="shadowOffsetOuter1" result="shadowBlurOuter1"></feGaussianBlur>
            <feColorMatrix values="0 0 0 0 0   0 0 0 0 0   0 0 0 0 0  0 0 0 0.5 0" type="matrix" in="shadowBlurOuter1" result="shadowMatrixOuter1"></feColorMatrix>
            <feMerge>
                <feMergeNode in="shadowMatrixOuter1"></feMergeNode>
                <feMergeNode in="SourceGraphic"></feMergeNode>
            </feMerge>
        </filter>
        <rect id="path-2" x="0" y="0" width="359" height="123" rx="13"></rect>
    </defs>
    <g id="Page-1" stroke="none" stroke-width="1" fill="none" fill-rule="evenodd">
        <g id="Notification" transform="translate(9.000000, 0.000000)">
            <g id="Misc/Notification" filter="url(#filter-1)" transform="translate(0.000000, 95.000000)">
                <g id="Notification">
                    <mask id="mask-3" fill="white">
                        <use xlink:href="#path-2"></use>
                    </mask>
                    <use id="Background" fill-opacity="0.82" fill="#F8F8F8" xlink:href="#path-2"></use>
                    <path d="M17.5810547,72 L17.5810547,67.4516602 L21.3310547,61.4311523 L19.8295898,61.4311523 L16.9804688,66.1259766 L16.8632812,66.1259766 L14.0141602,61.4311523 L12.5126953,61.4311523 L16.2626953,67.4516602 L16.2626953,72 L17.5810547,72 Z M24.7897852,72.1391602 C27.0383203,72.1391602 28.4299219,70.5864258 28.4299219,68.0522461 C28.4299219,65.5107422 27.0383203,63.965332 24.7897852,63.965332 C22.54125,63.965332 21.1496484,65.5107422 21.1496484,68.0522461 C21.1496484,70.5864258 22.54125,72.1391602 24.7897852,72.1391602 Z M24.7897852,71.0039062 C23.2956445,71.0039062 22.4533594,69.9199219 22.4533594,68.0522461 C22.4533594,66.1772461 23.2956445,65.1005859 24.7897852,65.1005859 C26.2839258,65.1005859 27.1262109,66.1772461 27.1262109,68.0522461 C27.1262109,69.9199219 26.2839258,71.0039062 24.7897852,71.0039062 Z M32.7895312,72.1391602 C33.9980273,72.1391602 34.8403125,71.6411133 35.2358203,70.762207 L35.3530078,70.762207 L35.3530078,72 L36.5541797,72 L36.5541797,64.1044922 L35.2944141,64.1044922 L35.2944141,68.7773438 C35.2944141,70.1616211 34.5326953,70.9892578 33.1410937,70.9892578 C31.8813281,70.9892578 31.3539844,70.3300781 31.3539844,68.9091797 L31.3539844,64.1044922 L30.0942187,64.1044922 L30.0942187,69.2167969 C30.0942187,71.0844727 31.0170703,72.1391602 32.7895312,72.1391602 Z M39.9469922,72 L39.9469922,67.1074219 C39.9469922,65.9941406 40.8185742,65.1884766 42.0197461,65.1884766 C42.2687695,65.1884766 42.7228711,65.2324219 42.8254102,65.2617188 L42.8254102,64.0019531 C42.6642773,63.9799805 42.4006055,63.965332 42.1955273,63.965332 C41.1481641,63.965332 40.2399609,64.5073242 40.0055859,65.2763672 L39.8883984,65.2763672 L39.8883984,64.1044922 L38.6872266,64.1044922 L38.6872266,72 L39.9469922,72 Z M49.4865234,72 L49.4865234,67.3271484 C49.4865234,65.9941406 50.2628906,65.1005859 51.6764648,65.1005859 C52.8703125,65.1005859 53.5001953,65.7963867 53.5001953,67.1953125 L53.5001953,72 L54.7599609,72 L54.7599609,66.8876953 C54.7599609,65.034668 53.7052734,63.965332 52.0353516,63.965332 C50.8268555,63.965332 49.9992187,64.4780273 49.6037109,65.3496094 L49.4865234,65.3496094 L49.4865234,60.9697266 L48.2267578,60.9697266 L48.2267578,72 L49.4865234,72 Z M59.9838281,72.1391602 C61.7123437,72.1391602 62.9281641,71.3115234 63.3090234,69.956543 L62.0492578,69.956543 C61.719668,70.6523438 61.0311914,71.0258789 60.013125,71.0258789 C58.672793,71.0258789 57.8012109,70.0371094 57.735293,68.4770508 L57.735293,68.418457 L63.4115625,68.418457 L63.4115625,67.9350586 C63.4115625,65.4814453 62.1151758,63.965332 59.9838281,63.965332 C57.8158594,63.965332 56.4242578,65.5766602 56.4242578,68.0595703 C56.4242578,70.5571289 57.7938867,72.1391602 59.9838281,72.1391602 Z M62.0858789,67.4003906 L57.735293,67.4003906 C57.8305078,66.0014648 58.7094141,65.0786133 59.9691797,65.0786133 C61.2216211,65.0786133 62.056582,66.0014648 62.0858789,67.4003906 Z M67.3463672,72.1391602 C68.4010547,72.1391602 69.2653125,71.6777344 69.7780078,70.8354492 L69.8951953,70.8354492 L69.8951953,72 L71.0963672,72 L71.0963672,66.5947266 C71.0963672,64.9541016 70.019707,63.965332 68.0934375,63.965332 C66.4088672,63.965332 65.16375,64.800293 64.995293,66.0673828 L66.269707,66.0673828 C66.4454883,65.4448242 67.104668,65.0859375 68.0494922,65.0859375 C69.2286914,65.0859375 69.8366016,65.6206055 69.8366016,66.5947266 L69.8366016,67.3125 L67.5587695,67.4516602 C65.7203906,67.5615234 64.6803516,68.3745117 64.6803516,69.7880859 C64.6803516,71.230957 65.8156055,72.1391602 67.3463672,72.1391602 Z M67.5807422,71.0332031 C66.6652148,71.0332031 65.9840625,70.5644531 65.9840625,69.7587891 C65.9840625,68.9677734 66.5114062,68.550293 67.7125781,68.4697266 L69.8366016,68.3305664 L69.8366016,69.0556641 C69.8366016,70.1835938 68.8771289,71.0332031 67.5807422,71.0332031 Z M74.4452344,72 L74.4452344,67.1074219 C74.4452344,65.9941406 75.3168164,65.1884766 76.5179883,65.1884766 C76.7670117,65.1884766 77.2211133,65.2324219 77.3236523,65.2617188 L77.3236523,64.0019531 C77.1625195,63.9799805 76.8988477,63.965332 76.6937695,63.965332 C75.6464062,63.965332 74.7382031,64.5073242 74.5038281,65.2763672 L74.3866406,65.2763672 L74.3866406,64.1044922 L73.1854687,64.1044922 L73.1854687,72 L74.4452344,72 Z M81.9029883,72.0585938 C82.1520117,72.0585938 82.3937109,72.0292969 82.6427344,71.9853516 L82.6427344,70.9233398 C82.4083594,70.9453125 82.2838477,70.9526367 82.0567969,70.9526367 C81.2364844,70.9526367 80.8849219,70.5571289 80.8849219,69.6269531 L80.8849219,65.1591797 L82.6427344,65.1591797 L82.6427344,64.1044922 L80.8849219,64.1044922 L80.8849219,62.0610352 L79.6251562,62.0610352 L79.6251562,64.1044922 L78.3507422,64.1044922 L78.3507422,65.1591797 L79.6251562,65.1591797 L79.6251562,69.9492188 C79.6251562,71.4580078 80.2770117,72.0585938 81.9029883,72.0585938 Z M89.5601953,72 L89.5601953,67.1074219 C89.5601953,65.9941406 90.4317773,65.1884766 91.6329492,65.1884766 C91.8819727,65.1884766 92.3360742,65.2324219 92.4386133,65.2617188 L92.4386133,64.0019531 C92.2774805,63.9799805 92.0138086,63.965332 91.8087305,63.965332 C90.7613672,63.965332 89.8531641,64.5073242 89.6187891,65.2763672 L89.5016016,65.2763672 L89.5016016,64.1044922 L88.3004297,64.1044922 L88.3004297,72 L89.5601953,72 Z M95.9705859,72.1391602 C97.0252734,72.1391602 97.8895313,71.6777344 98.4022266,70.8354492 L98.5194141,70.8354492 L98.5194141,72 L99.7205859,72 L99.7205859,66.5947266 C99.7205859,64.9541016 98.6439258,63.965332 96.7176563,63.965332 C95.0330859,63.965332 93.7879688,64.800293 93.6195117,66.0673828 L94.8939258,66.0673828 C95.069707,65.4448242 95.7288867,65.0859375 96.6737109,65.0859375 C97.8529102,65.0859375 98.4608203,65.6206055 98.4608203,66.5947266 L98.4608203,67.3125 L96.1829883,67.4516602 C94.3446094,67.5615234 93.3045703,68.3745117 93.3045703,69.7880859 C93.3045703,71.230957 94.4398242,72.1391602 95.9705859,72.1391602 Z M96.2049609,71.0332031 C95.2894336,71.0332031 94.6082813,70.5644531 94.6082813,69.7587891 C94.6082813,68.9677734 95.135625,68.550293 96.3367969,68.4697266 L98.4608203,68.3305664 L98.4608203,69.0556641 C98.4608203,70.1835938 97.5013477,71.0332031 96.2049609,71.0332031 Z M104.614863,72.0585938 C104.863887,72.0585938 105.105586,72.0292969 105.354609,71.9853516 L105.354609,70.9233398 C105.120234,70.9453125 104.995723,70.9526367 104.768672,70.9526367 C103.948359,70.9526367 103.596797,70.5571289 103.596797,69.6269531 L103.596797,65.1591797 L105.354609,65.1591797 L105.354609,64.1044922 L103.596797,64.1044922 L103.596797,62.0610352 L102.337031,62.0610352 L102.337031,64.1044922 L101.062617,64.1044922 L101.062617,65.1591797 L102.337031,65.1591797 L102.337031,69.9492188 C102.337031,71.4580078 102.988887,72.0585938 104.614863,72.0585938 Z M110.073105,72.1391602 C111.801621,72.1391602 113.017441,71.3115234 113.398301,69.956543 L112.138535,69.956543 C111.808945,70.6523438 111.120469,71.0258789 110.102402,71.0258789 C108.76207,71.0258789 107.890488,70.0371094 107.82457,68.4770508 L107.82457,68.418457 L113.50084,68.418457 L113.50084,67.9350586 C113.50084,65.4814453 112.204453,63.965332 110.073105,63.965332 C107.905137,63.965332 106.513535,65.5766602 106.513535,68.0595703 C106.513535,70.5571289 107.883164,72.1391602 110.073105,72.1391602 Z M112.175156,67.4003906 L107.82457,67.4003906 C107.919785,66.0014648 108.798691,65.0786133 110.058457,65.0786133 C111.310898,65.0786133 112.145859,66.0014648 112.175156,67.4003906 Z M121.429043,72.1391602 C122.48373,72.1391602 123.347988,71.6777344 123.860684,70.8354492 L123.977871,70.8354492 L123.977871,72 L125.179043,72 L125.179043,66.5947266 C125.179043,64.9541016 124.102383,63.965332 122.176113,63.965332 C120.491543,63.965332 119.246426,64.800293 119.077969,66.0673828 L120.352383,66.0673828 C120.528164,65.4448242 121.187344,65.0859375 122.132168,65.0859375 C123.311367,65.0859375 123.919277,65.6206055 123.919277,66.5947266 L123.919277,67.3125 L121.641445,67.4516602 C119.803066,67.5615234 118.763027,68.3745117 118.763027,69.7880859 C118.763027,71.230957 119.898281,72.1391602 121.429043,72.1391602 Z M121.663418,71.0332031 C120.747891,71.0332031 120.066738,70.5644531 120.066738,69.7587891 C120.066738,68.9677734 120.594082,68.550293 121.795254,68.4697266 L123.919277,68.3305664 L123.919277,69.0556641 C123.919277,70.1835938 122.959805,71.0332031 121.663418,71.0332031 Z M130.07332,72.0585938 C130.322344,72.0585938 130.564043,72.0292969 130.813066,71.9853516 L130.813066,70.9233398 C130.578691,70.9453125 130.45418,70.9526367 130.227129,70.9526367 C129.406816,70.9526367 129.055254,70.5571289 129.055254,69.6269531 L129.055254,65.1591797 L130.813066,65.1591797 L130.813066,64.1044922 L129.055254,64.1044922 L129.055254,62.0610352 L127.795488,62.0610352 L127.795488,64.1044922 L126.521074,64.1044922 L126.521074,65.1591797 L127.795488,65.1591797 L127.795488,69.9492188 C127.795488,71.4580078 128.447344,72.0585938 130.07332,72.0585938 Z M137.730527,72 L137.730527,67.1074219 C137.730527,65.9941406 138.602109,65.1884766 139.803281,65.1884766 C140.052305,65.1884766 140.506406,65.2324219 140.608945,65.2617188 L140.608945,64.0019531 C140.447813,63.9799805 140.184141,63.965332 139.979063,63.965332 C138.931699,63.965332 138.023496,64.5073242 137.789121,65.2763672 L137.671934,65.2763672 L137.671934,64.1044922 L136.470762,64.1044922 L136.470762,72 L137.730527,72 Z M144.887988,72.1391602 C146.616504,72.1391602 147.832324,71.3115234 148.213184,69.956543 L146.953418,69.956543 C146.623828,70.6523438 145.935352,71.0258789 144.917285,71.0258789 C143.576953,71.0258789 142.705371,70.0371094 142.639453,68.4770508 L142.639453,68.418457 L148.315723,68.418457 L148.315723,67.9350586 C148.315723,65.4814453 147.019336,63.965332 144.887988,63.965332 C142.72002,63.965332 141.328418,65.5766602 141.328418,68.0595703 C141.328418,70.5571289 142.698047,72.1391602 144.887988,72.1391602 Z M146.990039,67.4003906 L142.639453,67.4003906 C142.734668,66.0014648 143.613574,65.0786133 144.87334,65.0786133 C146.125781,65.0786133 146.960742,66.0014648 146.990039,67.4003906 Z M152.763223,72.1391602 C154.557656,72.1391602 155.927285,71.1650391 155.927285,69.7514648 C155.927285,68.6162109 155.209512,67.9716797 153.722695,67.612793 L152.506875,67.3198242 C151.576699,67.0927734 151.137246,66.7558594 151.137246,66.2138672 C151.137246,65.5107422 151.869668,65.034668 152.807168,65.034668 C153.759316,65.034668 154.374551,65.4521484 154.543008,66.0820312 L155.788125,66.0820312 C155.619668,64.7856445 154.469766,63.965332 152.814492,63.965332 C151.137246,63.965332 149.870156,64.9541016 149.870156,66.2651367 C149.870156,67.4077148 150.543984,68.0449219 152.023477,68.4038086 L153.378457,68.7333984 C154.220742,68.9384766 154.630898,69.3046875 154.630898,69.8466797 C154.630898,70.5717773 153.86918,71.0771484 152.807168,71.0771484 C151.796426,71.0771484 151.166543,70.6523438 150.954141,69.9858398 L149.657754,69.9858398 C149.796914,71.296875 151.00541,72.1391602 152.763223,72.1391602 Z M160.396758,72.0585938 C160.645781,72.0585938 160.88748,72.0292969 161.136504,71.9853516 L161.136504,70.9233398 C160.902129,70.9453125 160.777617,70.9526367 160.550566,70.9526367 C159.730254,70.9526367 159.378691,70.5571289 159.378691,69.6269531 L159.378691,65.1591797 L161.136504,65.1591797 L161.136504,64.1044922 L159.378691,64.1044922 L159.378691,62.0610352 L158.118926,62.0610352 L158.118926,64.1044922 L156.844512,64.1044922 L156.844512,65.1591797 L158.118926,65.1591797 L158.118926,69.9492188 C158.118926,71.4580078 158.770781,72.0585938 160.396758,72.0585938 Z M167.453379,62.5004883 C167.936777,62.5004883 168.332285,62.1049805 168.332285,61.621582 C168.332285,61.1381836 167.936777,60.7426758 167.453379,60.7426758 C166.96998,60.7426758 166.574473,61.1381836 166.574473,61.621582 C166.574473,62.1049805 166.96998,62.5004883 167.453379,62.5004883 Z M168.083262,72 L168.083262,64.1044922 L166.823496,64.1044922 L166.823496,72 L168.083262,72 Z M172.955566,72.1391602 C174.75,72.1391602 176.119629,71.1650391 176.119629,69.7514648 C176.119629,68.6162109 175.401855,67.9716797 173.915039,67.612793 L172.699219,67.3198242 C171.769043,67.0927734 171.32959,66.7558594 171.32959,66.2138672 C171.32959,65.5107422 172.062012,65.034668 172.999512,65.034668 C173.95166,65.034668 174.566895,65.4521484 174.735352,66.0820312 L175.980469,66.0820312 C175.812012,64.7856445 174.662109,63.965332 173.006836,63.965332 C171.32959,63.965332 170.0625,64.9541016 170.0625,66.2651367 C170.0625,67.4077148 170.736328,68.0449219 172.21582,68.4038086 L173.570801,68.7333984 C174.413086,68.9384766 174.823242,69.3046875 174.823242,69.8466797 C174.823242,70.5717773 174.061523,71.0771484 172.999512,71.0771484 C171.98877,71.0771484 171.358887,70.6523438 171.146484,69.9858398 L169.850098,69.9858398 C169.989258,71.296875 171.197754,72.1391602 172.955566,72.1391602 Z M184.047832,72.1391602 C185.10252,72.1391602 185.966777,71.6777344 186.479473,70.8354492 L186.59666,70.8354492 L186.59666,72 L187.797832,72 L187.797832,66.5947266 C187.797832,64.9541016 186.721172,63.965332 184.794902,63.965332 C183.110332,63.965332 181.865215,64.800293 181.696758,66.0673828 L182.971172,66.0673828 C183.146953,65.4448242 183.806133,65.0859375 184.750957,65.0859375 C185.930156,65.0859375 186.538066,65.6206055 186.538066,66.5947266 L186.538066,67.3125 L184.260234,67.4516602 C182.421855,67.5615234 181.381816,68.3745117 181.381816,69.7880859 C181.381816,71.230957 182.51707,72.1391602 184.047832,72.1391602 Z M184.282207,71.0332031 C183.36668,71.0332031 182.685527,70.5644531 182.685527,69.7587891 C182.685527,68.9677734 183.212871,68.550293 184.414043,68.4697266 L186.538066,68.3305664 L186.538066,69.0556641 C186.538066,70.1835938 185.578594,71.0332031 184.282207,71.0332031 Z M193.812715,72.1391602 C195.812227,72.1391602 197.123262,70.5205078 197.123262,68.0522461 C197.123262,65.5693359 195.819551,63.965332 193.812715,63.965332 C192.72873,63.965332 191.769258,64.5 191.337129,65.3496094 L191.219941,65.3496094 L191.219941,60.9697266 L189.960176,60.9697266 L189.960176,72 L191.161348,72 L191.161348,70.7402344 L191.278535,70.7402344 C191.776582,71.6191406 192.714082,72.1391602 193.812715,72.1391602 Z M193.519746,71.0039062 C192.084199,71.0039062 191.190645,69.8759766 191.190645,68.0522461 C191.190645,66.2285156 192.084199,65.1005859 193.519746,65.1005859 C194.962617,65.1005859 195.819551,66.206543 195.819551,68.0522461 C195.819551,69.8979492 194.962617,71.0039062 193.519746,71.0039062 Z M200.120566,72 L200.120566,67.3271484 C200.120566,65.9428711 200.933555,65.1005859 202.19332,65.1005859 C203.453086,65.1005859 204.053672,65.7744141 204.053672,67.1953125 L204.053672,72 L205.313437,72 L205.313437,66.8876953 C205.313437,65.0126953 204.324668,63.965332 202.552207,63.965332 C201.343711,63.965332 200.574668,64.4780273 200.17916,65.3496094 L200.061973,65.3496094 L200.061973,64.1044922 L198.860801,64.1044922 L198.860801,72 L200.120566,72 Z M210.617871,72.1391602 C212.866406,72.1391602 214.258008,70.5864258 214.258008,68.0522461 C214.258008,65.5107422 212.866406,63.965332 210.617871,63.965332 C208.369336,63.965332 206.977734,65.5107422 206.977734,68.0522461 C206.977734,70.5864258 208.369336,72.1391602 210.617871,72.1391602 Z M210.617871,71.0039062 C209.12373,71.0039062 208.281445,69.9199219 208.281445,68.0522461 C208.281445,66.1772461 209.12373,65.1005859 210.617871,65.1005859 C212.112012,65.1005859 212.954297,66.1772461 212.954297,68.0522461 C212.954297,69.9199219 212.112012,71.0039062 210.617871,71.0039062 Z M217.255312,72 L217.255312,67.1074219 C217.255312,65.9941406 218.126895,65.1884766 219.328066,65.1884766 C219.57709,65.1884766 220.031191,65.2324219 220.13373,65.2617188 L220.13373,64.0019531 C219.972598,63.9799805 219.708926,63.965332 219.503848,63.965332 C218.456484,63.965332 217.548281,64.5073242 217.313906,65.2763672 L217.196719,65.2763672 L217.196719,64.1044922 L215.995547,64.1044922 L215.995547,72 L217.255312,72 Z M222.874687,72 L222.874687,67.1074219 C222.874687,65.9941406 223.673027,65.1005859 224.705742,65.1005859 C225.701836,65.1005859 226.353691,65.7011719 226.353691,66.6386719 L226.353691,72 L227.613457,72 L227.613457,66.9243164 C227.613457,65.9208984 228.345879,65.1005859 229.444512,65.1005859 C230.557793,65.1005859 231.107109,65.671875 231.107109,66.8364258 L231.107109,72 L232.366875,72 L232.366875,66.543457 C232.366875,64.8881836 231.465996,63.965332 229.854668,63.965332 C228.763359,63.965332 227.86248,64.5146484 227.437676,65.3496094 L227.320488,65.3496094 C226.954277,64.5292969 226.207207,63.965332 225.137871,63.965332 C224.083184,63.965332 223.292168,64.4707031 222.933281,65.3496094 L222.816094,65.3496094 L222.816094,64.1044922 L221.614922,64.1044922 L221.614922,72 L222.874687,72 Z M236.623945,72.1391602 C237.678633,72.1391602 238.542891,71.6777344 239.055586,70.8354492 L239.172773,70.8354492 L239.172773,72 L240.373945,72 L240.373945,66.5947266 C240.373945,64.9541016 239.297285,63.965332 237.371016,63.965332 C235.686445,63.965332 234.441328,64.800293 234.272871,66.0673828 L235.547285,66.0673828 C235.723066,65.4448242 236.382246,65.0859375 237.32707,65.0859375 C238.50627,65.0859375 239.11418,65.6206055 239.11418,66.5947266 L239.11418,67.3125 L236.836348,67.4516602 C234.997969,67.5615234 233.95793,68.3745117 233.95793,69.7880859 C233.95793,71.230957 235.093184,72.1391602 236.623945,72.1391602 Z M236.85832,71.0332031 C235.942793,71.0332031 235.261641,70.5644531 235.261641,69.7587891 C235.261641,68.9677734 235.788984,68.550293 236.990156,68.4697266 L239.11418,68.3305664 L239.11418,69.0556641 C239.11418,70.1835938 238.154707,71.0332031 236.85832,71.0332031 Z M243.796055,72 L243.796055,60.9697266 L242.536289,60.9697266 L242.536289,72 L243.796055,72 Z M247.335352,72 L247.335352,60.9697266 L246.075586,60.9697266 L246.075586,72 L247.335352,72 Z M250.215469,74.8564453 C251.614395,74.8564453 252.244277,74.3144531 252.918105,72.4833984 L256.001602,64.1044922 L254.66127,64.1044922 L252.500625,70.6010742 L252.383437,70.6010742 L250.215469,64.1044922 L248.853164,64.1044922 L251.775527,72.0073242 L251.629043,72.4760742 C251.299453,73.4282227 250.903945,73.7724609 250.178848,73.7724609 C250.003066,73.7724609 249.805312,73.7651367 249.651504,73.7358398 L249.651504,74.8125 C249.827285,74.8417969 250.047012,74.8564453 250.215469,74.8564453 Z M262.772578,72 L262.772578,67.3271484 C262.772578,65.9941406 263.548945,65.1005859 264.96252,65.1005859 C266.156367,65.1005859 266.78625,65.7963867 266.78625,67.1953125 L266.78625,72 L268.046016,72 L268.046016,66.8876953 C268.046016,65.034668 266.991328,63.965332 265.321406,63.965332 C264.11291,63.965332 263.285273,64.4780273 262.889766,65.3496094 L262.772578,65.3496094 L262.772578,60.9697266 L261.512812,60.9697266 L261.512812,72 L262.772578,72 Z M270.765,62.5004883 C271.248398,62.5004883 271.643906,62.1049805 271.643906,61.621582 C271.643906,61.1381836 271.248398,60.7426758 270.765,60.7426758 C270.281602,60.7426758 269.886094,61.1381836 269.886094,61.621582 C269.886094,62.1049805 270.281602,62.5004883 270.765,62.5004883 Z M271.394883,72 L271.394883,64.1044922 L270.135117,64.1044922 L270.135117,72 L271.394883,72 Z M276.80918,75.0322266 C278.9625,75.0322266 280.324805,73.9042969 280.324805,72.1391602 L280.324805,64.1044922 L279.123633,64.1044922 L279.123633,65.3569336 L279.006445,65.3569336 C278.552344,64.5073242 277.578223,63.965332 276.472266,63.965332 C274.443457,63.965332 273.161719,65.5693359 273.161719,67.9350586 C273.161719,70.3007812 274.428809,71.8828125 276.472266,71.8828125 C277.55625,71.8828125 278.449805,71.3920898 278.947852,70.5205078 L279.065039,70.5205078 L279.065039,72.0732422 C279.065039,73.237793 278.222754,73.9335938 276.80918,73.9335938 C275.673926,73.9335938 274.970801,73.5161133 274.831641,72.871582 L273.498633,72.871582 C273.689062,74.175293 274.904883,75.0322266 276.80918,75.0322266 Z M276.750586,70.7695312 C275.285742,70.7695312 274.46543,69.65625 274.46543,67.9350586 C274.46543,66.2138672 275.285742,65.1005859 276.750586,65.1005859 C278.208105,65.1005859 279.094336,66.2138672 279.094336,67.9350586 C279.094336,69.65625 278.21543,70.7695312 276.750586,70.7695312 Z M283.790859,72 L283.790859,67.3271484 C283.790859,65.9941406 284.567227,65.1005859 285.980801,65.1005859 C287.174648,65.1005859 287.804531,65.7963867 287.804531,67.1953125 L287.804531,72 L289.064297,72 L289.064297,66.8876953 C289.064297,65.034668 288.009609,63.965332 286.339687,63.965332 C285.131191,63.965332 284.303555,64.4780273 283.908047,65.3496094 L283.790859,65.3496094 L283.790859,60.9697266 L282.531094,60.9697266 L282.531094,72 L283.790859,72 Z M292.164141,72.0732422 C292.691484,72.0732422 293.116289,71.6411133 293.116289,71.1210938 C293.116289,70.59375 292.691484,70.1689453 292.164141,70.1689453 C291.644121,70.1689453 291.211992,70.59375 291.211992,71.1210938 C291.211992,71.6411133 291.644121,72.0732422 292.164141,72.0732422 Z M302.926816,72 L305.358457,63.6577148 L305.446348,63.6577148 L307.877988,72 L309.123105,72 L312.001523,61.4311523 L310.62457,61.4311523 L308.52252,70.0224609 L308.434629,70.0224609 L306.068906,61.4311523 L304.735898,61.4311523 L302.370176,70.0224609 L302.282285,70.0224609 L300.180234,61.4311523 L298.803281,61.4311523 L301.681699,72 L302.926816,72 Z M316.038867,72.1391602 C317.767383,72.1391602 318.983203,71.3115234 319.364062,69.956543 L318.104297,69.956543 C317.774707,70.6523438 317.08623,71.0258789 316.068164,71.0258789 C314.727832,71.0258789 313.85625,70.0371094 313.790332,68.4770508 L313.790332,68.418457 L319.466602,68.418457 L319.466602,67.9350586 C319.466602,65.4814453 318.170215,63.965332 316.038867,63.965332 C313.870898,63.965332 312.479297,65.5766602 312.479297,68.0595703 C312.479297,70.5571289 313.848926,72.1391602 316.038867,72.1391602 Z M318.140918,67.4003906 L313.790332,67.4003906 C313.885547,66.0014648 314.764453,65.0786133 316.024219,65.0786133 C317.27666,65.0786133 318.111621,66.0014648 318.140918,67.4003906 Z M15.8964844,90.1391602 C17.690918,90.1391602 19.0605469,89.1650391 19.0605469,87.7514648 C19.0605469,86.6162109 18.3427734,85.9716797 16.855957,85.612793 L15.6401367,85.3198242 C14.7099609,85.0927734 14.2705078,84.7558594 14.2705078,84.2138672 C14.2705078,83.5107422 15.0029297,83.034668 15.9404297,83.034668 C16.8925781,83.034668 17.5078125,83.4521484 17.6762695,84.0820312 L18.9213867,84.0820312 C18.7529297,82.7856445 17.6030273,81.965332 15.9477539,81.965332 C14.2705078,81.965332 13.003418,82.9541016 13.003418,84.2651367 C13.003418,85.4077148 13.6772461,86.0449219 15.1567383,86.4038086 L16.5117188,86.7333984 C17.3540039,86.9384766 17.7641602,87.3046875 17.7641602,87.8466797 C17.7641602,88.5717773 17.0024414,89.0771484 15.9404297,89.0771484 C14.9296875,89.0771484 14.2998047,88.6523438 14.0874023,87.9858398 L12.7910156,87.9858398 C12.9301758,89.296875 14.1386719,90.1391602 15.8964844,90.1391602 Z M23.5300195,90.0585938 C23.779043,90.0585938 24.0207422,90.0292969 24.2697656,89.9853516 L24.2697656,88.9233398 C24.0353906,88.9453125 23.9108789,88.9526367 23.6838281,88.9526367 C22.8635156,88.9526367 22.5119531,88.5571289 22.5119531,87.6269531 L22.5119531,83.1591797 L24.2697656,83.1591797 L24.2697656,82.1044922 L22.5119531,82.1044922 L22.5119531,80.0610352 L21.2521875,80.0610352 L21.2521875,82.1044922 L19.9777734,82.1044922 L19.9777734,83.1591797 L21.2521875,83.1591797 L21.2521875,87.9492188 C21.2521875,89.4580078 21.904043,90.0585938 23.5300195,90.0585938 Z M27.1938281,90 L27.1938281,85.1074219 C27.1938281,83.9941406 28.0654102,83.1884766 29.266582,83.1884766 C29.5156055,83.1884766 29.969707,83.2324219 30.0722461,83.2617188 L30.0722461,82.0019531 C29.9111133,81.9799805 29.6474414,81.965332 29.4423633,81.965332 C28.395,81.965332 27.4867969,82.5073242 27.2524219,83.2763672 L27.1352344,83.2763672 L27.1352344,82.1044922 L25.9340625,82.1044922 L25.9340625,90 L27.1938281,90 Z M34.4318555,90.1391602 C36.6803906,90.1391602 38.0719922,88.5864258 38.0719922,86.0522461 C38.0719922,83.5107422 36.6803906,81.965332 34.4318555,81.965332 C32.1833203,81.965332 30.7917188,83.5107422 30.7917188,86.0522461 C30.7917188,88.5864258 32.1833203,90.1391602 34.4318555,90.1391602 Z M34.4318555,89.0039062 C32.9377148,89.0039062 32.0954297,87.9199219 32.0954297,86.0522461 C32.0954297,84.1772461 32.9377148,83.1005859 34.4318555,83.1005859 C35.9259961,83.1005859 36.7682813,84.1772461 36.7682813,86.0522461 C36.7682813,87.9199219 35.9259961,89.0039062 34.4318555,89.0039062 Z M41.0692969,90 L41.0692969,85.3271484 C41.0692969,83.9428711 41.8822852,83.1005859 43.1420508,83.1005859 C44.4018164,83.1005859 45.0024023,83.7744141 45.0024023,85.1953125 L45.0024023,90 L46.262168,90 L46.262168,84.8876953 C46.262168,83.0126953 45.2733984,81.965332 43.5009375,81.965332 C42.2924414,81.965332 41.5233984,82.4780273 41.1278906,83.3496094 L41.0107031,83.3496094 L41.0107031,82.1044922 L39.8095312,82.1044922 L39.8095312,90 L41.0692969,90 Z M51.5739258,93.0322266 C53.7272461,93.0322266 55.0895508,91.9042969 55.0895508,90.1391602 L55.0895508,82.1044922 L53.8883789,82.1044922 L53.8883789,83.3569336 L53.7711914,83.3569336 C53.3170898,82.5073242 52.3429687,81.965332 51.2370117,81.965332 C49.2082031,81.965332 47.9264648,83.5693359 47.9264648,85.9350586 C47.9264648,88.3007812 49.1935547,89.8828125 51.2370117,89.8828125 C52.3209961,89.8828125 53.2145508,89.3920898 53.7125977,88.5205078 L53.8297852,88.5205078 L53.8297852,90.0732422 C53.8297852,91.237793 52.9875,91.9335938 51.5739258,91.9335938 C50.4386719,91.9335938 49.7355469,91.5161133 49.5963867,90.871582 L48.2633789,90.871582 C48.4538086,92.175293 49.6696289,93.0322266 51.5739258,93.0322266 Z M51.515332,88.7695312 C50.0504883,88.7695312 49.2301758,87.65625 49.2301758,85.9350586 C49.2301758,84.2138672 50.0504883,83.1005859 51.515332,83.1005859 C52.9728516,83.1005859 53.859082,84.2138672 53.859082,85.9350586 C53.859082,87.65625 52.9801758,88.7695312 51.515332,88.7695312 Z M58.5556055,90 L58.5556055,78.9697266 L57.2958398,78.9697266 L57.2958398,90 L58.5556055,90 Z M61.4357227,92.8564453 C62.8346484,92.8564453 63.4645312,92.3144531 64.1383594,90.4833984 L67.2218555,82.1044922 L65.8815234,82.1044922 L63.7208789,88.6010742 L63.6036914,88.6010742 L61.4357227,82.1044922 L60.073418,82.1044922 L62.9957812,90.0073242 L62.8492969,90.4760742 C62.519707,91.4282227 62.1241992,91.7724609 61.3991016,91.7724609 C61.2233203,91.7724609 61.0255664,91.7651367 60.8717578,91.7358398 L60.8717578,92.8125 C61.0475391,92.8417969 61.2672656,92.8564453 61.4357227,92.8564453 Z M73.9195898,90 L73.9195898,85.1074219 C73.9195898,83.9941406 74.7911719,83.1884766 75.9923437,83.1884766 C76.2413672,83.1884766 76.6954687,83.2324219 76.7980078,83.2617188 L76.7980078,82.0019531 C76.636875,81.9799805 76.3732031,81.965332 76.168125,81.965332 C75.1207617,81.965332 74.2125586,82.5073242 73.9781836,83.2763672 L73.8609961,83.2763672 L73.8609961,82.1044922 L72.6598242,82.1044922 L72.6598242,90 L73.9195898,90 Z M81.0770508,90.1391602 C82.8055664,90.1391602 84.0213867,89.3115234 84.4022461,87.956543 L83.1424805,87.956543 C82.8128906,88.6523438 82.1244141,89.0258789 81.1063477,89.0258789 C79.7660156,89.0258789 78.8944336,88.0371094 78.8285156,86.4770508 L78.8285156,86.418457 L84.5047852,86.418457 L84.5047852,85.9350586 C84.5047852,83.4814453 83.2083984,81.965332 81.0770508,81.965332 C78.909082,81.965332 77.5174805,83.5766602 77.5174805,86.0595703 C77.5174805,88.5571289 78.8871094,90.1391602 81.0770508,90.1391602 Z M83.1791016,85.4003906 L78.8285156,85.4003906 C78.9237305,84.0014648 79.8026367,83.0786133 81.0624023,83.0786133 C82.3148437,83.0786133 83.1498047,84.0014648 83.1791016,85.4003906 Z M89.4723047,90.1391602 C91.3692773,90.1391602 92.5484766,89.0698242 92.7755273,87.6196289 L91.5011133,87.6196289 C91.2667383,88.5131836 90.5269922,89.0039062 89.4649805,89.0039062 C88.0587305,89.0039062 87.1505273,87.8466797 87.1505273,86.0229492 C87.1505273,84.2358398 88.044082,83.1005859 89.4649805,83.1005859 C90.6002344,83.1005859 91.2960352,83.737793 91.5011133,84.5214844 L92.7755273,84.5214844 C92.5558008,83.1152344 91.3839258,81.965332 89.4649805,81.965332 C87.2530664,81.965332 85.8468164,83.5620117 85.8468164,86.0229492 C85.8468164,88.5351562 87.2603906,90.1391602 89.4723047,90.1391602 Z M97.6405078,90.1391602 C99.889043,90.1391602 101.280645,88.5864258 101.280645,86.0522461 C101.280645,83.5107422 99.889043,81.965332 97.6405078,81.965332 C95.3919727,81.965332 94.0003711,83.5107422 94.0003711,86.0522461 C94.0003711,88.5864258 95.3919727,90.1391602 97.6405078,90.1391602 Z M97.6405078,89.0039062 C96.1463672,89.0039062 95.304082,87.9199219 95.304082,86.0522461 C95.304082,84.1772461 96.1463672,83.1005859 97.6405078,83.1005859 C99.1346484,83.1005859 99.9769336,84.1772461 99.9769336,86.0522461 C99.9769336,87.9199219 99.1346484,89.0039062 97.6405078,89.0039062 Z M104.277949,90 L104.277949,85.1074219 C104.277949,83.9941406 105.076289,83.1005859 106.109004,83.1005859 C107.105098,83.1005859 107.756953,83.7011719 107.756953,84.6386719 L107.756953,90 L109.016719,90 L109.016719,84.9243164 C109.016719,83.9208984 109.749141,83.1005859 110.847773,83.1005859 C111.961055,83.1005859 112.510371,83.671875 112.510371,84.8364258 L112.510371,90 L113.770137,90 L113.770137,84.543457 C113.770137,82.8881836 112.869258,81.965332 111.25793,81.965332 C110.166621,81.965332 109.265742,82.5146484 108.840938,83.3496094 L108.72375,83.3496094 C108.357539,82.5292969 107.610469,81.965332 106.541133,81.965332 C105.486445,81.965332 104.69543,82.4707031 104.336543,83.3496094 L104.219355,83.3496094 L104.219355,82.1044922 L103.018184,82.1044922 L103.018184,90 L104.277949,90 Z M117.089707,90 L117.089707,85.1074219 C117.089707,83.9941406 117.888047,83.1005859 118.920762,83.1005859 C119.916855,83.1005859 120.568711,83.7011719 120.568711,84.6386719 L120.568711,90 L121.828477,90 L121.828477,84.9243164 C121.828477,83.9208984 122.560898,83.1005859 123.659531,83.1005859 C124.772813,83.1005859 125.322129,83.671875 125.322129,84.8364258 L125.322129,90 L126.581895,90 L126.581895,84.543457 C126.581895,82.8881836 125.681016,81.965332 124.069688,81.965332 C122.978379,81.965332 122.0775,82.5146484 121.652695,83.3496094 L121.535508,83.3496094 C121.169297,82.5292969 120.422227,81.965332 119.352891,81.965332 C118.298203,81.965332 117.507188,82.4707031 117.148301,83.3496094 L117.031113,83.3496094 L117.031113,82.1044922 L115.829941,82.1044922 L115.829941,90 L117.089707,90 Z M131.805762,90.1391602 C133.534277,90.1391602 134.750098,89.3115234 135.130957,87.956543 L133.871191,87.956543 C133.541602,88.6523438 132.853125,89.0258789 131.835059,89.0258789 C130.494727,89.0258789 129.623145,88.0371094 129.557227,86.4770508 L129.557227,86.418457 L135.233496,86.418457 L135.233496,85.9350586 C135.233496,83.4814453 133.937109,81.965332 131.805762,81.965332 C129.637793,81.965332 128.246191,83.5766602 128.246191,86.0595703 C128.246191,88.5571289 129.61582,90.1391602 131.805762,90.1391602 Z M133.907813,85.4003906 L129.557227,85.4003906 C129.652441,84.0014648 130.531348,83.0786133 131.791113,83.0786133 C133.043555,83.0786133 133.878516,84.0014648 133.907813,85.4003906 Z M138.230801,90 L138.230801,85.3271484 C138.230801,83.9428711 139.043789,83.1005859 140.303555,83.1005859 C141.56332,83.1005859 142.163906,83.7744141 142.163906,85.1953125 L142.163906,90 L143.423672,90 L143.423672,84.8876953 C143.423672,83.0126953 142.434902,81.965332 140.662441,81.965332 C139.453945,81.965332 138.684902,82.4780273 138.289395,83.3496094 L138.172207,83.3496094 L138.172207,82.1044922 L136.971035,82.1044922 L136.971035,90 L138.230801,90 Z M148.40584,90.1391602 C149.497148,90.1391602 150.434648,89.6191406 150.932695,88.7402344 L151.049883,88.7402344 L151.049883,90 L152.251055,90 L152.251055,78.9697266 L150.991289,78.9697266 L150.991289,83.3496094 L150.881426,83.3496094 C150.434648,82.4853516 149.504473,81.965332 148.40584,81.965332 C146.399004,81.965332 145.087969,83.5766602 145.087969,86.0522461 C145.087969,88.5351562 146.384355,90.1391602 148.40584,90.1391602 Z M148.698809,89.0039062 C147.255938,89.0039062 146.39168,87.8979492 146.39168,86.0522461 C146.39168,84.2138672 147.263262,83.1005859 148.698809,83.1005859 C150.127031,83.1005859 151.020586,84.2431641 151.020586,86.0522461 C151.020586,87.8759766 150.134355,89.0039062 148.698809,89.0039062 Z M159.12457,92.8564453 C160.523496,92.8564453 161.153379,92.3144531 161.827207,90.4833984 L164.910703,82.1044922 L163.570371,82.1044922 L161.409727,88.6010742 L161.292539,88.6010742 L159.12457,82.1044922 L157.762266,82.1044922 L160.684629,90.0073242 L160.538145,90.4760742 C160.208555,91.4282227 159.813047,91.7724609 159.087949,91.7724609 C158.912168,91.7724609 158.714414,91.7651367 158.560605,91.7358398 L158.560605,92.8125 C158.736387,92.8417969 158.956113,92.8564453 159.12457,92.8564453 Z M169.306934,90.1391602 C171.555469,90.1391602 172.94707,88.5864258 172.94707,86.0522461 C172.94707,83.5107422 171.555469,81.965332 169.306934,81.965332 C167.058398,81.965332 165.666797,83.5107422 165.666797,86.0522461 C165.666797,88.5864258 167.058398,90.1391602 169.306934,90.1391602 Z M169.306934,89.0039062 C167.812793,89.0039062 166.970508,87.9199219 166.970508,86.0522461 C166.970508,84.1772461 167.812793,83.1005859 169.306934,83.1005859 C170.801074,83.1005859 171.643359,84.1772461 171.643359,86.0522461 C171.643359,87.9199219 170.801074,89.0039062 169.306934,89.0039062 Z M177.30668,90.1391602 C178.515176,90.1391602 179.357461,89.6411133 179.752969,88.762207 L179.870156,88.762207 L179.870156,90 L181.071328,90 L181.071328,82.1044922 L179.811562,82.1044922 L179.811562,86.7773438 C179.811562,88.1616211 179.049844,88.9892578 177.658242,88.9892578 C176.398477,88.9892578 175.871133,88.3300781 175.871133,86.9091797 L175.871133,82.1044922 L174.611367,82.1044922 L174.611367,87.2167969 C174.611367,89.0844727 175.534219,90.1391602 177.30668,90.1391602 Z M190.002949,90.0585938 C190.251973,90.0585938 190.493672,90.0292969 190.742695,89.9853516 L190.742695,88.9233398 C190.50832,88.9453125 190.383809,88.9526367 190.156758,88.9526367 C189.336445,88.9526367 188.984883,88.5571289 188.984883,87.6269531 L188.984883,83.1591797 L190.742695,83.1591797 L190.742695,82.1044922 L188.984883,82.1044922 L188.984883,80.0610352 L187.725117,80.0610352 L187.725117,82.1044922 L186.450703,82.1044922 L186.450703,83.1591797 L187.725117,83.1591797 L187.725117,87.9492188 C187.725117,89.4580078 188.376973,90.0585938 190.002949,90.0585938 Z M195.541758,90.1391602 C197.790293,90.1391602 199.181895,88.5864258 199.181895,86.0522461 C199.181895,83.5107422 197.790293,81.965332 195.541758,81.965332 C193.293223,81.965332 191.901621,83.5107422 191.901621,86.0522461 C191.901621,88.5864258 193.293223,90.1391602 195.541758,90.1391602 Z M195.541758,89.0039062 C194.047617,89.0039062 193.205332,87.9199219 193.205332,86.0522461 C193.205332,84.1772461 194.047617,83.1005859 195.541758,83.1005859 C197.035898,83.1005859 197.878184,84.1772461 197.878184,86.0522461 C197.878184,87.9199219 197.035898,89.0039062 195.541758,89.0039062 Z M208.142812,90.1391602 C210.039785,90.1391602 211.218984,89.0698242 211.446035,87.6196289 L210.171621,87.6196289 C209.937246,88.5131836 209.1975,89.0039062 208.135488,89.0039062 C206.729238,89.0039062 205.821035,87.8466797 205.821035,86.0229492 C205.821035,84.2358398 206.71459,83.1005859 208.135488,83.1005859 C209.270742,83.1005859 209.966543,83.737793 210.171621,84.5214844 L211.446035,84.5214844 C211.226309,83.1152344 210.054434,81.965332 208.135488,81.965332 C205.923574,81.965332 204.517324,83.5620117 204.517324,86.0229492 C204.517324,88.5351562 205.930898,90.1391602 208.142812,90.1391602 Z M214.399395,90 L214.399395,85.3271484 C214.399395,83.9941406 215.175762,83.1005859 216.589336,83.1005859 C217.783184,83.1005859 218.413066,83.7963867 218.413066,85.1953125 L218.413066,90 L219.672832,90 L219.672832,84.8876953 C219.672832,83.034668 218.618145,81.965332 216.948223,81.965332 C215.739727,81.965332 214.91209,82.4780273 214.516582,83.3496094 L214.399395,83.3496094 L214.399395,78.9697266 L213.139629,78.9697266 L213.139629,90 L214.399395,90 Z M224.896699,90.1391602 C226.625215,90.1391602 227.841035,89.3115234 228.221895,87.956543 L226.962129,87.956543 C226.632539,88.6523438 225.944062,89.0258789 224.925996,89.0258789 C223.585664,89.0258789 222.714082,88.0371094 222.648164,86.4770508 L222.648164,86.418457 L228.324434,86.418457 L228.324434,85.9350586 C228.324434,83.4814453 227.028047,81.965332 224.896699,81.965332 C222.72873,81.965332 221.337129,83.5766602 221.337129,86.0595703 C221.337129,88.5571289 222.706758,90.1391602 224.896699,90.1391602 Z M226.99875,85.4003906 L222.648164,85.4003906 C222.743379,84.0014648 223.622285,83.0786133 224.882051,83.0786133 C226.134492,83.0786133 226.969453,84.0014648 226.99875,85.4003906 Z M233.291953,90.1391602 C235.188926,90.1391602 236.368125,89.0698242 236.595176,87.6196289 L235.320762,87.6196289 C235.086387,88.5131836 234.346641,89.0039062 233.284629,89.0039062 C231.878379,89.0039062 230.970176,87.8466797 230.970176,86.0229492 C230.970176,84.2358398 231.86373,83.1005859 233.284629,83.1005859 C234.419883,83.1005859 235.115684,83.737793 235.320762,84.5214844 L236.595176,84.5214844 C236.375449,83.1152344 235.203574,81.965332 233.284629,81.965332 C231.072715,81.965332 229.666465,83.5620117 229.666465,86.0229492 C229.666465,88.5351562 231.080039,90.1391602 233.291953,90.1391602 Z M239.548535,90 L239.548535,87.0043945 L240.30293,86.3012695 L243.261914,90 L244.865918,90 L241.24043,85.4882812 L244.638867,82.1044922 L243.093457,82.1044922 L239.665723,85.5541992 L239.548535,85.5541992 L239.548535,78.9697266 L238.28877,78.9697266 L238.28877,90 L239.548535,90 Z M250.787285,92.8564453 C252.186211,92.8564453 252.816094,92.3144531 253.489922,90.4833984 L256.573418,82.1044922 L255.233086,82.1044922 L253.072441,88.6010742 L252.955254,88.6010742 L250.787285,82.1044922 L249.42498,82.1044922 L252.347344,90.0073242 L252.200859,90.4760742 C251.87127,91.4282227 251.475762,91.7724609 250.750664,91.7724609 C250.574883,91.7724609 250.377129,91.7651367 250.22332,91.7358398 L250.22332,92.8125 C250.399102,92.8417969 250.618828,92.8564453 250.787285,92.8564453 Z M260.969648,90.1391602 C263.218184,90.1391602 264.609785,88.5864258 264.609785,86.0522461 C264.609785,83.5107422 263.218184,81.965332 260.969648,81.965332 C258.721113,81.965332 257.329512,83.5107422 257.329512,86.0522461 C257.329512,88.5864258 258.721113,90.1391602 260.969648,90.1391602 Z M260.969648,89.0039062 C259.475508,89.0039062 258.633223,87.9199219 258.633223,86.0522461 C258.633223,84.1772461 259.475508,83.1005859 260.969648,83.1005859 C262.463789,83.1005859 263.306074,84.1772461 263.306074,86.0522461 C263.306074,87.9199219 262.463789,89.0039062 260.969648,89.0039062 Z M268.969395,90.1391602 C270.177891,90.1391602 271.020176,89.6411133 271.415684,88.762207 L271.532871,88.762207 L271.532871,90 L272.734043,90 L272.734043,82.1044922 L271.474277,82.1044922 L271.474277,86.7773438 C271.474277,88.1616211 270.712559,88.9892578 269.320957,88.9892578 C268.061191,88.9892578 267.533848,88.3300781 267.533848,86.9091797 L267.533848,82.1044922 L266.274082,82.1044922 L266.274082,87.2167969 C266.274082,89.0844727 267.196934,90.1391602 268.969395,90.1391602 Z M276.126855,90 L276.126855,85.1074219 C276.126855,83.9941406 276.998437,83.1884766 278.199609,83.1884766 C278.448633,83.1884766 278.902734,83.2324219 279.005273,83.2617188 L279.005273,82.0019531 C278.844141,81.9799805 278.580469,81.965332 278.375391,81.965332 C277.328027,81.965332 276.419824,82.5073242 276.185449,83.2763672 L276.068262,83.2763672 L276.068262,82.1044922 L274.86709,82.1044922 L274.86709,90 L276.126855,90 Z M288.25916,90.1391602 C290.258672,90.1391602 291.569707,88.5205078 291.569707,86.0522461 C291.569707,83.5693359 290.265996,81.965332 288.25916,81.965332 C287.175176,81.965332 286.215703,82.5 285.783574,83.3496094 L285.666387,83.3496094 L285.666387,78.9697266 L284.406621,78.9697266 L284.406621,90 L285.607793,90 L285.607793,88.7402344 L285.72498,88.7402344 C286.223027,89.6191406 287.160527,90.1391602 288.25916,90.1391602 Z M287.966191,89.0039062 C286.530645,89.0039062 285.63709,87.8759766 285.63709,86.0522461 C285.63709,84.2285156 286.530645,83.1005859 287.966191,83.1005859 C289.409062,83.1005859 290.265996,84.206543 290.265996,86.0522461 C290.265996,87.8979492 289.409062,89.0039062 287.966191,89.0039062 Z M296.551875,90.1391602 C298.80041,90.1391602 300.192012,88.5864258 300.192012,86.0522461 C300.192012,83.5107422 298.80041,81.965332 296.551875,81.965332 C294.30334,81.965332 292.911738,83.5107422 292.911738,86.0522461 C292.911738,88.5864258 294.30334,90.1391602 296.551875,90.1391602 Z M296.551875,89.0039062 C295.057734,89.0039062 294.215449,87.9199219 294.215449,86.0522461 C294.215449,84.1772461 295.057734,83.1005859 296.551875,83.1005859 C298.046016,83.1005859 298.888301,84.1772461 298.888301,86.0522461 C298.888301,87.9199219 298.046016,89.0039062 296.551875,89.0039062 Z M304.851914,90.1391602 C305.943223,90.1391602 306.880723,89.6191406 307.37877,88.7402344 L307.495957,88.7402344 L307.495957,90 L308.697129,90 L308.697129,78.9697266 L307.437363,78.9697266 L307.437363,83.3496094 L307.3275,83.3496094 C306.880723,82.4853516 305.950547,81.965332 304.851914,81.965332 C302.845078,81.965332 301.534043,83.5766602 301.534043,86.0522461 C301.534043,88.5351562 302.83043,90.1391602 304.851914,90.1391602 Z M305.144883,89.0039062 C303.702012,89.0039062 302.837754,87.8979492 302.837754,86.0522461 C302.837754,84.2138672 303.709336,83.1005859 305.144883,83.1005859 C306.573105,83.1005859 307.46666,84.2431641 307.46666,86.0522461 C307.46666,87.8759766 306.58043,89.0039062 305.144883,89.0039062 Z M311.577246,92.8564453 C312.976172,92.8564453 313.606055,92.3144531 314.279883,90.4833984 L317.363379,82.1044922 L316.023047,82.1044922 L313.862402,88.6010742 L313.745215,88.6010742 L311.577246,82.1044922 L310.214941,82.1044922 L313.137305,90.0073242 L312.99082,90.4760742 C312.66123,91.4282227 312.265723,91.7724609 311.540625,91.7724609 C311.364844,91.7724609 311.16709,91.7651367 311.013281,91.7358398 L311.013281,92.8125 C311.189062,92.8417969 311.408789,92.8564453 311.577246,92.8564453 Z M15.9916992,108.058594 C16.2407227,108.058594 16.4824219,108.029297 16.7314453,107.985352 L16.7314453,106.92334 C16.4970703,106.945312 16.3725586,106.952637 16.1455078,106.952637 C15.3251953,106.952637 14.9736328,106.557129 14.9736328,105.626953 L14.9736328,101.15918 L16.7314453,101.15918 L16.7314453,100.104492 L14.9736328,100.104492 L14.9736328,98.0610352 L13.7138672,98.0610352 L13.7138672,100.104492 L12.4394531,100.104492 L12.4394531,101.15918 L13.7138672,101.15918 L13.7138672,105.949219 C13.7138672,107.458008 14.3657227,108.058594 15.9916992,108.058594 Z M21.4499414,108.13916 C23.178457,108.13916 24.3942773,107.311523 24.7751367,105.956543 L23.5153711,105.956543 C23.1857812,106.652344 22.4973047,107.025879 21.4792383,107.025879 C20.1389062,107.025879 19.2673242,106.037109 19.2014062,104.477051 L19.2014062,104.418457 L24.8776758,104.418457 L24.8776758,103.935059 C24.8776758,101.481445 23.5812891,99.965332 21.4499414,99.965332 C19.2819727,99.965332 17.8903711,101.57666 17.8903711,104.05957 C17.8903711,106.557129 19.26,108.13916 21.4499414,108.13916 Z M23.5519922,103.400391 L19.2014062,103.400391 C19.2966211,102.001465 20.1755273,101.078613 21.435293,101.078613 C22.6877344,101.078613 23.5226953,102.001465 23.5519922,103.400391 Z M27.8749805,108 L27.8749805,103.107422 C27.8749805,101.994141 28.6733203,101.100586 29.7060352,101.100586 C30.7021289,101.100586 31.3539844,101.701172 31.3539844,102.638672 L31.3539844,108 L32.61375,108 L32.61375,102.924316 C32.61375,101.920898 33.3461719,101.100586 34.4448047,101.100586 C35.5580859,101.100586 36.1074023,101.671875 36.1074023,102.836426 L36.1074023,108 L37.367168,108 L37.367168,102.543457 C37.367168,100.888184 36.4662891,99.965332 34.8549609,99.965332 C33.7636523,99.965332 32.8627734,100.514648 32.4379687,101.349609 L32.3207812,101.349609 C31.9545703,100.529297 31.2075,99.965332 30.1381641,99.965332 C29.0834766,99.965332 28.2924609,100.470703 27.9335742,101.349609 L27.8163867,101.349609 L27.8163867,100.104492 L26.6152148,100.104492 L26.6152148,108 L27.8749805,108 Z M40.6867383,110.636719 L40.6867383,106.813477 L40.8039258,106.813477 C41.2360547,107.648438 42.1442578,108.13916 43.2721875,108.13916 C45.2790234,108.13916 46.5900586,106.520508 46.5900586,104.052246 C46.5900586,101.569336 45.2863477,99.965332 43.2721875,99.965332 C42.1955273,99.965332 41.2507031,100.514648 40.745332,101.422852 L40.6281445,101.422852 L40.6281445,100.104492 L39.4269727,100.104492 L39.4269727,110.636719 L40.6867383,110.636719 Z M42.9718945,107.003906 C41.5509961,107.003906 40.6501172,105.861328 40.6501172,104.052246 C40.6501172,102.23584 41.5509961,101.100586 42.9792188,101.100586 C44.4220898,101.100586 45.2863477,102.206543 45.2863477,104.052246 C45.2863477,105.897949 44.4220898,107.003906 42.9718945,107.003906 Z M51.4916602,108.13916 C53.2201758,108.13916 54.4359961,107.311523 54.8168555,105.956543 L53.5570898,105.956543 C53.2275,106.652344 52.5390234,107.025879 51.520957,107.025879 C50.180625,107.025879 49.309043,106.037109 49.243125,104.477051 L49.243125,104.418457 L54.9193945,104.418457 L54.9193945,103.935059 C54.9193945,101.481445 53.6230078,99.965332 51.4916602,99.965332 C49.3236914,99.965332 47.9320898,101.57666 47.9320898,104.05957 C47.9320898,106.557129 49.3017187,108.13916 51.4916602,108.13916 Z M53.5937109,103.400391 L49.243125,103.400391 C49.3383398,102.001465 50.2172461,101.078613 51.4770117,101.078613 C52.7294531,101.078613 53.5644141,102.001465 53.5937109,103.400391 Z M57.9166992,108 L57.9166992,103.107422 C57.9166992,101.994141 58.7882812,101.188477 59.9894531,101.188477 C60.2384766,101.188477 60.6925781,101.232422 60.7951172,101.261719 L60.7951172,100.001953 C60.6339844,99.9799805 60.3703125,99.965332 60.1652344,99.965332 C59.1178711,99.965332 58.209668,100.507324 57.975293,101.276367 L57.8581055,101.276367 L57.8581055,100.104492 L56.6569336,100.104492 L56.6569336,108 L57.9166992,108 Z M64.3270898,108.13916 C65.3817773,108.13916 66.2460352,107.677734 66.7587305,106.835449 L66.875918,106.835449 L66.875918,108 L68.0770898,108 L68.0770898,102.594727 C68.0770898,100.954102 67.0004297,99.965332 65.0741602,99.965332 C63.3895898,99.965332 62.1444727,100.800293 61.9760156,102.067383 L63.2504297,102.067383 C63.4262109,101.444824 64.0853906,101.085938 65.0302148,101.085938 C66.2094141,101.085938 66.8173242,101.620605 66.8173242,102.594727 L66.8173242,103.3125 L64.5394922,103.45166 C62.7011133,103.561523 61.6610742,104.374512 61.6610742,105.788086 C61.6610742,107.230957 62.7963281,108.13916 64.3270898,108.13916 Z M64.5614648,107.033203 C63.6459375,107.033203 62.9647852,106.564453 62.9647852,105.758789 C62.9647852,104.967773 63.4921289,104.550293 64.6933008,104.469727 L66.8173242,104.330566 L66.8173242,105.055664 C66.8173242,106.183594 65.8578516,107.033203 64.5614648,107.033203 Z M72.9713672,108.058594 C73.2203906,108.058594 73.4620898,108.029297 73.7111133,107.985352 L73.7111133,106.92334 C73.4767383,106.945312 73.3522266,106.952637 73.1251758,106.952637 C72.3048633,106.952637 71.9533008,106.557129 71.9533008,105.626953 L71.9533008,101.15918 L73.7111133,101.15918 L73.7111133,100.104492 L71.9533008,100.104492 L71.9533008,98.0610352 L70.6935352,98.0610352 L70.6935352,100.104492 L69.4191211,100.104492 L69.4191211,101.15918 L70.6935352,101.15918 L70.6935352,105.949219 C70.6935352,107.458008 71.3453906,108.058594 72.9713672,108.058594 Z M77.9974805,108.13916 C79.2059766,108.13916 80.0482617,107.641113 80.4437695,106.762207 L80.560957,106.762207 L80.560957,108 L81.7621289,108 L81.7621289,100.104492 L80.5023633,100.104492 L80.5023633,104.777344 C80.5023633,106.161621 79.7406445,106.989258 78.349043,106.989258 C77.0892773,106.989258 76.5619336,106.330078 76.5619336,104.90918 L76.5619336,100.104492 L75.302168,100.104492 L75.302168,105.216797 C75.302168,107.084473 76.2250195,108.13916 77.9974805,108.13916 Z M85.1549414,108 L85.1549414,103.107422 C85.1549414,101.994141 86.0265234,101.188477 87.2276953,101.188477 C87.4767187,101.188477 87.9308203,101.232422 88.0333594,101.261719 L88.0333594,100.001953 C87.8722266,99.9799805 87.6085547,99.965332 87.4034766,99.965332 C86.3561133,99.965332 85.4479102,100.507324 85.2135352,101.276367 L85.0963477,101.276367 L85.0963477,100.104492 L83.8951758,100.104492 L83.8951758,108 L85.1549414,108 Z M92.3124023,108.13916 C94.040918,108.13916 95.2567383,107.311523 95.6375977,105.956543 L94.377832,105.956543 C94.0482422,106.652344 93.3597656,107.025879 92.3416992,107.025879 C91.0013672,107.025879 90.1297852,106.037109 90.0638672,104.477051 L90.0638672,104.418457 L95.7401367,104.418457 L95.7401367,103.935059 C95.7401367,101.481445 94.44375,99.965332 92.3124023,99.965332 C90.1444336,99.965332 88.752832,101.57666 88.752832,104.05957 C88.752832,106.557129 90.1224609,108.13916 92.3124023,108.13916 Z M94.4144531,103.400391 L90.0638672,103.400391 C90.159082,102.001465 91.0379883,101.078613 92.2977539,101.078613 C93.5501953,101.078613 94.3851562,102.001465 94.4144531,103.400391 Z M104.093145,108.13916 C105.301641,108.13916 106.143926,107.641113 106.539434,106.762207 L106.656621,106.762207 L106.656621,108 L107.857793,108 L107.857793,100.104492 L106.598027,100.104492 L106.598027,104.777344 C106.598027,106.161621 105.836309,106.989258 104.444707,106.989258 C103.184941,106.989258 102.657598,106.330078 102.657598,104.90918 L102.657598,100.104492 L101.397832,100.104492 L101.397832,105.216797 C101.397832,107.084473 102.320684,108.13916 104.093145,108.13916 Z M112.700801,108.13916 C114.495234,108.13916 115.864863,107.165039 115.864863,105.751465 C115.864863,104.616211 115.14709,103.97168 113.660273,103.612793 L112.444453,103.319824 C111.514277,103.092773 111.074824,102.755859 111.074824,102.213867 C111.074824,101.510742 111.807246,101.034668 112.744746,101.034668 C113.696895,101.034668 114.312129,101.452148 114.480586,102.082031 L115.725703,102.082031 C115.557246,100.785645 114.407344,99.965332 112.75207,99.965332 C111.074824,99.965332 109.807734,100.954102 109.807734,102.265137 C109.807734,103.407715 110.481563,104.044922 111.961055,104.403809 L113.316035,104.733398 C114.15832,104.938477 114.568477,105.304688 114.568477,105.84668 C114.568477,106.571777 113.806758,107.077148 112.744746,107.077148 C111.734004,107.077148 111.104121,106.652344 110.891719,105.98584 L109.595332,105.98584 C109.734492,107.296875 110.942988,108.13916 112.700801,108.13916 Z M118.261582,98.5004883 C118.74498,98.5004883 119.140488,98.1049805 119.140488,97.621582 C119.140488,97.1381836 118.74498,96.7426758 118.261582,96.7426758 C117.778184,96.7426758 117.382676,97.1381836 117.382676,97.621582 C117.382676,98.1049805 117.778184,98.5004883 118.261582,98.5004883 Z M118.891465,108 L118.891465,100.104492 L117.631699,100.104492 L117.631699,108 L118.891465,108 Z M122.313574,108 L122.313574,103.327148 C122.313574,101.942871 123.126563,101.100586 124.386328,101.100586 C125.646094,101.100586 126.24668,101.774414 126.24668,103.195312 L126.24668,108 L127.506445,108 L127.506445,102.887695 C127.506445,101.012695 126.517676,99.965332 124.745215,99.965332 C123.536719,99.965332 122.767676,100.478027 122.372168,101.349609 L122.25498,101.349609 L122.25498,100.104492 L121.053809,100.104492 L121.053809,108 L122.313574,108 Z M132.818203,111.032227 C134.971523,111.032227 136.333828,109.904297 136.333828,108.13916 L136.333828,100.104492 L135.132656,100.104492 L135.132656,101.356934 L135.015469,101.356934 C134.561367,100.507324 133.587246,99.965332 132.481289,99.965332 C130.45248,99.965332 129.170742,101.569336 129.170742,103.935059 C129.170742,106.300781 130.437832,107.882812 132.481289,107.882812 C133.565273,107.882812 134.458828,107.39209 134.956875,106.520508 L135.074063,106.520508 L135.074063,108.073242 C135.074063,109.237793 134.231777,109.933594 132.818203,109.933594 C131.682949,109.933594 130.979824,109.516113 130.840664,108.871582 L129.507656,108.871582 C129.698086,110.175293 130.913906,111.032227 132.818203,111.032227 Z M132.759609,106.769531 C131.294766,106.769531 130.474453,105.65625 130.474453,103.935059 C130.474453,102.213867 131.294766,101.100586 132.759609,101.100586 C134.217129,101.100586 135.103359,102.213867 135.103359,103.935059 C135.103359,105.65625 134.224453,106.769531 132.759609,106.769531 Z M144.657539,108.13916 C145.712227,108.13916 146.576484,107.677734 147.08918,106.835449 L147.206367,106.835449 L147.206367,108 L148.407539,108 L148.407539,102.594727 C148.407539,100.954102 147.330879,99.965332 145.404609,99.965332 C143.720039,99.965332 142.474922,100.800293 142.306465,102.067383 L143.580879,102.067383 C143.75666,101.444824 144.41584,101.085938 145.360664,101.085938 C146.539863,101.085938 147.147773,101.620605 147.147773,102.594727 L147.147773,103.3125 L144.869941,103.45166 C143.031563,103.561523 141.991523,104.374512 141.991523,105.788086 C141.991523,107.230957 143.126777,108.13916 144.657539,108.13916 Z M144.891914,107.033203 C143.976387,107.033203 143.295234,106.564453 143.295234,105.758789 C143.295234,104.967773 143.822578,104.550293 145.02375,104.469727 L147.147773,104.330566 L147.147773,105.055664 C147.147773,106.183594 146.188301,107.033203 144.891914,107.033203 Z M157.295215,108.058594 C157.544238,108.058594 157.785938,108.029297 158.034961,107.985352 L158.034961,106.92334 C157.800586,106.945312 157.676074,106.952637 157.449023,106.952637 C156.628711,106.952637 156.277148,106.557129 156.277148,105.626953 L156.277148,101.15918 L158.034961,101.15918 L158.034961,100.104492 L156.277148,100.104492 L156.277148,98.0610352 L155.017383,98.0610352 L155.017383,100.104492 L153.742969,100.104492 L153.742969,101.15918 L155.017383,101.15918 L155.017383,105.949219 C155.017383,107.458008 155.669238,108.058594 157.295215,108.058594 Z M161.032266,108 L161.032266,103.327148 C161.032266,101.994141 161.808633,101.100586 163.222207,101.100586 C164.416055,101.100586 165.045938,101.796387 165.045938,103.195312 L165.045938,108 L166.305703,108 L166.305703,102.887695 C166.305703,101.034668 165.251016,99.965332 163.581094,99.965332 C162.372598,99.965332 161.544961,100.478027 161.149453,101.349609 L161.032266,101.349609 L161.032266,96.9697266 L159.7725,96.9697266 L159.7725,108 L161.032266,108 Z M171.52957,108.13916 C173.258086,108.13916 174.473906,107.311523 174.854766,105.956543 L173.595,105.956543 C173.26541,106.652344 172.576934,107.025879 171.558867,107.025879 C170.218535,107.025879 169.346953,106.037109 169.281035,104.477051 L169.281035,104.418457 L174.957305,104.418457 L174.957305,103.935059 C174.957305,101.481445 173.660918,99.965332 171.52957,99.965332 C169.361602,99.965332 167.97,101.57666 167.97,104.05957 C167.97,106.557129 169.339629,108.13916 171.52957,108.13916 Z M173.631621,103.400391 L169.281035,103.400391 C169.37625,102.001465 170.255156,101.078613 171.514922,101.078613 C172.767363,101.078613 173.602324,102.001465 173.631621,103.400391 Z M177.954609,108 L177.954609,103.107422 C177.954609,101.994141 178.826191,101.188477 180.027363,101.188477 C180.276387,101.188477 180.730488,101.232422 180.833027,101.261719 L180.833027,100.001953 C180.671895,99.9799805 180.408223,99.965332 180.203145,99.965332 C179.155781,99.965332 178.247578,100.507324 178.013203,101.276367 L177.896016,101.276367 L177.896016,100.104492 L176.694844,100.104492 L176.694844,108 L177.954609,108 Z M183.573984,108 L183.573984,103.107422 C183.573984,101.994141 184.372324,101.100586 185.405039,101.100586 C186.401133,101.100586 187.052988,101.701172 187.052988,102.638672 L187.052988,108 L188.312754,108 L188.312754,102.924316 C188.312754,101.920898 189.045176,101.100586 190.143809,101.100586 C191.25709,101.100586 191.806406,101.671875 191.806406,102.836426 L191.806406,108 L193.066172,108 L193.066172,102.543457 C193.066172,100.888184 192.165293,99.965332 190.553965,99.965332 C189.462656,99.965332 188.561777,100.514648 188.136973,101.349609 L188.019785,101.349609 C187.653574,100.529297 186.906504,99.965332 185.837168,99.965332 C184.78248,99.965332 183.991465,100.470703 183.632578,101.349609 L183.515391,101.349609 L183.515391,100.104492 L182.314219,100.104492 L182.314219,108 L183.573984,108 Z M198.370605,108.13916 C200.619141,108.13916 202.010742,106.586426 202.010742,104.052246 C202.010742,101.510742 200.619141,99.965332 198.370605,99.965332 C196.12207,99.965332 194.730469,101.510742 194.730469,104.052246 C194.730469,106.586426 196.12207,108.13916 198.370605,108.13916 Z M198.370605,107.003906 C196.876465,107.003906 196.03418,105.919922 196.03418,104.052246 C196.03418,102.177246 196.876465,101.100586 198.370605,101.100586 C199.864746,101.100586 200.707031,102.177246 200.707031,104.052246 C200.707031,105.919922 199.864746,107.003906 198.370605,107.003906 Z M205.008047,108 L205.008047,103.107422 C205.008047,101.994141 205.806387,101.100586 206.839102,101.100586 C207.835195,101.100586 208.487051,101.701172 208.487051,102.638672 L208.487051,108 L209.746816,108 L209.746816,102.924316 C209.746816,101.920898 210.479238,101.100586 211.577871,101.100586 C212.691152,101.100586 213.240469,101.671875 213.240469,102.836426 L213.240469,108 L214.500234,108 L214.500234,102.543457 C214.500234,100.888184 213.599355,99.965332 211.988027,99.965332 C210.896719,99.965332 209.99584,100.514648 209.571035,101.349609 L209.453848,101.349609 C209.087637,100.529297 208.340566,99.965332 207.27123,99.965332 C206.216543,99.965332 205.425527,100.470703 205.066641,101.349609 L204.949453,101.349609 L204.949453,100.104492 L203.748281,100.104492 L203.748281,108 L205.008047,108 Z M219.724102,108.13916 C221.452617,108.13916 222.668437,107.311523 223.049297,105.956543 L221.789531,105.956543 C221.459941,106.652344 220.771465,107.025879 219.753398,107.025879 C218.413066,107.025879 217.541484,106.037109 217.475566,104.477051 L217.475566,104.418457 L223.151836,104.418457 L223.151836,103.935059 C223.151836,101.481445 221.855449,99.965332 219.724102,99.965332 C217.556133,99.965332 216.164531,101.57666 216.164531,104.05957 C216.164531,106.557129 217.53416,108.13916 219.724102,108.13916 Z M221.826152,103.400391 L217.475566,103.400391 C217.570781,102.001465 218.449687,101.078613 219.709453,101.078613 C220.961895,101.078613 221.796855,102.001465 221.826152,103.400391 Z M227.694551,108.058594 C227.943574,108.058594 228.185273,108.029297 228.434297,107.985352 L228.434297,106.92334 C228.199922,106.945312 228.07541,106.952637 227.848359,106.952637 C227.028047,106.952637 226.676484,106.557129 226.676484,105.626953 L226.676484,101.15918 L228.434297,101.15918 L228.434297,100.104492 L226.676484,100.104492 L226.676484,98.0610352 L225.416719,98.0610352 L225.416719,100.104492 L224.142305,100.104492 L224.142305,101.15918 L225.416719,101.15918 L225.416719,105.949219 C225.416719,107.458008 226.068574,108.058594 227.694551,108.058594 Z M233.152793,108.13916 C234.881309,108.13916 236.097129,107.311523 236.477988,105.956543 L235.218223,105.956543 C234.888633,106.652344 234.200156,107.025879 233.18209,107.025879 C231.841758,107.025879 230.970176,106.037109 230.904258,104.477051 L230.904258,104.418457 L236.580527,104.418457 L236.580527,103.935059 C236.580527,101.481445 235.284141,99.965332 233.152793,99.965332 C230.984824,99.965332 229.593223,101.57666 229.593223,104.05957 C229.593223,106.557129 230.962852,108.13916 233.152793,108.13916 Z M235.254844,103.400391 L230.904258,103.400391 C230.999473,102.001465 231.878379,101.078613 233.138145,101.078613 C234.390586,101.078613 235.225547,102.001465 235.254844,103.400391 Z M239.577832,108 L239.577832,103.107422 C239.577832,101.994141 240.449414,101.188477 241.650586,101.188477 C241.899609,101.188477 242.353711,101.232422 242.45625,101.261719 L242.45625,100.001953 C242.295117,99.9799805 242.031445,99.965332 241.826367,99.965332 C240.779004,99.965332 239.870801,100.507324 239.636426,101.276367 L239.519238,101.276367 L239.519238,100.104492 L238.318066,100.104492 L238.318066,108 L239.577832,108 Z M243.878848,108.073242 C244.406191,108.073242 244.830996,107.641113 244.830996,107.121094 C244.830996,106.59375 244.406191,106.168945 243.878848,106.168945 C243.358828,106.168945 242.926699,106.59375 242.926699,107.121094 C242.926699,107.641113 243.358828,108.073242 243.878848,108.073242 Z" id="Yourheartrateatrestisabnormallyhigh.Westronglyrecommendyoutocheckyourbodytemperatureusingathermometer." fill="#000000" fill-rule="nonzero" mask="url(#mask-3)"></path>
                    <path d="M15.1933594,53 L15.1933594,48.715332 L19.6245117,48.715332 L19.6245117,47.140625 L15.1933594,47.140625 L15.1933594,44.0644531 L20.0419922,44.0644531 L20.0419922,42.4311523 L13.3037109,42.4311523 L13.3037109,53 L15.1933594,53 Z M25.0827539,53.1611328 C26.9724023,53.1611328 28.2980859,52.2529297 28.6423242,50.7954102 L26.9211328,50.7954102 C26.6574609,51.3886719 26.0349023,51.7182617 25.1340234,51.7182617 C23.9401758,51.7182617 23.1711328,50.8833008 23.1271875,49.550293 L23.1271875,49.4550781 L28.7228906,49.4550781 L28.7228906,48.8691406 C28.7228906,46.3422852 27.3532617,44.8261719 25.0681055,44.8261719 C22.7463281,44.8261719 21.303457,46.4448242 21.303457,49.0229492 C21.303457,51.6010742 22.7243555,53.1611328 25.0827539,53.1611328 Z M26.9064844,48.2172852 L23.1345117,48.2172852 C23.2150781,47.0454102 23.9767969,46.269043 25.0607812,46.269043 C26.1520898,46.269043 26.8698633,47.0307617 26.9064844,48.2172852 Z M34.2690234,53 L37.1034961,44.9873047 L35.1845508,44.9873047 L33.3461719,51.1835938 L33.2216602,51.1835938 L31.3686328,44.9873047 L29.4203906,44.9873047 L32.2695117,53 L34.2690234,53 Z M41.4631055,53.1611328 C43.3527539,53.1611328 44.6784375,52.2529297 45.0226758,50.7954102 L43.3014844,50.7954102 C43.0378125,51.3886719 42.4152539,51.7182617 41.514375,51.7182617 C40.3205273,51.7182617 39.5514844,50.8833008 39.5075391,49.550293 L39.5075391,49.4550781 L45.1032422,49.4550781 L45.1032422,48.8691406 C45.1032422,46.3422852 43.7336133,44.8261719 41.448457,44.8261719 C39.1266797,44.8261719 37.6838086,46.4448242 37.6838086,49.0229492 C37.6838086,51.6010742 39.104707,53.1611328 41.4631055,53.1611328 Z M43.2868359,48.2172852 L39.5148633,48.2172852 C39.5954297,47.0454102 40.3571484,46.269043 41.4411328,46.269043 C42.5324414,46.269043 43.2502148,47.0307617 43.2868359,48.2172852 Z M48.5033789,53 L48.5033789,48.3710938 C48.5033789,47.2504883 49.3236914,46.5180664 50.5028906,46.5180664 C50.8105078,46.5180664 51.2939062,46.5693359 51.4330664,46.6206055 L51.4330664,44.9360352 C51.2646094,44.8847656 50.9423437,44.8554688 50.6786719,44.8554688 C49.645957,44.8554688 48.7816992,45.4414062 48.5619727,46.2324219 L48.4374609,46.2324219 L48.4374609,44.9873047 L46.6869727,44.9873047 L46.6869727,53 L48.5033789,53 Z M57.7572656,53 L58.6654688,50.2973633 L62.5546289,50.2973633 L63.4481836,53 L65.4769922,53 L61.719668,42.4311523 L59.5956445,42.4311523 L55.8456445,53 L57.7572656,53 Z M62.1151758,48.8032227 L59.1049219,48.8032227 L60.5551172,44.4453125 L60.6796289,44.4453125 L62.1151758,48.8032227 Z M68.7526172,53 L68.7526172,41.8891602 L66.9362109,41.8891602 L66.9362109,53 L68.7526172,53 Z M74.1888867,53.1611328 C76.0785352,53.1611328 77.4042187,52.2529297 77.748457,50.7954102 L76.0272656,50.7954102 C75.7635937,51.3886719 75.1410352,51.7182617 74.2401562,51.7182617 C73.0463086,51.7182617 72.2772656,50.8833008 72.2333203,49.550293 L72.2333203,49.4550781 L77.8290234,49.4550781 L77.8290234,48.8691406 C77.8290234,46.3422852 76.4593945,44.8261719 74.1742383,44.8261719 C71.8524609,44.8261719 70.4095898,46.4448242 70.4095898,49.0229492 C70.4095898,51.6010742 71.8304883,53.1611328 74.1888867,53.1611328 Z M76.0126172,48.2172852 L72.2406445,48.2172852 C72.3212109,47.0454102 73.0829297,46.269043 74.1669141,46.269043 C75.2582227,46.269043 75.9759961,47.0307617 76.0126172,48.2172852 Z M81.2291602,53 L81.2291602,48.3710938 C81.2291602,47.2504883 82.0494727,46.5180664 83.2286719,46.5180664 C83.5362891,46.5180664 84.0196875,46.5693359 84.1588477,46.6206055 L84.1588477,44.9360352 C83.9903906,44.8847656 83.668125,44.8554688 83.4044531,44.8554688 C82.3717383,44.8554688 81.5074805,45.4414062 81.2877539,46.2324219 L81.1632422,46.2324219 L81.1632422,44.9873047 L79.4127539,44.9873047 L79.4127539,53 L81.2291602,53 Z M88.9212891,53.0366211 C89.2728516,53.0366211 89.6097656,53 89.8734375,52.9487305 L89.8734375,51.527832 C89.6537109,51.5498047 89.5145508,51.5644531 89.2582031,51.5644531 C88.4964844,51.5644531 88.1595703,51.2128906 88.1595703,50.421875 L88.1595703,46.4887695 L89.8734375,46.4887695 L89.8734375,45.0385742 L88.1595703,45.0385742 L88.1595703,43.0244141 L86.3504883,43.0244141 L86.3504883,45.0385742 L85.0833984,45.0385742 L85.0833984,46.4887695 L86.3504883,46.4887695 L86.3504883,50.8613281 C86.3504883,52.4140625 87.0829102,53.0366211 88.9212891,53.0366211 Z" id="FeverAlert" fill="#000000" fill-rule="nonzero" mask="url(#mask-3)"></path>
                    <g id="Header" mask="url(#mask-3)">
                        <g transform="translate(10.000000, 10.000000)">
                            <text id="Timestamp" fill="none" font-family="SFProText-Regular, SF Pro Text" font-size="13" font-weight="normal" line-spacing="18" letter-spacing="-0.078">
                                <tspan x="308.15441" y="13" fill="#8E8E93">now</tspan>
                            </text>
                            <path d="M29.234375,15 L29.234375,8.00488281 L29.3105469,8.00488281 L32.1987305,14.9365234 L33.1635742,14.9365234 L36.0517578,8.00488281 L36.1279297,8.00488281 L36.1279297,15 L37.1943359,15 L37.1943359,5.84033203 L35.8676758,5.84033203 L32.7319336,13.4194336 L32.6303711,13.4194336 L29.4946289,5.84033203 L28.1679688,5.84033203 L28.1679688,15 L29.234375,15 Z M45.1270781,15 L45.1270781,13.9716797 L40.5948516,13.9716797 L40.5948516,10.8232422 L44.8922148,10.8232422 L44.8922148,9.80761719 L40.5948516,9.80761719 L40.5948516,6.86865234 L45.1270781,6.86865234 L45.1270781,5.84033203 L39.4522734,5.84033203 L39.4522734,15 L45.1270781,15 Z M50.0827695,15.2158203 C52.1774961,15.2158203 53.5041563,14.1430664 53.5041563,12.4609375 C53.5041563,11.1152344 52.7424375,10.3789062 50.8444883,9.90283203 L49.8859922,9.64892578 C48.6228086,9.32519531 48.1213438,8.91259766 48.1213438,8.1953125 C48.1213438,7.26855469 48.9274961,6.65917969 50.1462461,6.65917969 C51.2888242,6.65917969 52.0632383,7.21777344 52.2219297,8.15722656 L53.3708555,8.15722656 C53.2756406,6.67822266 51.9553281,5.62451172 50.184332,5.62451172 C48.2482969,5.62451172 46.9470273,6.67822266 46.9470273,8.23339844 C46.9470273,9.53466797 47.6643125,10.2836914 49.3210508,10.7026367 L50.4953672,11.0073242 C51.7585508,11.324707 52.3298398,11.8198242 52.3298398,12.6005859 C52.3298398,13.5083008 51.422125,14.1748047 50.1906797,14.1748047 C48.8894102,14.1748047 47.9753477,13.5654297 47.8356992,12.6069336 L46.6804258,12.6069336 C46.8010313,14.1875 48.1403867,15.2158203 50.0827695,15.2158203 Z M58.2884609,15.2158203 C60.3831875,15.2158203 61.7098477,14.1430664 61.7098477,12.4609375 C61.7098477,11.1152344 60.9481289,10.3789062 59.0501797,9.90283203 L58.0916836,9.64892578 C56.8285,9.32519531 56.3270352,8.91259766 56.3270352,8.1953125 C56.3270352,7.26855469 57.1331875,6.65917969 58.3519375,6.65917969 C59.4945156,6.65917969 60.2689297,7.21777344 60.4276211,8.15722656 L61.5765469,8.15722656 C61.481332,6.67822266 60.1610195,5.62451172 58.3900234,5.62451172 C56.4539883,5.62451172 55.1527188,6.67822266 55.1527188,8.23339844 C55.1527188,9.53466797 55.8700039,10.2836914 57.5267422,10.7026367 L58.7010586,11.0073242 C59.9642422,11.324707 60.5355313,11.8198242 60.5355313,12.6005859 C60.5355313,13.5083008 59.6278164,14.1748047 58.3963711,14.1748047 C57.0951016,14.1748047 56.1810391,13.5654297 56.0413906,12.6069336 L54.8861172,12.6069336 C55.0067227,14.1875 56.3460781,15.2158203 58.2884609,15.2158203 Z M63.9995234,15 L64.9199336,12.378418 L68.5634883,12.378418 L69.4838984,15 L70.6836055,15 L67.3066523,5.84033203 L66.1767695,5.84033203 L62.7998164,15 L63.9995234,15 Z M68.2270625,11.4072266 L65.2563594,11.4072266 L66.6909297,7.31933594 L66.7924922,7.31933594 L68.2270625,11.4072266 Z M75.563125,15.2158203 C77.9054102,15.2158203 79.4542383,13.7177734 79.4542383,11.4580078 L79.4542383,10.3408203 L75.7408594,10.3408203 L75.7408594,11.34375 L78.3180078,11.34375 L78.3180078,11.565918 C78.3180078,13.1147461 77.207168,14.1621094 75.5694727,14.1621094 C73.7286523,14.1621094 72.5860742,12.7275391 72.5860742,10.4169922 C72.5860742,8.13818359 73.7476953,6.67822266 75.563125,6.67822266 C76.9215234,6.67822266 77.8419336,7.33203125 78.2354883,8.56982422 L79.3971094,8.56982422 C79.0670312,6.75439453 77.594375,5.62451172 75.563125,5.62451172 C73.0558008,5.62451172 71.4117578,7.52246094 71.4117578,10.4169922 C71.4117578,13.3496094 73.0304102,15.2158203 75.563125,15.2158203 Z M87.0695977,15 L87.0695977,13.9716797 L82.5373711,13.9716797 L82.5373711,10.8232422 L86.8347344,10.8232422 L86.8347344,9.80761719 L82.5373711,9.80761719 L82.5373711,6.86865234 L87.0695977,6.86865234 L87.0695977,5.84033203 L81.394793,5.84033203 L81.394793,15 L87.0695977,15 Z M92.0252891,15.2158203 C94.1200156,15.2158203 95.4466758,14.1430664 95.4466758,12.4609375 C95.4466758,11.1152344 94.684957,10.3789062 92.7870078,9.90283203 L91.8285117,9.64892578 C90.5653281,9.32519531 90.0638633,8.91259766 90.0638633,8.1953125 C90.0638633,7.26855469 90.8700156,6.65917969 92.0887656,6.65917969 C93.2313437,6.65917969 94.0057578,7.21777344 94.1644492,8.15722656 L95.313375,8.15722656 C95.2181602,6.67822266 93.8978477,5.62451172 92.1268516,5.62451172 C90.1908164,5.62451172 88.8895469,6.67822266 88.8895469,8.23339844 C88.8895469,9.53466797 89.606832,10.2836914 91.2635703,10.7026367 L92.4378867,11.0073242 C93.7010703,11.324707 94.2723594,11.8198242 94.2723594,12.6005859 C94.2723594,13.5083008 93.3646445,14.1748047 92.1331992,14.1748047 C90.8319297,14.1748047 89.9178672,13.5654297 89.7782187,12.6069336 L88.6229453,12.6069336 C88.7435508,14.1875 90.0829062,15.2158203 92.0252891,15.2158203 Z" id="MESSAGES" fill="#8E8E93" fill-rule="nonzero"></path>
                            <g id="Glyphs/Notification-Icon" fill="none" fill-rule="evenodd">
                                <path d="M20,6.25633333 C20,6.01733333 20,5.77866667 19.9986667,5.53966667 C19.9973333,5.33866667 19.995,5.13733333 19.9896667,4.93633333 C19.978,4.498 19.952,4.056 19.8743333,3.62266667 C19.7953333,3.18266667 19.6663333,2.77333333 19.4626667,2.37366667 C19.2626667,1.98066667 19.0016667,1.62166667 18.69,1.31 C18.3783333,0.998666667 18.0193333,0.737333333 17.6263333,0.537333333 C17.227,0.334 16.8176667,0.205 16.378,0.126 C15.9443333,0.048 15.5023333,0.0223333333 15.064,0.0103333333 C14.8626667,0.005 14.6616667,0.00266666667 14.4603333,0.00133333333 C14.2216667,1.77635684e-15 13.9826667,1.77635684e-15 13.7436667,1.77635684e-15 L6.25633333,1.77635684e-15 C6.01766667,1.77635684e-15 5.77866667,1.77635684e-15 5.54,0.00133333333 C5.33866667,0.00266666667 5.13733333,0.005 4.93633333,0.0103333333 C4.498,0.0223333333 4.05566667,0.048 3.62233333,0.126 C3.18266667,0.205 2.77333333,0.334 2.374,0.537333333 C1.981,0.737333333 1.62166667,0.998666667 1.31033333,1.31 C0.998666667,1.62166667 0.737666667,1.98066667 0.537666667,2.37366667 C0.334,2.77333333 0.205,3.18266667 0.126,3.62266667 C0.0483333333,4.056 0.0223333333,4.498 0.0106666667,4.93633333 C0.00533333333,5.13733333 0.00266666667,5.33866667 0.00166666667,5.53966667 C0,5.77866667 0,6.01733333 0,6.25633333 L0,13.7436667 C0,13.9826667 0,14.2213333 0.00166666667,14.4603333 C0.00266666667,14.6613333 0.00533333333,14.8626667 0.0106666667,15.0636667 C0.0223333333,15.502 0.0483333333,15.944 0.126,16.3773333 C0.205,16.8173333 0.334,17.227 0.537666667,17.6266667 C0.737666667,18.0193333 0.998666667,18.3783333 1.31033333,18.6896667 C1.62166667,19.0016667 1.981,19.2626667 2.374,19.4626667 C2.77333333,19.666 3.18266667,19.795 3.62233333,19.874 C4.05566667,19.9516667 4.498,19.978 4.93633333,19.9896667 C5.13733333,19.995 5.33866667,19.9973333 5.54,19.9986667 C5.77866667,20 6.01766667,20 6.25633333,20 L13.7436667,20 C13.9826667,20 14.2216667,20 14.4603333,19.9986667 C14.6616667,19.9973333 14.8626667,19.995 15.064,19.9896667 C15.5023333,19.978 15.9443333,19.9516667 16.378,19.874 C16.8176667,19.795 17.227,19.666 17.6263333,19.4626667 C18.0193333,19.2626667 18.3783333,19.0016667 18.69,18.6896667 C19.0016667,18.3783333 19.2626667,18.0193333 19.4626667,17.6266667 C19.6663333,17.227 19.7953333,16.8173333 19.8743333,16.3773333 C19.952,15.944 19.978,15.502 19.9896667,15.0636667 C19.995,14.8626667 19.9973333,14.6613333 19.9986667,14.4603333 C20,14.2213333 20,13.9826667 20,13.7436667 L20,6.25633333 Z" id="App-Icon" fill="#FF3B30"></path>
                            </g>
                        </g>
                    </g>
                </g>
            </g>
            <g id="Group-8" transform="translate(401.000000, 0.000000)">
                <g id="hero-watchOS">
                    <path d="M123.54,310.05 C136.13,308.05 136.44,298.4 136.44,298.4 C136.44,298.4 137.2,294.93 139.36,272.62 C139.683972,268.830549 140.487041,265.097455 141.75,261.51 C143.22,257.51 145.07,253.26 148.54,250.69 L156,244.4 L85.43,251.69 L14.86,244.4 L22.32,250.69 C25.79,253.26 27.64,257.51 29.1,261.51 C30.3716115,265.09552 31.1781893,268.829303 31.5,272.62 C33.66,294.93 34.42,298.4 34.42,298.4 C34.42,298.4 34.72,308.01 47.32,310.05 L47.32,310.05 C72.616957,312.645014 98.113043,312.645014 123.41,310.05 L123.54,310.05 Z" id="Path" fill="#E1E1E1" fill-rule="nonzero"></path>
                    <path d="M47.32,2 C34.72,4 34.42,13.65 34.42,13.65 C34.42,13.65 33.66,17.12 31.5,39.43 C31.1781893,43.2206973 30.3716115,46.9544802 29.1,50.54 C27.64,54.54 25.79,58.79 22.32,61.36 L14.86,66.91 L85.43,60.36 L156,66.86 L148.54,61.31 C145.07,58.74 143.22,54.49 141.75,50.49 C140.487041,46.9025448 139.683972,43.1694513 139.36,39.38 C137.2,17.07 136.44,13.6 136.44,13.6 C136.44,13.6 136.13,4 123.54,2 L123.54,2 C98.2397001,-0.594998722 72.7402999,-0.594998722 47.44,2 L47.32,2 Z" id="Path" fill="#E1E1E1" fill-rule="nonzero"></path>
                    <path d="M173.51,98.8 L169.999999,98.8 L169.999999,96.52 C170.002653,86.0926073 165.862246,76.0913857 158.489904,68.7171677 C151.117561,61.3429497 141.117393,57.2 130.69,57.2 L39.28,57.2 C17.5774979,57.2165619 -0.00552718142,74.8174923 -1.30273474e-06,96.52 L-1.30273474e-06,215.52 C0.0165443594,237.206888 17.5931116,254.783456 39.28,254.8 L130.69,254.8 C141.117393,254.8 151.117561,250.65705 158.489904,243.282832 C165.862246,235.908614 170.002653,225.907393 169.999999,215.48 L169.999999,135.94 L173.54,135.94 C175.967937,135.967833 177.961618,134.027793 177.999999,131.6 L177.999999,103.14 C177.956191,100.7027 175.947381,98.7610003 173.51,98.8 Z" id="Path" fill="#B3B3B3" fill-rule="nonzero"></path>
                    <rect id="Rectangle" fill="#0B3051" fill-rule="nonzero" x="6" y="63" width="158" height="186" rx="36.16"></rect>
                    <g id="Group" opacity="0.4" transform="translate(20.000000, 78.000000)" fill="#0B3051" fill-rule="nonzero">
                        <path d="M0,0 L0,156 L130,156 L130,0 L0,0 Z M129.5,131.83 C129.5,144.90258 118.90258,155.5 105.83,155.5 L24.17,155.5 C11.09742,155.5 0.5,144.90258 0.5,131.83 L0.5,24.17 C0.5,11.09742 11.09742,0.5 24.17,0.5 L105.83,0.5 C118.90258,0.5 129.5,11.09742 129.5,24.17 L129.5,131.83 Z" id="Shape"></path>
                    </g>
                    <path d="M44.17,78.5 L125.83,78.5 C138.90258,78.5 149.5,89.09742 149.5,102.17 L149.5,209.83 C149.5,222.90258 138.90258,233.5 125.83,233.5 L44.17,233.5 C31.09742,233.5 20.5,222.90258 20.5,209.83 L20.5,102.17 C20.5,89.09742 31.09742,78.5 44.17,78.5 Z" id="Rectangle" stroke="#FFFFFF" stroke-dasharray="4"></path>
                    <circle id="Oval" fill="#5AAEF9" fill-rule="nonzero" cx="40.53" cy="212.95" r="17.53"></circle>
                    <circle id="Oval" fill="#5AAEF9" fill-rule="nonzero" cx="84.53" cy="213.95" r="17.53"></circle>
                    <circle id="Oval" fill="#5AAEF9" fill-rule="nonzero" cx="128.53" cy="212.95" r="17.53"></circle>
                    <rect id="Rectangle" fill="#5AAEF9" fill-rule="nonzero" x="22" y="140" width="126" height="48" rx="3.1"></rect>
                    <rect id="Rectangle" fill="#5AAEF9" fill-rule="nonzero" x="105" y="85" width="37" height="9"></rect>
                    <rect id="Rectangle" fill="#5AAEF9" fill-rule="nonzero" x="65" y="100" width="77" height="30"></rect>
                </g>
                <g id="Group-4" transform="translate(20.000000, 77.000000)">
                    <rect id="Rectangle" fill="#EF4A4A" x="0" y="0" width="132" height="158" rx="8"></rect>
                    <g id="flame" transform="translate(46.000000, 29.000000)" fill-rule="nonzero">
                        <path d="M9.62646864,57.3069083 C6.70020582,54.020923 3.7740677,50.6035821 1.91184377,46.5289702 C0.049744534,42.1915238 -0.48233726,37.1969297 0.448774705,32.46517 C1.37988667,27.7334103 3.50796445,23.2644851 6.5672789,19.4528309 C6.30130035,22.7388162 7.49839086,26.1561571 9.75952027,28.6535158 C8.42937813,22.3445029 10.5575806,15.5096978 14.8138609,10.5151037 C19.0701411,5.52050952 24.9226668,2.234401 31.0410463,0 C27.9818565,3.15450645 27.5828263,8.1491006 28.7799169,12.3551913 C29.9770074,16.5611589 32.50424,20.2414575 34.7653694,24.0531117 C37.0264988,27.8647659 39.1547013,31.807899 39.2877529,36.1453454 C40.4848434,33.9109444 41.8149856,31.6764202 42.6130459,29.1791847 C43.4111063,26.681826 43.8101364,24.0531117 43.1451277,21.555753 C45.5393087,24.447425 46.8694509,27.3389738 47.5344596,31.0192724 C48.1994683,34.699571 48.0665414,38.5112252 47.6675112,42.1915238 C47.1354294,46.2661357 46.0713905,50.4721033 43.8102611,53.8894442 C41.1501016,57.9640561 36.8936966,60.8556048 32.2383862,62.4328581 C23.9915548,63.8787557 15.8778998,62.6958158 9.62646864,57.3069083 Z" id="Path" stroke="#FFFFFF" stroke-width="3" fill="#F3705A"></path>
                        <path d="M19.7220448,62.1621715 C30.5470401,66.4323367 41.2401048,53.4886096 35.2995133,43.4806055 C35.2995133,43.3471237 35.1674589,43.3471237 35.1674589,43.2137671 C35.6955528,48.6847676 34.3753801,52.6879693 31.8670891,54.9565336 C33.1872618,51.7539723 32.2631285,48.0176091 30.6789708,44.8150478 C29.094813,41.7459682 26.8506308,38.943727 25.1344187,36.0080041 C23.4182066,32.9389246 22.0981576,29.4693997 22.8902365,26 C19.721921,28.401921 17.4777388,32.0048025 16.5536056,35.8745224 C15.6294723,39.7442423 16.1575661,44.0144074 17.8737783,47.6172889 C15.8935811,46.14949 14.4414778,43.747569 14.3094234,41.2121663 C12.1971718,43.747569 10.8771229,47.083487 11.0090535,50.4195301 C11.0091773,55.6236922 15.1015022,60.2940524 19.7220448,62.1621715 Z" id="Path" fill="#FFD15C"></path>
                    </g>
                    <path d="M36.1520996,118.205078 C38.473877,118.205078 40.0266113,116.740234 40.0266113,114.52832 L40.0266113,108.002441 L38.5178223,108.002441 L38.5178223,114.425781 C38.5178223,115.897949 37.5876465,116.791504 36.1520996,116.791504 C34.7092285,116.791504 33.786377,115.897949 33.786377,114.425781 L33.786377,108.002441 L32.2775879,108.002441 L32.2775879,114.506348 C32.2775879,116.718262 33.8303223,118.205078 36.1520996,118.205078 Z M44.0036621,120.636719 L44.0036621,116.835449 L44.0769043,116.835449 C44.369873,117.516602 45.036377,118.109863 46.2888184,118.109863 C48.083252,118.109863 49.2624512,116.879395 49.2624512,114.733398 L49.2624512,113.524902 C49.2624512,111.393555 48.0979004,110.155762 46.3327637,110.155762 C45.072998,110.155762 44.3039551,110.770996 44.032959,111.48877 L43.9597168,111.48877 L43.9597168,110.258301 L42.5241699,110.258301 L42.5241699,120.636719 L44.0036621,120.636719 Z M45.9226074,116.798828 C44.7727051,116.798828 44.0036621,115.98584 44.0036621,114.791992 L44.0036621,113.598145 C44.0036621,112.272461 44.7141113,111.466797 45.8933105,111.466797 C47.0505371,111.466797 47.7683105,112.250488 47.7683105,113.759277 L47.7683105,114.513672 C47.7683105,116.07373 47.0065918,116.798828 45.9226074,116.798828 Z M54.3381348,118.131836 C56.3376465,118.131836 57.3703613,117.0625 57.4143066,115.70752 L55.9934082,115.70752 C55.8762207,116.271484 55.4807129,116.806152 54.3747559,116.806152 C53.239502,116.806152 52.5437012,115.993164 52.5437012,114.682129 L52.5437012,113.583496 C52.5437012,112.287109 53.173584,111.459473 54.3747559,111.459473 C55.517334,111.459473 55.8762207,112.162598 55.9494629,112.638672 L57.3630371,112.638672 C57.3337402,111.349609 56.3010254,110.133789 54.345459,110.133789 C52.3166504,110.133789 51.064209,111.48877 51.064209,113.546875 L51.064209,114.682129 C51.064209,116.842773 52.338623,118.131836 54.3381348,118.131836 Z M62.4606934,118.131836 C64.4309082,118.131836 65.8444824,116.864746 65.8444824,114.630859 L65.8444824,113.612793 C65.8444824,111.4375 64.4309082,110.133789 62.4606934,110.133789 C60.4831543,110.133789 59.0695801,111.503418 59.0695801,113.612793 L59.0695801,114.630859 C59.0695801,116.879395 60.4611816,118.131836 62.4606934,118.131836 Z M62.4680176,116.842773 C61.2229004,116.842773 60.5563965,115.883301 60.5563965,114.572266 L60.5563965,113.693359 C60.5563965,112.389648 61.2741699,111.422852 62.4680176,111.422852 C63.6618652,111.422852 64.357666,112.389648 64.357666,113.693359 L64.357666,114.572266 C64.357666,115.890625 63.6984863,116.842773 62.4680176,116.842773 Z M69.4772949,118 L69.4772949,113.17334 C69.4772949,112.133301 70.151123,111.481445 71.0739746,111.481445 C72.0187988,111.481445 72.6340332,112.082031 72.6340332,113.085449 L72.6340332,118 L74.0842285,118 L74.0842285,113.187988 C74.0842285,112.155273 74.7873535,111.481445 75.7028809,111.481445 C76.6843262,111.481445 77.2336426,112.060059 77.2336426,113.041504 L77.2336426,118 L78.7131348,118 L78.7131348,112.580078 C78.7131348,111.041992 77.7609863,110.148438 76.1862793,110.148438 C74.8752441,110.148438 74.135498,110.858887 73.8352051,111.598633 L73.7692871,111.598633 C73.5275879,110.770996 72.8024902,110.148438 71.6306152,110.148438 C70.217041,110.148438 69.7116699,110.961426 69.5358887,111.518066 L69.4626465,111.518066 L69.4626465,110.265625 L67.9978027,110.265625 L67.9978027,118 L69.4772949,118 Z M82.1115723,108.90332 C82.7194824,108.90332 83.1369629,108.493164 83.1369629,107.929199 C83.1369629,107.35791 82.7194824,106.947754 82.1115723,106.947754 C81.5256348,106.947754 81.1081543,107.35791 81.1081543,107.929199 C81.1081543,108.493164 81.532959,108.90332 82.1115723,108.90332 Z M82.8586426,118 L82.8586426,110.265625 L81.3791504,110.265625 L81.3791504,118 L82.8586426,118 Z M87.0334473,118 L87.0334473,113.700684 C87.0334473,112.440918 87.6779785,111.503418 88.9597168,111.503418 C89.9338379,111.503418 90.5563965,112.052734 90.5563965,113.231934 L90.5563965,118 L92.0358887,118 L92.0358887,112.763184 C92.0358887,111.005371 90.9812012,110.148438 89.4211426,110.148438 C87.8317871,110.148438 87.2897949,111.049316 87.092041,111.649902 L87.0187988,111.649902 L87.0187988,110.265625 L85.5539551,110.265625 L85.5539551,118 L87.0334473,118 Z M97.338623,120.885742 C99.3234863,120.885742 100.810303,120.021484 100.810303,117.853516 L100.810303,110.265625 L99.3820801,110.265625 L99.3820801,111.4375 L99.3161621,111.4375 C99.0598145,110.785645 98.2321777,110.155762 97.0822754,110.155762 C95.3757324,110.155762 94.0720215,111.38623 94.0720215,113.488281 L94.0720215,114.535645 C94.0720215,116.637695 95.3830566,117.86084 97.0895996,117.86084 C98.1662598,117.86084 98.9572754,117.318848 99.2575684,116.64502 L99.3381348,116.64502 L99.3381348,117.794922 C99.3381348,118.944824 98.6936035,119.633301 97.3972168,119.633301 C96.4304199,119.633301 95.829834,119.237793 95.7199707,118.710449 L94.2404785,118.710449 C94.3356934,119.875 95.2731934,120.885742 97.338623,120.885742 Z M97.5217285,116.601074 C96.3791504,116.601074 95.5734863,115.722168 95.5734863,114.374512 L95.5734863,113.700684 C95.5734863,112.345703 96.3132324,111.466797 97.5070801,111.466797 C98.6496582,111.466797 99.3381348,112.411621 99.3381348,113.524902 L99.3381348,114.572266 C99.3381348,115.663574 98.6862793,116.601074 97.5217285,116.601074 Z M12.2971191,136 L12.2971191,131.847168 L16.4645996,131.847168 L16.4645996,130.484863 L12.2971191,130.484863 L12.2971191,127.386719 L16.8527832,127.386719 L16.8527832,126.002441 L10.7883301,126.002441 L10.7883301,136 L12.2971191,136 Z M21.7233887,136.131836 C23.7375488,136.131836 24.6750488,134.850098 24.7849121,133.963867 L23.3054199,133.963867 C23.1809082,134.439941 22.5876465,134.850098 21.7087402,134.850098 C20.5002441,134.850098 19.826416,134.015137 19.826416,132.894531 L19.826416,132.513672 L24.880127,132.513672 L24.880127,131.598145 C24.880127,129.474121 23.5251465,128.133789 21.6208496,128.133789 C19.7531738,128.133789 18.3615723,129.415527 18.3615723,131.598145 L18.3615723,132.660156 C18.3615723,134.835449 19.6286621,136.131836 21.7233887,136.131836 Z M23.4226074,131.466309 L19.826416,131.466309 L19.826416,131.356445 C19.826416,130.177246 20.5441895,129.393555 21.6281738,129.393555 C22.7121582,129.393555 23.4226074,130.177246 23.4226074,131.356445 L23.4226074,131.466309 Z M30.3439941,136 L33.1125488,128.265625 L31.545166,128.265625 L29.5895996,134.447266 L29.5236816,134.447266 L27.7219238,128.265625 L26.0959473,128.265625 L28.7692871,136 L30.3439941,136 Z M37.7268066,136.131836 C39.7409668,136.131836 40.6784668,134.850098 40.7883301,133.963867 L39.3088379,133.963867 C39.1843262,134.439941 38.5910645,134.850098 37.7121582,134.850098 C36.5036621,134.850098 35.829834,134.015137 35.829834,132.894531 L35.829834,132.513672 L40.8835449,132.513672 L40.8835449,131.598145 C40.8835449,129.474121 39.5285645,128.133789 37.6242676,128.133789 C35.7565918,128.133789 34.3649902,129.415527 34.3649902,131.598145 L34.3649902,132.660156 C34.3649902,134.835449 35.6320801,136.131836 37.7268066,136.131836 Z M39.4260254,131.466309 L35.829834,131.466309 L35.829834,131.356445 C35.829834,130.177246 36.5476074,129.393555 37.6315918,129.393555 C38.7155762,129.393555 39.4260254,130.177246 39.4260254,131.356445 L39.4260254,131.466309 Z M44.6115723,136 L44.6115723,131.371094 C44.6115723,130.331055 45.2634277,129.547363 46.5891113,129.547363 C46.845459,129.547363 47.1164551,129.562012 47.248291,129.598633 L47.248291,128.192383 C47.1018066,128.17041 46.9260254,128.148438 46.7355957,128.148438 C45.4099121,128.148438 44.8459473,128.946777 44.6628418,129.466797 L44.5895996,129.466797 L44.5895996,128.265625 L43.1101074,128.265625 L43.1101074,136 L44.6115723,136 Z M54.8068848,136.131836 C56.7111816,136.131836 57.9489746,135.230957 57.9489746,133.670898 C57.9489746,132.206055 56.791748,131.751953 55.3562012,131.50293 C54.4919434,131.349121 53.4152832,131.239258 53.4152832,130.367676 C53.4152832,129.693848 54.0231934,129.305664 54.8874512,129.305664 C55.8688965,129.305664 56.3449707,129.833008 56.3962402,130.345703 L57.7438965,130.345703 C57.7438965,128.983398 56.6086426,128.133789 54.9313965,128.133789 C53.3933105,128.133789 51.9943848,128.836914 51.9943848,130.506836 C51.9943848,132.030273 53.1516113,132.418457 54.5725098,132.704102 C55.6345215,132.90918 56.5061035,133.041016 56.5061035,133.854004 C56.5061035,134.469238 56.0300293,134.967285 54.880127,134.967285 C53.8474121,134.967285 53.3859863,134.557129 53.2907715,133.927246 L51.8479004,133.927246 C51.8479004,135.304199 53.0270996,136.131836 54.8068848,136.131836 Z M62.614502,136.124512 C63.9694824,136.124512 64.6872559,135.333496 64.8996582,134.710938 L64.9802246,134.710938 L64.9802246,136 L66.4377441,136 L66.4377441,128.265625 L64.9655762,128.265625 L64.9655762,133.041016 C64.9655762,134.015137 64.1379395,134.769531 63.0759277,134.769531 C62.2043457,134.769531 61.4645996,134.395996 61.4645996,133.158203 L61.4645996,128.265625 L59.9851074,128.265625 L59.9851074,133.575684 C59.9851074,135.384766 61.0690918,136.124512 62.614502,136.124512 Z M71.4328613,136.131836 C73.3371582,136.131836 74.5749512,135.230957 74.5749512,133.670898 C74.5749512,132.206055 73.4177246,131.751953 71.9821777,131.50293 C71.1179199,131.349121 70.0412598,131.239258 70.0412598,130.367676 C70.0412598,129.693848 70.6491699,129.305664 71.5134277,129.305664 C72.494873,129.305664 72.9709473,129.833008 73.0222168,130.345703 L74.369873,130.345703 C74.369873,128.983398 73.2346191,128.133789 71.557373,128.133789 C70.0192871,128.133789 68.6203613,128.836914 68.6203613,130.506836 C68.6203613,132.030273 69.7775879,132.418457 71.1984863,132.704102 C72.260498,132.90918 73.1320801,133.041016 73.1320801,133.854004 C73.1320801,134.469238 72.6560059,134.967285 71.5061035,134.967285 C70.4733887,134.967285 70.0119629,134.557129 69.916748,133.927246 L68.473877,133.927246 C68.473877,135.304199 69.6530762,136.131836 71.4328613,136.131836 Z M78.1491699,138.636719 L78.1491699,134.835449 L78.2224121,134.835449 C78.5153809,135.516602 79.1818848,136.109863 80.4343262,136.109863 C82.2287598,136.109863 83.407959,134.879395 83.407959,132.733398 L83.407959,131.524902 C83.407959,129.393555 82.2434082,128.155762 80.4782715,128.155762 C79.2185059,128.155762 78.4494629,128.770996 78.1784668,129.48877 L78.1052246,129.48877 L78.1052246,128.258301 L76.6696777,128.258301 L76.6696777,138.636719 L78.1491699,138.636719 Z M80.0681152,134.798828 C78.9182129,134.798828 78.1491699,133.98584 78.1491699,132.791992 L78.1491699,131.598145 C78.1491699,130.272461 78.8596191,129.466797 80.0388184,129.466797 C81.1960449,129.466797 81.9138184,130.250488 81.9138184,131.759277 L81.9138184,132.513672 C81.9138184,134.07373 81.1520996,134.798828 80.0681152,134.798828 Z M88.5715332,136.131836 C90.5856934,136.131836 91.5231934,134.850098 91.6330566,133.963867 L90.1535645,133.963867 C90.0290527,134.439941 89.435791,134.850098 88.5568848,134.850098 C87.3483887,134.850098 86.6745605,134.015137 86.6745605,132.894531 L86.6745605,132.513672 L91.7282715,132.513672 L91.7282715,131.598145 C91.7282715,129.474121 90.373291,128.133789 88.4689941,128.133789 C86.6013184,128.133789 85.2097168,129.415527 85.2097168,131.598145 L85.2097168,132.660156 C85.2097168,134.835449 86.4768066,136.131836 88.5715332,136.131836 Z M90.270752,131.466309 L86.6745605,131.466309 L86.6745605,131.356445 C86.6745605,130.177246 87.392334,129.393555 88.4763184,129.393555 C89.5603027,129.393555 90.270752,130.177246 90.270752,131.356445 L90.270752,131.466309 Z M96.7526855,136.131836 C98.7521973,136.131836 99.7849121,135.0625 99.8288574,133.70752 L98.407959,133.70752 C98.2907715,134.271484 97.8952637,134.806152 96.7893066,134.806152 C95.6540527,134.806152 94.958252,133.993164 94.958252,132.682129 L94.958252,131.583496 C94.958252,130.287109 95.5881348,129.459473 96.7893066,129.459473 C97.9318848,129.459473 98.2907715,130.162598 98.3640137,130.638672 L99.7775879,130.638672 C99.748291,129.349609 98.7155762,128.133789 96.7600098,128.133789 C94.7312012,128.133789 93.4787598,129.48877 93.4787598,131.546875 L93.4787598,132.682129 C93.4787598,134.842773 94.7531738,136.131836 96.7526855,136.131836 Z M104.626221,136.058594 C104.955811,136.058594 105.497803,136.014648 105.61499,135.985352 L105.61499,134.762207 C105.490479,134.776855 105.19751,134.791504 104.992432,134.791504 C104.091553,134.791504 103.783936,134.557129 103.783936,133.70752 L103.783936,129.562012 L105.519775,129.562012 L105.519775,128.30957 L103.783936,128.30957 L103.783936,126.375977 L102.326416,126.375977 L102.326416,128.30957 L101.132568,128.30957 L101.132568,129.562012 L102.311768,129.562012 L102.311768,133.824707 C102.311768,135.377441 102.765869,136.058594 104.626221,136.058594 Z M110.602783,136.131836 C112.616943,136.131836 113.554443,134.850098 113.664307,133.963867 L112.184814,133.963867 C112.060303,134.439941 111.467041,134.850098 110.588135,134.850098 C109.379639,134.850098 108.705811,134.015137 108.705811,132.894531 L108.705811,132.513672 L113.759521,132.513672 L113.759521,131.598145 C113.759521,129.474121 112.404541,128.133789 110.500244,128.133789 C108.632568,128.133789 107.240967,129.415527 107.240967,131.598145 L107.240967,132.660156 C107.240967,134.835449 108.508057,136.131836 110.602783,136.131836 Z M112.302002,131.466309 L108.705811,131.466309 L108.705811,131.356445 C108.705811,130.177246 109.423584,129.393555 110.507568,129.393555 C111.591553,129.393555 112.302002,130.177246 112.302002,131.356445 L112.302002,131.466309 Z M118.46167,136.102539 C119.765381,136.102539 120.571045,135.436035 120.768799,134.769531 L120.842041,134.769531 L120.842041,136 L122.270264,136 L122.270264,125.255371 L120.790771,125.255371 L120.790771,129.422852 L120.717529,129.422852 C120.461182,128.749023 119.736084,128.155762 118.490967,128.155762 C116.674561,128.155762 115.517334,129.444824 115.517334,131.458984 L115.517334,132.806641 C115.517334,134.857422 116.689209,136.102539 118.46167,136.102539 Z M118.886475,134.798828 C117.743896,134.798828 117.011475,134.000488 117.011475,132.557617 L117.011475,131.693359 C117.011475,130.272461 117.721924,129.466797 118.849854,129.466797 C119.985107,129.466797 120.790771,130.279785 120.790771,131.473633 L120.790771,132.660156 C120.790771,133.993164 120.036377,134.798828 118.886475,134.798828 Z" id="UpcomingFeversuspected" fill="#FFFFFF" fill-rule="nonzero"></path>
                </g>
            </g>
        </g>
    </g>
</svg>