<?xml version="1.0" encoding="UTF-8"?>
<svg width="589px" height="312px" viewBox="0 0 589 312" version="1.1" xmlns="http://www.w3.org/2000/svg" xmlns:xlink="http://www.w3.org/1999/xlink">
    <title>Notification</title>
    <defs>
        <filter x="-3.3%" y="-9.8%" width="106.7%" height="119.5%" filterUnits="objectBoundingBox" id="filter-1">
            <feOffset dx="0" dy="2" in="SourceAlpha" result="shadowOffsetOuter1"></feOffset>
            <feGaussianBlur stdDeviation="2" in="shadowOffsetOuter1" result="shadowBlurOuter1"></feGaussianBlur>
            <feColorMatrix values="0 0 0 0 0   0 0 0 0 0   0 0 0 0 0  0 0 0 0.5 0" type="matrix" in="shadowBlurOuter1" result="shadowMatrixOuter1"></feColorMatrix>
            <feMerge>
                <feMergeNode in="shadowMatrixOuter1"></feMergeNode>
                <feMergeNode in="SourceGraphic"></feMergeNode>
            </feMerge>
        </filter>
        <rect id="path-2" x="0" y="0" width="359" height="123" rx="13"></rect>
    </defs>
    <g id="Page-1" stroke="none" stroke-width="1" fill="none" fill-rule="evenodd">
        <g id="Notification" transform="translate(9.000000, 0.000000)">
            <g filter="url(#filter-1)" transform="translate(0.000000, 95.000000)">
                <mask id="mask-3" fill="white">
                    <use xlink:href="#path-2"></use>
                </mask>
                <use id="Background" fill="#F8F8F8" xlink:href="#path-2"></use>
                <path d="M18.5810547,75 L18.5810547,70.4516602 L22.3310547,64.4311523 L20.8295898,64.4311523 L17.9804688,69.1259766 L17.8632812,69.1259766 L15.0141602,64.4311523 L13.5126953,64.4311523 L17.2626953,70.4516602 L17.2626953,75 L18.5810547,75 Z M25.7897852,75.1391602 C28.0383203,75.1391602 29.4299219,73.5864258 29.4299219,71.0522461 C29.4299219,68.5107422 28.0383203,66.965332 25.7897852,66.965332 C23.54125,66.965332 22.1496484,68.5107422 22.1496484,71.0522461 C22.1496484,73.5864258 23.54125,75.1391602 25.7897852,75.1391602 Z M25.7897852,74.0039062 C24.2956445,74.0039062 23.4533594,72.9199219 23.4533594,71.0522461 C23.4533594,69.1772461 24.2956445,68.1005859 25.7897852,68.1005859 C27.2839258,68.1005859 28.1262109,69.1772461 28.1262109,71.0522461 C28.1262109,72.9199219 27.2839258,74.0039062 25.7897852,74.0039062 Z M33.7895312,75.1391602 C34.9980273,75.1391602 35.8403125,74.6411133 36.2358203,73.762207 L36.3530078,73.762207 L36.3530078,75 L37.5541797,75 L37.5541797,67.1044922 L36.2944141,67.1044922 L36.2944141,71.7773438 C36.2944141,73.1616211 35.5326953,73.9892578 34.1410937,73.9892578 C32.8813281,73.9892578 32.3539844,73.3300781 32.3539844,71.9091797 L32.3539844,67.1044922 L31.0942187,67.1044922 L31.0942187,72.2167969 C31.0942187,74.0844727 32.0170703,75.1391602 33.7895312,75.1391602 Z M40.9469922,75 L40.9469922,70.1074219 C40.9469922,68.9941406 41.8185742,68.1884766 43.0197461,68.1884766 C43.2687695,68.1884766 43.7228711,68.2324219 43.8254102,68.2617188 L43.8254102,67.0019531 C43.6642773,66.9799805 43.4006055,66.965332 43.1955273,66.965332 C42.1481641,66.965332 41.2399609,67.5073242 41.0055859,68.2763672 L40.8883984,68.2763672 L40.8883984,67.1044922 L39.6872266,67.1044922 L39.6872266,75 L40.9469922,75 Z M50.4865234,75 L50.4865234,70.3271484 C50.4865234,68.9941406 51.2628906,68.1005859 52.6764648,68.1005859 C53.8703125,68.1005859 54.5001953,68.7963867 54.5001953,70.1953125 L54.5001953,75 L55.7599609,75 L55.7599609,69.8876953 C55.7599609,68.034668 54.7052734,66.965332 53.0353516,66.965332 C51.8268555,66.965332 50.9992187,67.4780273 50.6037109,68.3496094 L50.4865234,68.3496094 L50.4865234,63.9697266 L49.2267578,63.9697266 L49.2267578,75 L50.4865234,75 Z M60.9838281,75.1391602 C62.7123438,75.1391602 63.9281641,74.3115234 64.3090234,72.956543 L63.0492578,72.956543 C62.719668,73.6523438 62.0311914,74.0258789 61.013125,74.0258789 C59.672793,74.0258789 58.8012109,73.0371094 58.735293,71.4770508 L58.735293,71.418457 L64.4115625,71.418457 L64.4115625,70.9350586 C64.4115625,68.4814453 63.1151758,66.965332 60.9838281,66.965332 C58.8158594,66.965332 57.4242578,68.5766602 57.4242578,71.0595703 C57.4242578,73.5571289 58.7938867,75.1391602 60.9838281,75.1391602 Z M63.0858789,70.4003906 L58.735293,70.4003906 C58.8305078,69.0014648 59.7094141,68.0786133 60.9691797,68.0786133 C62.2216211,68.0786133 63.056582,69.0014648 63.0858789,70.4003906 Z M68.3463672,75.1391602 C69.4010547,75.1391602 70.2653125,74.6777344 70.7780078,73.8354492 L70.8951953,73.8354492 L70.8951953,75 L72.0963672,75 L72.0963672,69.5947266 C72.0963672,67.9541016 71.019707,66.965332 69.0934375,66.965332 C67.4088672,66.965332 66.16375,67.800293 65.995293,69.0673828 L67.269707,69.0673828 C67.4454883,68.4448242 68.104668,68.0859375 69.0494922,68.0859375 C70.2286914,68.0859375 70.8366016,68.6206055 70.8366016,69.5947266 L70.8366016,70.3125 L68.5587695,70.4516602 C66.7203906,70.5615234 65.6803516,71.3745117 65.6803516,72.7880859 C65.6803516,74.230957 66.8156055,75.1391602 68.3463672,75.1391602 Z M68.5807422,74.0332031 C67.6652148,74.0332031 66.9840625,73.5644531 66.9840625,72.7587891 C66.9840625,71.9677734 67.5114062,71.550293 68.7125781,71.4697266 L70.8366016,71.3305664 L70.8366016,72.0556641 C70.8366016,73.1835938 69.8771289,74.0332031 68.5807422,74.0332031 Z M75.4452344,75 L75.4452344,70.1074219 C75.4452344,68.9941406 76.3168164,68.1884766 77.5179883,68.1884766 C77.7670117,68.1884766 78.2211133,68.2324219 78.3236523,68.2617188 L78.3236523,67.0019531 C78.1625195,66.9799805 77.8988477,66.965332 77.6937695,66.965332 C76.6464062,66.965332 75.7382031,67.5073242 75.5038281,68.2763672 L75.3866406,68.2763672 L75.3866406,67.1044922 L74.1854687,67.1044922 L74.1854687,75 L75.4452344,75 Z M82.9029883,75.0585938 C83.1520117,75.0585938 83.3937109,75.0292969 83.6427344,74.9853516 L83.6427344,73.9233398 C83.4083594,73.9453125 83.2838477,73.9526367 83.0567969,73.9526367 C82.2364844,73.9526367 81.8849219,73.5571289 81.8849219,72.6269531 L81.8849219,68.1591797 L83.6427344,68.1591797 L83.6427344,67.1044922 L81.8849219,67.1044922 L81.8849219,65.0610352 L80.6251562,65.0610352 L80.6251562,67.1044922 L79.3507422,67.1044922 L79.3507422,68.1591797 L80.6251562,68.1591797 L80.6251562,72.9492188 C80.6251562,74.4580078 81.2770117,75.0585938 82.9029883,75.0585938 Z M90.5601953,75 L90.5601953,70.1074219 C90.5601953,68.9941406 91.4317773,68.1884766 92.6329492,68.1884766 C92.8819727,68.1884766 93.3360742,68.2324219 93.4386133,68.2617188 L93.4386133,67.0019531 C93.2774805,66.9799805 93.0138086,66.965332 92.8087305,66.965332 C91.7613672,66.965332 90.8531641,67.5073242 90.6187891,68.2763672 L90.5016016,68.2763672 L90.5016016,67.1044922 L89.3004297,67.1044922 L89.3004297,75 L90.5601953,75 Z M96.9705859,75.1391602 C98.0252734,75.1391602 98.8895313,74.6777344 99.4022266,73.8354492 L99.5194141,73.8354492 L99.5194141,75 L100.720586,75 L100.720586,69.5947266 C100.720586,67.9541016 99.6439258,66.965332 97.7176563,66.965332 C96.0330859,66.965332 94.7879688,67.800293 94.6195117,69.0673828 L95.8939258,69.0673828 C96.069707,68.4448242 96.7288867,68.0859375 97.6737109,68.0859375 C98.8529102,68.0859375 99.4608203,68.6206055 99.4608203,69.5947266 L99.4608203,70.3125 L97.1829883,70.4516602 C95.3446094,70.5615234 94.3045703,71.3745117 94.3045703,72.7880859 C94.3045703,74.230957 95.4398242,75.1391602 96.9705859,75.1391602 Z M97.2049609,74.0332031 C96.2894336,74.0332031 95.6082813,73.5644531 95.6082813,72.7587891 C95.6082813,71.9677734 96.135625,71.550293 97.3367969,71.4697266 L99.4608203,71.3305664 L99.4608203,72.0556641 C99.4608203,73.1835938 98.5013477,74.0332031 97.2049609,74.0332031 Z M105.614863,75.0585938 C105.863887,75.0585938 106.105586,75.0292969 106.354609,74.9853516 L106.354609,73.9233398 C106.120234,73.9453125 105.995723,73.9526367 105.768672,73.9526367 C104.948359,73.9526367 104.596797,73.5571289 104.596797,72.6269531 L104.596797,68.1591797 L106.354609,68.1591797 L106.354609,67.1044922 L104.596797,67.1044922 L104.596797,65.0610352 L103.337031,65.0610352 L103.337031,67.1044922 L102.062617,67.1044922 L102.062617,68.1591797 L103.337031,68.1591797 L103.337031,72.9492188 C103.337031,74.4580078 103.988887,75.0585938 105.614863,75.0585938 Z M111.073105,75.1391602 C112.801621,75.1391602 114.017441,74.3115234 114.398301,72.956543 L113.138535,72.956543 C112.808945,73.6523438 112.120469,74.0258789 111.102402,74.0258789 C109.76207,74.0258789 108.890488,73.0371094 108.82457,71.4770508 L108.82457,71.418457 L114.50084,71.418457 L114.50084,70.9350586 C114.50084,68.4814453 113.204453,66.965332 111.073105,66.965332 C108.905137,66.965332 107.513535,68.5766602 107.513535,71.0595703 C107.513535,73.5571289 108.883164,75.1391602 111.073105,75.1391602 Z M113.175156,70.4003906 L108.82457,70.4003906 C108.919785,69.0014648 109.798691,68.0786133 111.058457,68.0786133 C112.310898,68.0786133 113.145859,69.0014648 113.175156,70.4003906 Z M122.429043,75.1391602 C123.48373,75.1391602 124.347988,74.6777344 124.860684,73.8354492 L124.977871,73.8354492 L124.977871,75 L126.179043,75 L126.179043,69.5947266 C126.179043,67.9541016 125.102383,66.965332 123.176113,66.965332 C121.491543,66.965332 120.246426,67.800293 120.077969,69.0673828 L121.352383,69.0673828 C121.528164,68.4448242 122.187344,68.0859375 123.132168,68.0859375 C124.311367,68.0859375 124.919277,68.6206055 124.919277,69.5947266 L124.919277,70.3125 L122.641445,70.4516602 C120.803066,70.5615234 119.763027,71.3745117 119.763027,72.7880859 C119.763027,74.230957 120.898281,75.1391602 122.429043,75.1391602 Z M122.663418,74.0332031 C121.747891,74.0332031 121.066738,73.5644531 121.066738,72.7587891 C121.066738,71.9677734 121.594082,71.550293 122.795254,71.4697266 L124.919277,71.3305664 L124.919277,72.0556641 C124.919277,73.1835938 123.959805,74.0332031 122.663418,74.0332031 Z M131.07332,75.0585938 C131.322344,75.0585938 131.564043,75.0292969 131.813066,74.9853516 L131.813066,73.9233398 C131.578691,73.9453125 131.45418,73.9526367 131.227129,73.9526367 C130.406816,73.9526367 130.055254,73.5571289 130.055254,72.6269531 L130.055254,68.1591797 L131.813066,68.1591797 L131.813066,67.1044922 L130.055254,67.1044922 L130.055254,65.0610352 L128.795488,65.0610352 L128.795488,67.1044922 L127.521074,67.1044922 L127.521074,68.1591797 L128.795488,68.1591797 L128.795488,72.9492188 C128.795488,74.4580078 129.447344,75.0585938 131.07332,75.0585938 Z M138.730527,75 L138.730527,70.1074219 C138.730527,68.9941406 139.602109,68.1884766 140.803281,68.1884766 C141.052305,68.1884766 141.506406,68.2324219 141.608945,68.2617188 L141.608945,67.0019531 C141.447813,66.9799805 141.184141,66.965332 140.979063,66.965332 C139.931699,66.965332 139.023496,67.5073242 138.789121,68.2763672 L138.671934,68.2763672 L138.671934,67.1044922 L137.470762,67.1044922 L137.470762,75 L138.730527,75 Z M145.887988,75.1391602 C147.616504,75.1391602 148.832324,74.3115234 149.213184,72.956543 L147.953418,72.956543 C147.623828,73.6523438 146.935352,74.0258789 145.917285,74.0258789 C144.576953,74.0258789 143.705371,73.0371094 143.639453,71.4770508 L143.639453,71.418457 L149.315723,71.418457 L149.315723,70.9350586 C149.315723,68.4814453 148.019336,66.965332 145.887988,66.965332 C143.72002,66.965332 142.328418,68.5766602 142.328418,71.0595703 C142.328418,73.5571289 143.698047,75.1391602 145.887988,75.1391602 Z M147.990039,70.4003906 L143.639453,70.4003906 C143.734668,69.0014648 144.613574,68.0786133 145.87334,68.0786133 C147.125781,68.0786133 147.960742,69.0014648 147.990039,70.4003906 Z M153.763223,75.1391602 C155.557656,75.1391602 156.927285,74.1650391 156.927285,72.7514648 C156.927285,71.6162109 156.209512,70.9716797 154.722695,70.612793 L153.506875,70.3198242 C152.576699,70.0927734 152.137246,69.7558594 152.137246,69.2138672 C152.137246,68.5107422 152.869668,68.034668 153.807168,68.034668 C154.759316,68.034668 155.374551,68.4521484 155.543008,69.0820312 L156.788125,69.0820312 C156.619668,67.7856445 155.469766,66.965332 153.814492,66.965332 C152.137246,66.965332 150.870156,67.9541016 150.870156,69.2651367 C150.870156,70.4077148 151.543984,71.0449219 153.023477,71.4038086 L154.378457,71.7333984 C155.220742,71.9384766 155.630898,72.3046875 155.630898,72.8466797 C155.630898,73.5717773 154.86918,74.0771484 153.807168,74.0771484 C152.796426,74.0771484 152.166543,73.6523438 151.954141,72.9858398 L150.657754,72.9858398 C150.796914,74.296875 152.00541,75.1391602 153.763223,75.1391602 Z M161.396758,75.0585938 C161.645781,75.0585938 161.88748,75.0292969 162.136504,74.9853516 L162.136504,73.9233398 C161.902129,73.9453125 161.777617,73.9526367 161.550566,73.9526367 C160.730254,73.9526367 160.378691,73.5571289 160.378691,72.6269531 L160.378691,68.1591797 L162.136504,68.1591797 L162.136504,67.1044922 L160.378691,67.1044922 L160.378691,65.0610352 L159.118926,65.0610352 L159.118926,67.1044922 L157.844512,67.1044922 L157.844512,68.1591797 L159.118926,68.1591797 L159.118926,72.9492188 C159.118926,74.4580078 159.770781,75.0585938 161.396758,75.0585938 Z M168.453379,65.5004883 C168.936777,65.5004883 169.332285,65.1049805 169.332285,64.621582 C169.332285,64.1381836 168.936777,63.7426758 168.453379,63.7426758 C167.96998,63.7426758 167.574473,64.1381836 167.574473,64.621582 C167.574473,65.1049805 167.96998,65.5004883 168.453379,65.5004883 Z M169.083262,75 L169.083262,67.1044922 L167.823496,67.1044922 L167.823496,75 L169.083262,75 Z M173.955566,75.1391602 C175.75,75.1391602 177.119629,74.1650391 177.119629,72.7514648 C177.119629,71.6162109 176.401855,70.9716797 174.915039,70.612793 L173.699219,70.3198242 C172.769043,70.0927734 172.32959,69.7558594 172.32959,69.2138672 C172.32959,68.5107422 173.062012,68.034668 173.999512,68.034668 C174.95166,68.034668 175.566895,68.4521484 175.735352,69.0820312 L176.980469,69.0820312 C176.812012,67.7856445 175.662109,66.965332 174.006836,66.965332 C172.32959,66.965332 171.0625,67.9541016 171.0625,69.2651367 C171.0625,70.4077148 171.736328,71.0449219 173.21582,71.4038086 L174.570801,71.7333984 C175.413086,71.9384766 175.823242,72.3046875 175.823242,72.8466797 C175.823242,73.5717773 175.061523,74.0771484 173.999512,74.0771484 C172.98877,74.0771484 172.358887,73.6523438 172.146484,72.9858398 L170.850098,72.9858398 C170.989258,74.296875 172.197754,75.1391602 173.955566,75.1391602 Z M185.047832,75.1391602 C186.10252,75.1391602 186.966777,74.6777344 187.479473,73.8354492 L187.59666,73.8354492 L187.59666,75 L188.797832,75 L188.797832,69.5947266 C188.797832,67.9541016 187.721172,66.965332 185.794902,66.965332 C184.110332,66.965332 182.865215,67.800293 182.696758,69.0673828 L183.971172,69.0673828 C184.146953,68.4448242 184.806133,68.0859375 185.750957,68.0859375 C186.930156,68.0859375 187.538066,68.6206055 187.538066,69.5947266 L187.538066,70.3125 L185.260234,70.4516602 C183.421855,70.5615234 182.381816,71.3745117 182.381816,72.7880859 C182.381816,74.230957 183.51707,75.1391602 185.047832,75.1391602 Z M185.282207,74.0332031 C184.36668,74.0332031 183.685527,73.5644531 183.685527,72.7587891 C183.685527,71.9677734 184.212871,71.550293 185.414043,71.4697266 L187.538066,71.3305664 L187.538066,72.0556641 C187.538066,73.1835938 186.578594,74.0332031 185.282207,74.0332031 Z M194.812715,75.1391602 C196.812227,75.1391602 198.123262,73.5205078 198.123262,71.0522461 C198.123262,68.5693359 196.819551,66.965332 194.812715,66.965332 C193.72873,66.965332 192.769258,67.5 192.337129,68.3496094 L192.219941,68.3496094 L192.219941,63.9697266 L190.960176,63.9697266 L190.960176,75 L192.161348,75 L192.161348,73.7402344 L192.278535,73.7402344 C192.776582,74.6191406 193.714082,75.1391602 194.812715,75.1391602 Z M194.519746,74.0039062 C193.084199,74.0039062 192.190645,72.8759766 192.190645,71.0522461 C192.190645,69.2285156 193.084199,68.1005859 194.519746,68.1005859 C195.962617,68.1005859 196.819551,69.206543 196.819551,71.0522461 C196.819551,72.8979492 195.962617,74.0039062 194.519746,74.0039062 Z M201.120566,75 L201.120566,70.3271484 C201.120566,68.9428711 201.933555,68.1005859 203.19332,68.1005859 C204.453086,68.1005859 205.053672,68.7744141 205.053672,70.1953125 L205.053672,75 L206.313437,75 L206.313437,69.8876953 C206.313437,68.0126953 205.324668,66.965332 203.552207,66.965332 C202.343711,66.965332 201.574668,67.4780273 201.17916,68.3496094 L201.061973,68.3496094 L201.061973,67.1044922 L199.860801,67.1044922 L199.860801,75 L201.120566,75 Z M211.617871,75.1391602 C213.866406,75.1391602 215.258008,73.5864258 215.258008,71.0522461 C215.258008,68.5107422 213.866406,66.965332 211.617871,66.965332 C209.369336,66.965332 207.977734,68.5107422 207.977734,71.0522461 C207.977734,73.5864258 209.369336,75.1391602 211.617871,75.1391602 Z M211.617871,74.0039062 C210.12373,74.0039062 209.281445,72.9199219 209.281445,71.0522461 C209.281445,69.1772461 210.12373,68.1005859 211.617871,68.1005859 C213.112012,68.1005859 213.954297,69.1772461 213.954297,71.0522461 C213.954297,72.9199219 213.112012,74.0039062 211.617871,74.0039062 Z M218.255312,75 L218.255312,70.1074219 C218.255312,68.9941406 219.126895,68.1884766 220.328066,68.1884766 C220.57709,68.1884766 221.031191,68.2324219 221.13373,68.2617188 L221.13373,67.0019531 C220.972598,66.9799805 220.708926,66.965332 220.503848,66.965332 C219.456484,66.965332 218.548281,67.5073242 218.313906,68.2763672 L218.196719,68.2763672 L218.196719,67.1044922 L216.995547,67.1044922 L216.995547,75 L218.255312,75 Z M223.874687,75 L223.874687,70.1074219 C223.874687,68.9941406 224.673027,68.1005859 225.705742,68.1005859 C226.701836,68.1005859 227.353691,68.7011719 227.353691,69.6386719 L227.353691,75 L228.613457,75 L228.613457,69.9243164 C228.613457,68.9208984 229.345879,68.1005859 230.444512,68.1005859 C231.557793,68.1005859 232.107109,68.671875 232.107109,69.8364258 L232.107109,75 L233.366875,75 L233.366875,69.543457 C233.366875,67.8881836 232.465996,66.965332 230.854668,66.965332 C229.763359,66.965332 228.86248,67.5146484 228.437676,68.3496094 L228.320488,68.3496094 C227.954277,67.5292969 227.207207,66.965332 226.137871,66.965332 C225.083184,66.965332 224.292168,67.4707031 223.933281,68.3496094 L223.816094,68.3496094 L223.816094,67.1044922 L222.614922,67.1044922 L222.614922,75 L223.874687,75 Z M237.623945,75.1391602 C238.678633,75.1391602 239.542891,74.6777344 240.055586,73.8354492 L240.172773,73.8354492 L240.172773,75 L241.373945,75 L241.373945,69.5947266 C241.373945,67.9541016 240.297285,66.965332 238.371016,66.965332 C236.686445,66.965332 235.441328,67.800293 235.272871,69.0673828 L236.547285,69.0673828 C236.723066,68.4448242 237.382246,68.0859375 238.32707,68.0859375 C239.50627,68.0859375 240.11418,68.6206055 240.11418,69.5947266 L240.11418,70.3125 L237.836348,70.4516602 C235.997969,70.5615234 234.95793,71.3745117 234.95793,72.7880859 C234.95793,74.230957 236.093184,75.1391602 237.623945,75.1391602 Z M237.85832,74.0332031 C236.942793,74.0332031 236.261641,73.5644531 236.261641,72.7587891 C236.261641,71.9677734 236.788984,71.550293 237.990156,71.4697266 L240.11418,71.3305664 L240.11418,72.0556641 C240.11418,73.1835938 239.154707,74.0332031 237.85832,74.0332031 Z M244.796055,75 L244.796055,63.9697266 L243.536289,63.9697266 L243.536289,75 L244.796055,75 Z M248.335352,75 L248.335352,63.9697266 L247.075586,63.9697266 L247.075586,75 L248.335352,75 Z M251.215469,77.8564453 C252.614395,77.8564453 253.244277,77.3144531 253.918105,75.4833984 L257.001602,67.1044922 L255.66127,67.1044922 L253.500625,73.6010742 L253.383437,73.6010742 L251.215469,67.1044922 L249.853164,67.1044922 L252.775527,75.0073242 L252.629043,75.4760742 C252.299453,76.4282227 251.903945,76.7724609 251.178848,76.7724609 C251.003066,76.7724609 250.805312,76.7651367 250.651504,76.7358398 L250.651504,77.8125 C250.827285,77.8417969 251.047012,77.8564453 251.215469,77.8564453 Z M263.772578,75 L263.772578,70.3271484 C263.772578,68.9941406 264.548945,68.1005859 265.96252,68.1005859 C267.156367,68.1005859 267.78625,68.7963867 267.78625,70.1953125 L267.78625,75 L269.046016,75 L269.046016,69.8876953 C269.046016,68.034668 267.991328,66.965332 266.321406,66.965332 C265.11291,66.965332 264.285273,67.4780273 263.889766,68.3496094 L263.772578,68.3496094 L263.772578,63.9697266 L262.512812,63.9697266 L262.512812,75 L263.772578,75 Z M271.765,65.5004883 C272.248398,65.5004883 272.643906,65.1049805 272.643906,64.621582 C272.643906,64.1381836 272.248398,63.7426758 271.765,63.7426758 C271.281602,63.7426758 270.886094,64.1381836 270.886094,64.621582 C270.886094,65.1049805 271.281602,65.5004883 271.765,65.5004883 Z M272.394883,75 L272.394883,67.1044922 L271.135117,67.1044922 L271.135117,75 L272.394883,75 Z M277.80918,78.0322266 C279.9625,78.0322266 281.324805,76.9042969 281.324805,75.1391602 L281.324805,67.1044922 L280.123633,67.1044922 L280.123633,68.3569336 L280.006445,68.3569336 C279.552344,67.5073242 278.578223,66.965332 277.472266,66.965332 C275.443457,66.965332 274.161719,68.5693359 274.161719,70.9350586 C274.161719,73.3007812 275.428809,74.8828125 277.472266,74.8828125 C278.55625,74.8828125 279.449805,74.3920898 279.947852,73.5205078 L280.065039,73.5205078 L280.065039,75.0732422 C280.065039,76.237793 279.222754,76.9335938 277.80918,76.9335938 C276.673926,76.9335938 275.970801,76.5161133 275.831641,75.871582 L274.498633,75.871582 C274.689062,77.175293 275.904883,78.0322266 277.80918,78.0322266 Z M277.750586,73.7695312 C276.285742,73.7695312 275.46543,72.65625 275.46543,70.9350586 C275.46543,69.2138672 276.285742,68.1005859 277.750586,68.1005859 C279.208105,68.1005859 280.094336,69.2138672 280.094336,70.9350586 C280.094336,72.65625 279.21543,73.7695312 277.750586,73.7695312 Z M284.790859,75 L284.790859,70.3271484 C284.790859,68.9941406 285.567227,68.1005859 286.980801,68.1005859 C288.174648,68.1005859 288.804531,68.7963867 288.804531,70.1953125 L288.804531,75 L290.064297,75 L290.064297,69.8876953 C290.064297,68.034668 289.009609,66.965332 287.339687,66.965332 C286.131191,66.965332 285.303555,67.4780273 284.908047,68.3496094 L284.790859,68.3496094 L284.790859,63.9697266 L283.531094,63.9697266 L283.531094,75 L284.790859,75 Z M293.164141,75.0732422 C293.691484,75.0732422 294.116289,74.6411133 294.116289,74.1210938 C294.116289,73.59375 293.691484,73.1689453 293.164141,73.1689453 C292.644121,73.1689453 292.211992,73.59375 292.211992,74.1210938 C292.211992,74.6411133 292.644121,75.0732422 293.164141,75.0732422 Z M301.810117,75 L301.810117,64.4311523 L300.491758,64.4311523 L300.491758,75 L301.810117,75 Z M306.909473,75.0585938 C307.158496,75.0585938 307.400195,75.0292969 307.649219,74.9853516 L307.649219,73.9233398 C307.414844,73.9453125 307.290332,73.9526367 307.063281,73.9526367 C306.242969,73.9526367 305.891406,73.5571289 305.891406,72.6269531 L305.891406,68.1591797 L307.649219,68.1591797 L307.649219,67.1044922 L305.891406,67.1044922 L305.891406,65.0610352 L304.631641,65.0610352 L304.631641,67.1044922 L303.357227,67.1044922 L303.357227,68.1591797 L304.631641,68.1591797 L304.631641,72.9492188 C304.631641,74.4580078 305.283496,75.0585938 306.909473,75.0585938 Z M313.966094,65.5004883 C314.449492,65.5004883 314.845,65.1049805 314.845,64.621582 C314.845,64.1381836 314.449492,63.7426758 313.966094,63.7426758 C313.482695,63.7426758 313.087187,64.1381836 313.087187,64.621582 C313.087187,65.1049805 313.482695,65.5004883 313.966094,65.5004883 Z M314.595977,75 L314.595977,67.1044922 L313.336211,67.1044922 L313.336211,75 L314.595977,75 Z M319.468281,75.1391602 C321.262715,75.1391602 322.632344,74.1650391 322.632344,72.7514648 C322.632344,71.6162109 321.91457,70.9716797 320.427754,70.612793 L319.211934,70.3198242 C318.281758,70.0927734 317.842305,69.7558594 317.842305,69.2138672 C317.842305,68.5107422 318.574727,68.034668 319.512227,68.034668 C320.464375,68.034668 321.079609,68.4521484 321.248066,69.0820312 L322.493184,69.0820312 C322.324727,67.7856445 321.174824,66.965332 319.519551,66.965332 C317.842305,66.965332 316.575215,67.9541016 316.575215,69.2651367 C316.575215,70.4077148 317.249043,71.0449219 318.728535,71.4038086 L320.083516,71.7333984 C320.925801,71.9384766 321.335957,72.3046875 321.335957,72.8466797 C321.335957,73.5717773 320.574238,74.0771484 319.512227,74.0771484 C318.501484,74.0771484 317.871602,73.6523438 317.659199,72.9858398 L316.362812,72.9858398 C316.501973,74.296875 317.710469,75.1391602 319.468281,75.1391602 Z M15.4462891,93 L15.4462891,88.1074219 C15.4462891,86.9941406 16.3178711,86.1884766 17.519043,86.1884766 C17.7680664,86.1884766 18.222168,86.2324219 18.324707,86.2617188 L18.324707,85.0019531 C18.1635742,84.9799805 17.8999023,84.965332 17.6948242,84.965332 C16.6474609,84.965332 15.7392578,85.5073242 15.5048828,86.2763672 L15.3876953,86.2763672 L15.3876953,85.1044922 L14.1865234,85.1044922 L14.1865234,93 L15.4462891,93 Z M22.60375,93.1391602 C24.3322656,93.1391602 25.5480859,92.3115234 25.9289453,90.956543 L24.6691797,90.956543 C24.3395898,91.6523438 23.6511133,92.0258789 22.6330469,92.0258789 C21.2927148,92.0258789 20.4211328,91.0371094 20.3552148,89.4770508 L20.3552148,89.418457 L26.0314844,89.418457 L26.0314844,88.9350586 C26.0314844,86.4814453 24.7350977,84.965332 22.60375,84.965332 C20.4357812,84.965332 19.0441797,86.5766602 19.0441797,89.0595703 C19.0441797,91.5571289 20.4138086,93.1391602 22.60375,93.1391602 Z M24.7058008,88.4003906 L20.3552148,88.4003906 C20.4504297,87.0014648 21.3293359,86.0786133 22.5891016,86.0786133 C23.841543,86.0786133 24.6765039,87.0014648 24.7058008,88.4003906 Z M30.9990039,93.1391602 C32.8959766,93.1391602 34.0751758,92.0698242 34.3022266,90.6196289 L33.0278125,90.6196289 C32.7934375,91.5131836 32.0536914,92.0039062 30.9916797,92.0039062 C29.5854297,92.0039062 28.6772266,90.8466797 28.6772266,89.0229492 C28.6772266,87.2358398 29.5707812,86.1005859 30.9916797,86.1005859 C32.1269336,86.1005859 32.8227344,86.737793 33.0278125,87.5214844 L34.3022266,87.5214844 C34.0825,86.1152344 32.910625,84.965332 30.9916797,84.965332 C28.7797656,84.965332 27.3735156,86.5620117 27.3735156,89.0229492 C27.3735156,91.5351562 28.7870898,93.1391602 30.9990039,93.1391602 Z M39.167207,93.1391602 C41.4157422,93.1391602 42.8073438,91.5864258 42.8073438,89.0522461 C42.8073438,86.5107422 41.4157422,84.965332 39.167207,84.965332 C36.9186719,84.965332 35.5270703,86.5107422 35.5270703,89.0522461 C35.5270703,91.5864258 36.9186719,93.1391602 39.167207,93.1391602 Z M39.167207,92.0039062 C37.6730664,92.0039062 36.8307813,90.9199219 36.8307813,89.0522461 C36.8307813,87.1772461 37.6730664,86.1005859 39.167207,86.1005859 C40.6613477,86.1005859 41.5036328,87.1772461 41.5036328,89.0522461 C41.5036328,90.9199219 40.6613477,92.0039062 39.167207,92.0039062 Z M45.8046484,93 L45.8046484,88.1074219 C45.8046484,86.9941406 46.6029883,86.1005859 47.6357031,86.1005859 C48.6317969,86.1005859 49.2836523,86.7011719 49.2836523,87.6386719 L49.2836523,93 L50.543418,93 L50.543418,87.9243164 C50.543418,86.9208984 51.2758398,86.1005859 52.3744727,86.1005859 C53.4877539,86.1005859 54.0370703,86.671875 54.0370703,87.8364258 L54.0370703,93 L55.2968359,93 L55.2968359,87.543457 C55.2968359,85.8881836 54.395957,84.965332 52.7846289,84.965332 C51.6933203,84.965332 50.7924414,85.5146484 50.3676367,86.3496094 L50.2504492,86.3496094 C49.8842383,85.5292969 49.137168,84.965332 48.067832,84.965332 C47.0131445,84.965332 46.2221289,85.4707031 45.8632422,86.3496094 L45.7460547,86.3496094 L45.7460547,85.1044922 L44.5448828,85.1044922 L44.5448828,93 L45.8046484,93 Z M58.6164062,93 L58.6164062,88.1074219 C58.6164062,86.9941406 59.4147461,86.1005859 60.4474609,86.1005859 C61.4435547,86.1005859 62.0954102,86.7011719 62.0954102,87.6386719 L62.0954102,93 L63.3551758,93 L63.3551758,87.9243164 C63.3551758,86.9208984 64.0875977,86.1005859 65.1862305,86.1005859 C66.2995117,86.1005859 66.8488281,86.671875 66.8488281,87.8364258 L66.8488281,93 L68.1085937,93 L68.1085937,87.543457 C68.1085937,85.8881836 67.2077148,84.965332 65.5963867,84.965332 C64.5050781,84.965332 63.6041992,85.5146484 63.1793945,86.3496094 L63.062207,86.3496094 C62.6959961,85.5292969 61.9489258,84.965332 60.8795898,84.965332 C59.8249023,84.965332 59.0338867,85.4707031 58.675,86.3496094 L58.5578125,86.3496094 L58.5578125,85.1044922 L57.3566406,85.1044922 L57.3566406,93 L58.6164062,93 Z M73.3324609,93.1391602 C75.0609766,93.1391602 76.2767969,92.3115234 76.6576563,90.956543 L75.3978906,90.956543 C75.0683008,91.6523438 74.3798242,92.0258789 73.3617578,92.0258789 C72.0214258,92.0258789 71.1498438,91.0371094 71.0839258,89.4770508 L71.0839258,89.418457 L76.7601953,89.418457 L76.7601953,88.9350586 C76.7601953,86.4814453 75.4638086,84.965332 73.3324609,84.965332 C71.1644922,84.965332 69.7728906,86.5766602 69.7728906,89.0595703 C69.7728906,91.5571289 71.1425195,93.1391602 73.3324609,93.1391602 Z M75.4345117,88.4003906 L71.0839258,88.4003906 C71.1791406,87.0014648 72.0580469,86.0786133 73.3178125,86.0786133 C74.5702539,86.0786133 75.4052148,87.0014648 75.4345117,88.4003906 Z M79.7575,93 L79.7575,88.3271484 C79.7575,86.9428711 80.5704883,86.1005859 81.8302539,86.1005859 C83.0900195,86.1005859 83.6906055,86.7744141 83.6906055,88.1953125 L83.6906055,93 L84.9503711,93 L84.9503711,87.8876953 C84.9503711,86.0126953 83.9616016,84.965332 82.1891406,84.965332 C80.9806445,84.965332 80.2116016,85.4780273 79.8160937,86.3496094 L79.6989062,86.3496094 L79.6989062,85.1044922 L78.4977344,85.1044922 L78.4977344,93 L79.7575,93 Z M89.9325391,93.1391602 C91.0238477,93.1391602 91.9613477,92.6191406 92.4593945,91.7402344 L92.576582,91.7402344 L92.576582,93 L93.7777539,93 L93.7777539,81.9697266 L92.5179883,81.9697266 L92.5179883,86.3496094 L92.408125,86.3496094 C91.9613477,85.4853516 91.0311719,84.965332 89.9325391,84.965332 C87.9257031,84.965332 86.614668,86.5766602 86.614668,89.0522461 C86.614668,91.5351562 87.9110547,93.1391602 89.9325391,93.1391602 Z M90.2255078,92.0039062 C88.7826367,92.0039062 87.9183789,90.8979492 87.9183789,89.0522461 C87.9183789,87.2138672 88.7899609,86.1005859 90.2255078,86.1005859 C91.6537305,86.1005859 92.5472852,87.2431641 92.5472852,89.0522461 C92.5472852,90.8759766 91.6610547,92.0039062 90.2255078,92.0039062 Z M99.1481055,93.1391602 C100.876621,93.1391602 102.092441,92.3115234 102.473301,90.956543 L101.213535,90.956543 C100.883945,91.6523438 100.195469,92.0258789 99.1774023,92.0258789 C97.8370703,92.0258789 96.9654883,91.0371094 96.8995703,89.4770508 L96.8995703,89.418457 L102.57584,89.418457 L102.57584,88.9350586 C102.57584,86.4814453 101.279453,84.965332 99.1481055,84.965332 C96.9801367,84.965332 95.5885352,86.5766602 95.5885352,89.0595703 C95.5885352,91.5571289 96.9581641,93.1391602 99.1481055,93.1391602 Z M101.250156,88.4003906 L96.8995703,88.4003906 C96.9947852,87.0014648 97.8736914,86.0786133 99.133457,86.0786133 C100.385898,86.0786133 101.220859,87.0014648 101.250156,88.4003906 Z M107.235742,93.1391602 C108.327051,93.1391602 109.264551,92.6191406 109.762598,91.7402344 L109.879785,91.7402344 L109.879785,93 L111.080957,93 L111.080957,81.9697266 L109.821191,81.9697266 L109.821191,86.3496094 L109.711328,86.3496094 C109.264551,85.4853516 108.334375,84.965332 107.235742,84.965332 C105.228906,84.965332 103.917871,86.5766602 103.917871,89.0522461 C103.917871,91.5351562 105.214258,93.1391602 107.235742,93.1391602 Z M107.528711,92.0039062 C106.08584,92.0039062 105.221582,90.8979492 105.221582,89.0522461 C105.221582,87.2138672 106.093164,86.1005859 107.528711,86.1005859 C108.956934,86.1005859 109.850488,87.2431641 109.850488,89.0522461 C109.850488,90.8759766 108.964258,92.0039062 107.528711,92.0039062 Z M120.08582,93.0585938 C120.334844,93.0585938 120.576543,93.0292969 120.825566,92.9853516 L120.825566,91.9233398 C120.591191,91.9453125 120.46668,91.9526367 120.239629,91.9526367 C119.419316,91.9526367 119.067754,91.5571289 119.067754,90.6269531 L119.067754,86.1591797 L120.825566,86.1591797 L120.825566,85.1044922 L119.067754,85.1044922 L119.067754,83.0610352 L117.807988,83.0610352 L117.807988,85.1044922 L116.533574,85.1044922 L116.533574,86.1591797 L117.807988,86.1591797 L117.807988,90.9492188 C117.807988,92.4580078 118.459844,93.0585938 120.08582,93.0585938 Z M125.624629,93.1391602 C127.873164,93.1391602 129.264766,91.5864258 129.264766,89.0522461 C129.264766,86.5107422 127.873164,84.965332 125.624629,84.965332 C123.376094,84.965332 121.984492,86.5107422 121.984492,89.0522461 C121.984492,91.5864258 123.376094,93.1391602 125.624629,93.1391602 Z M125.624629,92.0039062 C124.130488,92.0039062 123.288203,90.9199219 123.288203,89.0522461 C123.288203,87.1772461 124.130488,86.1005859 125.624629,86.1005859 C127.11877,86.1005859 127.961055,87.1772461 127.961055,89.0522461 C127.961055,90.9199219 127.11877,92.0039062 125.624629,92.0039062 Z M138.225684,93.1391602 C140.122656,93.1391602 141.301855,92.0698242 141.528906,90.6196289 L140.254492,90.6196289 C140.020117,91.5131836 139.280371,92.0039062 138.218359,92.0039062 C136.812109,92.0039062 135.903906,90.8466797 135.903906,89.0229492 C135.903906,87.2358398 136.797461,86.1005859 138.218359,86.1005859 C139.353613,86.1005859 140.049414,86.737793 140.254492,87.5214844 L141.528906,87.5214844 C141.30918,86.1152344 140.137305,84.965332 138.218359,84.965332 C136.006445,84.965332 134.600195,86.5620117 134.600195,89.0229492 C134.600195,91.5351562 136.01377,93.1391602 138.225684,93.1391602 Z M144.482266,93 L144.482266,88.3271484 C144.482266,86.9941406 145.258633,86.1005859 146.672207,86.1005859 C147.866055,86.1005859 148.495937,86.7963867 148.495937,88.1953125 L148.495937,93 L149.755703,93 L149.755703,87.8876953 C149.755703,86.034668 148.701016,84.965332 147.031094,84.965332 C145.822598,84.965332 144.994961,85.4780273 144.599453,86.3496094 L144.482266,86.3496094 L144.482266,81.9697266 L143.2225,81.9697266 L143.2225,93 L144.482266,93 Z M154.97957,93.1391602 C156.708086,93.1391602 157.923906,92.3115234 158.304766,90.956543 L157.045,90.956543 C156.71541,91.6523438 156.026934,92.0258789 155.008867,92.0258789 C153.668535,92.0258789 152.796953,91.0371094 152.731035,89.4770508 L152.731035,89.418457 L158.407305,89.418457 L158.407305,88.9350586 C158.407305,86.4814453 157.110918,84.965332 154.97957,84.965332 C152.811602,84.965332 151.42,86.5766602 151.42,89.0595703 C151.42,91.5571289 152.789629,93.1391602 154.97957,93.1391602 Z M157.081621,88.4003906 L152.731035,88.4003906 C152.82625,87.0014648 153.705156,86.0786133 154.964922,86.0786133 C156.217363,86.0786133 157.052324,87.0014648 157.081621,88.4003906 Z M163.374824,93.1391602 C165.271797,93.1391602 166.450996,92.0698242 166.678047,90.6196289 L165.403633,90.6196289 C165.169258,91.5131836 164.429512,92.0039062 163.3675,92.0039062 C161.96125,92.0039062 161.053047,90.8466797 161.053047,89.0229492 C161.053047,87.2358398 161.946602,86.1005859 163.3675,86.1005859 C164.502754,86.1005859 165.198555,86.737793 165.403633,87.5214844 L166.678047,87.5214844 C166.45832,86.1152344 165.286445,84.965332 163.3675,84.965332 C161.155586,84.965332 159.749336,86.5620117 159.749336,89.0229492 C159.749336,91.5351562 161.16291,93.1391602 163.374824,93.1391602 Z M169.631406,93 L169.631406,90.0043945 L170.385801,89.3012695 L173.344785,93 L174.948789,93 L171.323301,88.4882812 L174.721738,85.1044922 L173.176328,85.1044922 L169.748594,88.5541992 L169.631406,88.5541992 L169.631406,81.9697266 L168.371641,81.9697266 L168.371641,93 L169.631406,93 Z M180.870156,95.8564453 C182.269082,95.8564453 182.898965,95.3144531 183.572793,93.4833984 L186.656289,85.1044922 L185.315957,85.1044922 L183.155313,91.6010742 L183.038125,91.6010742 L180.870156,85.1044922 L179.507852,85.1044922 L182.430215,93.0073242 L182.28373,93.4760742 C181.954141,94.4282227 181.558633,94.7724609 180.833535,94.7724609 C180.657754,94.7724609 180.46,94.7651367 180.306191,94.7358398 L180.306191,95.8125 C180.481973,95.8417969 180.701699,95.8564453 180.870156,95.8564453 Z M191.05252,93.1391602 C193.301055,93.1391602 194.692656,91.5864258 194.692656,89.0522461 C194.692656,86.5107422 193.301055,84.965332 191.05252,84.965332 C188.803984,84.965332 187.412383,86.5107422 187.412383,89.0522461 C187.412383,91.5864258 188.803984,93.1391602 191.05252,93.1391602 Z M191.05252,92.0039062 C189.558379,92.0039062 188.716094,90.9199219 188.716094,89.0522461 C188.716094,87.1772461 189.558379,86.1005859 191.05252,86.1005859 C192.54666,86.1005859 193.388945,87.1772461 193.388945,89.0522461 C193.388945,90.9199219 192.54666,92.0039062 191.05252,92.0039062 Z M199.052266,93.1391602 C200.260762,93.1391602 201.103047,92.6411133 201.498555,91.762207 L201.615742,91.762207 L201.615742,93 L202.816914,93 L202.816914,85.1044922 L201.557148,85.1044922 L201.557148,89.7773438 C201.557148,91.1616211 200.79543,91.9892578 199.403828,91.9892578 C198.144062,91.9892578 197.616719,91.3300781 197.616719,89.9091797 L197.616719,85.1044922 L196.356953,85.1044922 L196.356953,90.2167969 C196.356953,92.0844727 197.279805,93.1391602 199.052266,93.1391602 Z M206.209727,93 L206.209727,88.1074219 C206.209727,86.9941406 207.081309,86.1884766 208.28248,86.1884766 C208.531504,86.1884766 208.985605,86.2324219 209.088145,86.2617188 L209.088145,85.0019531 C208.927012,84.9799805 208.66334,84.965332 208.458262,84.965332 C207.410898,84.965332 206.502695,85.5073242 206.26832,86.2763672 L206.151133,86.2763672 L206.151133,85.1044922 L204.949961,85.1044922 L204.949961,93 L206.209727,93 Z M218.342031,93.1391602 C220.341543,93.1391602 221.652578,91.5205078 221.652578,89.0522461 C221.652578,86.5693359 220.348867,84.965332 218.342031,84.965332 C217.258047,84.965332 216.298574,85.5 215.866445,86.3496094 L215.749258,86.3496094 L215.749258,81.9697266 L214.489492,81.9697266 L214.489492,93 L215.690664,93 L215.690664,91.7402344 L215.807852,91.7402344 C216.305898,92.6191406 217.243398,93.1391602 218.342031,93.1391602 Z M218.049062,92.0039062 C216.613516,92.0039062 215.719961,90.8759766 215.719961,89.0522461 C215.719961,87.2285156 216.613516,86.1005859 218.049062,86.1005859 C219.491934,86.1005859 220.348867,87.206543 220.348867,89.0522461 C220.348867,90.8979492 219.491934,92.0039062 218.049062,92.0039062 Z M226.634746,93.1391602 C228.883281,93.1391602 230.274883,91.5864258 230.274883,89.0522461 C230.274883,86.5107422 228.883281,84.965332 226.634746,84.965332 C224.386211,84.965332 222.994609,86.5107422 222.994609,89.0522461 C222.994609,91.5864258 224.386211,93.1391602 226.634746,93.1391602 Z M226.634746,92.0039062 C225.140605,92.0039062 224.29832,90.9199219 224.29832,89.0522461 C224.29832,87.1772461 225.140605,86.1005859 226.634746,86.1005859 C228.128887,86.1005859 228.971172,87.1772461 228.971172,89.0522461 C228.971172,90.9199219 228.128887,92.0039062 226.634746,92.0039062 Z M234.934785,93.1391602 C236.026094,93.1391602 236.963594,92.6191406 237.461641,91.7402344 L237.578828,91.7402344 L237.578828,93 L238.78,93 L238.78,81.9697266 L237.520234,81.9697266 L237.520234,86.3496094 L237.410371,86.3496094 C236.963594,85.4853516 236.033418,84.965332 234.934785,84.965332 C232.927949,84.965332 231.616914,86.5766602 231.616914,89.0522461 C231.616914,91.5351562 232.913301,93.1391602 234.934785,93.1391602 Z M235.227754,92.0039062 C233.784883,92.0039062 232.920625,90.8979492 232.920625,89.0522461 C232.920625,87.2138672 233.792207,86.1005859 235.227754,86.1005859 C236.655977,86.1005859 237.549531,87.2431641 237.549531,89.0522461 C237.549531,90.8759766 236.663301,92.0039062 235.227754,92.0039062 Z M241.660117,95.8564453 C243.059043,95.8564453 243.688926,95.3144531 244.362754,93.4833984 L247.44625,85.1044922 L246.105918,85.1044922 L243.945273,91.6010742 L243.828086,91.6010742 L241.660117,85.1044922 L240.297812,85.1044922 L243.220176,93.0073242 L243.073691,93.4760742 C242.744102,94.4282227 242.348594,94.7724609 241.623496,94.7724609 C241.447715,94.7724609 241.249961,94.7651367 241.096152,94.7358398 L241.096152,95.8125 C241.271934,95.8417969 241.49166,95.8564453 241.660117,95.8564453 Z M255.689395,93.0585938 C255.938418,93.0585938 256.180117,93.0292969 256.429141,92.9853516 L256.429141,91.9233398 C256.194766,91.9453125 256.070254,91.9526367 255.843203,91.9526367 C255.022891,91.9526367 254.671328,91.5571289 254.671328,90.6269531 L254.671328,86.1591797 L256.429141,86.1591797 L256.429141,85.1044922 L254.671328,85.1044922 L254.671328,83.0610352 L253.411562,83.0610352 L253.411562,85.1044922 L252.137148,85.1044922 L252.137148,86.1591797 L253.411562,86.1591797 L253.411562,90.9492188 C253.411562,92.4580078 254.063418,93.0585938 255.689395,93.0585938 Z M261.147637,93.1391602 C262.876152,93.1391602 264.091973,92.3115234 264.472832,90.956543 L263.213066,90.956543 C262.883477,91.6523438 262.195,92.0258789 261.176934,92.0258789 C259.836602,92.0258789 258.96502,91.0371094 258.899102,89.4770508 L258.899102,89.418457 L264.575371,89.418457 L264.575371,88.9350586 C264.575371,86.4814453 263.278984,84.965332 261.147637,84.965332 C258.979668,84.965332 257.588066,86.5766602 257.588066,89.0595703 C257.588066,91.5571289 258.957695,93.1391602 261.147637,93.1391602 Z M263.249687,88.4003906 L258.899102,88.4003906 C258.994316,87.0014648 259.873223,86.0786133 261.132988,86.0786133 C262.38543,86.0786133 263.220391,87.0014648 263.249687,88.4003906 Z M267.572676,93 L267.572676,88.1074219 C267.572676,86.9941406 268.371016,86.1005859 269.40373,86.1005859 C270.399824,86.1005859 271.05168,86.7011719 271.05168,87.6386719 L271.05168,93 L272.311445,93 L272.311445,87.9243164 C272.311445,86.9208984 273.043867,86.1005859 274.1425,86.1005859 C275.255781,86.1005859 275.805098,86.671875 275.805098,87.8364258 L275.805098,93 L277.064863,93 L277.064863,87.543457 C277.064863,85.8881836 276.163984,84.965332 274.552656,84.965332 C273.461348,84.965332 272.560469,85.5146484 272.135664,86.3496094 L272.018477,86.3496094 C271.652266,85.5292969 270.905195,84.965332 269.835859,84.965332 C268.781172,84.965332 267.990156,85.4707031 267.63127,86.3496094 L267.514082,86.3496094 L267.514082,85.1044922 L266.31291,85.1044922 L266.31291,93 L267.572676,93 Z M280.384434,95.6367188 L280.384434,91.8134766 L280.501621,91.8134766 C280.93375,92.6484375 281.841953,93.1391602 282.969883,93.1391602 C284.976719,93.1391602 286.287754,91.5205078 286.287754,89.0522461 C286.287754,86.5693359 284.984043,84.965332 282.969883,84.965332 C281.893223,84.965332 280.948398,85.5146484 280.443027,86.4228516 L280.32584,86.4228516 L280.32584,85.1044922 L279.124668,85.1044922 L279.124668,95.6367188 L280.384434,95.6367188 Z M282.66959,92.0039062 C281.248691,92.0039062 280.347812,90.8613281 280.347812,89.0522461 C280.347812,87.2358398 281.248691,86.1005859 282.676914,86.1005859 C284.119785,86.1005859 284.984043,87.206543 284.984043,89.0522461 C284.984043,90.8979492 284.119785,92.0039062 282.66959,92.0039062 Z M291.189355,93.1391602 C292.917871,93.1391602 294.133691,92.3115234 294.514551,90.956543 L293.254785,90.956543 C292.925195,91.6523438 292.236719,92.0258789 291.218652,92.0258789 C289.87832,92.0258789 289.006738,91.0371094 288.94082,89.4770508 L288.94082,89.418457 L294.61709,89.418457 L294.61709,88.9350586 C294.61709,86.4814453 293.320703,84.965332 291.189355,84.965332 C289.021387,84.965332 287.629785,86.5766602 287.629785,89.0595703 C287.629785,91.5571289 288.999414,93.1391602 291.189355,93.1391602 Z M293.291406,88.4003906 L288.94082,88.4003906 C289.036035,87.0014648 289.914941,86.0786133 291.174707,86.0786133 C292.427148,86.0786133 293.262109,87.0014648 293.291406,88.4003906 Z M297.614395,93 L297.614395,88.1074219 C297.614395,86.9941406 298.485977,86.1884766 299.687148,86.1884766 C299.936172,86.1884766 300.390273,86.2324219 300.492812,86.2617188 L300.492812,85.0019531 C300.33168,84.9799805 300.068008,84.965332 299.86293,84.965332 C298.815566,84.965332 297.907363,85.5073242 297.672988,86.2763672 L297.555801,86.2763672 L297.555801,85.1044922 L296.354629,85.1044922 L296.354629,93 L297.614395,93 Z M304.024785,93.1391602 C305.079473,93.1391602 305.94373,92.6777344 306.456426,91.8354492 L306.573613,91.8354492 L306.573613,93 L307.774785,93 L307.774785,87.5947266 C307.774785,85.9541016 306.698125,84.965332 304.771855,84.965332 C303.087285,84.965332 301.842168,85.800293 301.673711,87.0673828 L302.948125,87.0673828 C303.123906,86.4448242 303.783086,86.0859375 304.72791,86.0859375 C305.907109,86.0859375 306.51502,86.6206055 306.51502,87.5947266 L306.51502,88.3125 L304.237187,88.4516602 C302.398809,88.5615234 301.35877,89.3745117 301.35877,90.7880859 C301.35877,92.230957 302.494023,93.1391602 304.024785,93.1391602 Z M304.25916,92.0332031 C303.343633,92.0332031 302.66248,91.5644531 302.66248,90.7587891 C302.66248,89.9677734 303.189824,89.550293 304.390996,89.4697266 L306.51502,89.3305664 L306.51502,90.0556641 C306.51502,91.1835938 305.555547,92.0332031 304.25916,92.0332031 Z M312.669062,93.0585938 C312.918086,93.0585938 313.159785,93.0292969 313.408809,92.9853516 L313.408809,91.9233398 C313.174434,91.9453125 313.049922,91.9526367 312.822871,91.9526367 C312.002559,91.9526367 311.650996,91.5571289 311.650996,90.6269531 L311.650996,86.1591797 L313.408809,86.1591797 L313.408809,85.1044922 L311.650996,85.1044922 L311.650996,83.0610352 L310.39123,83.0610352 L310.39123,85.1044922 L309.116816,85.1044922 L309.116816,86.1591797 L310.39123,86.1591797 L310.39123,90.9492188 C310.39123,92.4580078 311.043086,93.0585938 312.669062,93.0585938 Z M317.695176,93.1391602 C318.903672,93.1391602 319.745957,92.6411133 320.141465,91.762207 L320.258652,91.762207 L320.258652,93 L321.459824,93 L321.459824,85.1044922 L320.200059,85.1044922 L320.200059,89.7773438 C320.200059,91.1616211 319.43834,91.9892578 318.046738,91.9892578 C316.786973,91.9892578 316.259629,91.3300781 316.259629,89.9091797 L316.259629,85.1044922 L314.999863,85.1044922 L314.999863,90.2167969 C314.999863,92.0844727 315.922715,93.1391602 317.695176,93.1391602 Z M324.852637,93 L324.852637,88.1074219 C324.852637,86.9941406 325.724219,86.1884766 326.925391,86.1884766 C327.174414,86.1884766 327.628516,86.2324219 327.731055,86.2617188 L327.731055,85.0019531 C327.569922,84.9799805 327.30625,84.965332 327.101172,84.965332 C326.053809,84.965332 325.145605,85.5073242 324.91123,86.2763672 L324.794043,86.2763672 L324.794043,85.1044922 L323.592871,85.1044922 L323.592871,93 L324.852637,93 Z M332.010098,93.1391602 C333.738613,93.1391602 334.954434,92.3115234 335.335293,90.956543 L334.075527,90.956543 C333.745937,91.6523438 333.057461,92.0258789 332.039395,92.0258789 C330.699062,92.0258789 329.82748,91.0371094 329.761562,89.4770508 L329.761562,89.418457 L335.437832,89.418457 L335.437832,88.9350586 C335.437832,86.4814453 334.141445,84.965332 332.010098,84.965332 C329.842129,84.965332 328.450527,86.5766602 328.450527,89.0595703 C328.450527,91.5571289 329.820156,93.1391602 332.010098,93.1391602 Z M334.112148,88.4003906 L329.761562,88.4003906 C329.856777,87.0014648 330.735684,86.0786133 331.995449,86.0786133 C333.247891,86.0786133 334.082852,87.0014648 334.112148,88.4003906 Z M16.984375,111 L18.7421875,104.891602 L18.859375,104.891602 L20.6245117,111 L21.90625,111 L24.1181641,103.104492 L22.8510742,103.104492 L21.2983398,109.417969 L21.1811523,109.417969 L19.4160156,103.104492 L18.2075195,103.104492 L16.4423828,109.417969 L16.3251953,109.417969 L14.7724609,103.104492 L13.4980469,103.104492 L15.7099609,111 L16.984375,111 Z M26.2219141,101.500488 C26.7053125,101.500488 27.1008203,101.10498 27.1008203,100.621582 C27.1008203,100.138184 26.7053125,99.7426758 26.2219141,99.7426758 C25.7385156,99.7426758 25.3430078,100.138184 25.3430078,100.621582 C25.3430078,101.10498 25.7385156,101.500488 26.2219141,101.500488 Z M26.8517969,111 L26.8517969,103.104492 L25.5920312,103.104492 L25.5920312,111 L26.8517969,111 Z M31.8193164,111.058594 C32.0683398,111.058594 32.3100391,111.029297 32.5590625,110.985352 L32.5590625,109.92334 C32.3246875,109.945312 32.2001758,109.952637 31.973125,109.952637 C31.1528125,109.952637 30.80125,109.557129 30.80125,108.626953 L30.80125,104.15918 L32.5590625,104.15918 L32.5590625,103.104492 L30.80125,103.104492 L30.80125,101.061035 L29.5414844,101.061035 L29.5414844,103.104492 L28.2670703,103.104492 L28.2670703,104.15918 L29.5414844,104.15918 L29.5414844,108.949219 C29.5414844,110.458008 30.1933398,111.058594 31.8193164,111.058594 Z M35.5563672,111 L35.5563672,106.327148 C35.5563672,104.994141 36.3327344,104.100586 37.7463086,104.100586 C38.9401563,104.100586 39.5700391,104.796387 39.5700391,106.195312 L39.5700391,111 L40.8298047,111 L40.8298047,105.887695 C40.8298047,104.034668 39.7751172,102.965332 38.1051953,102.965332 C36.8966992,102.965332 36.0690625,103.478027 35.6735547,104.349609 L35.5563672,104.349609 L35.5563672,99.9697266 L34.2966016,99.9697266 L34.2966016,111 L35.5563672,111 Z M49.0802734,111.13916 C50.1349609,111.13916 50.9992187,110.677734 51.5119141,109.835449 L51.6291016,109.835449 L51.6291016,111 L52.8302734,111 L52.8302734,105.594727 C52.8302734,103.954102 51.7536133,102.965332 49.8273437,102.965332 C48.1427734,102.965332 46.8976562,103.800293 46.7291992,105.067383 L48.0036133,105.067383 C48.1793945,104.444824 48.8385742,104.085938 49.7833984,104.085938 C50.9625977,104.085938 51.5705078,104.620605 51.5705078,105.594727 L51.5705078,106.3125 L49.2926758,106.45166 C47.4542969,106.561523 46.4142578,107.374512 46.4142578,108.788086 C46.4142578,110.230957 47.5495117,111.13916 49.0802734,111.13916 Z M49.3146484,110.033203 C48.3991211,110.033203 47.7179687,109.564453 47.7179687,108.758789 C47.7179687,107.967773 48.2453125,107.550293 49.4464844,107.469727 L51.5705078,107.330566 L51.5705078,108.055664 C51.5705078,109.183594 50.6110352,110.033203 49.3146484,110.033203 Z M61.7179492,111.058594 C61.9669727,111.058594 62.2086719,111.029297 62.4576953,110.985352 L62.4576953,109.92334 C62.2233203,109.945312 62.0988086,109.952637 61.8717578,109.952637 C61.0514453,109.952637 60.6998828,109.557129 60.6998828,108.626953 L60.6998828,104.15918 L62.4576953,104.15918 L62.4576953,103.104492 L60.6998828,103.104492 L60.6998828,101.061035 L59.4401172,101.061035 L59.4401172,103.104492 L58.1657031,103.104492 L58.1657031,104.15918 L59.4401172,104.15918 L59.4401172,108.949219 C59.4401172,110.458008 60.0919727,111.058594 61.7179492,111.058594 Z M65.455,111 L65.455,106.327148 C65.455,104.994141 66.2313672,104.100586 67.6449414,104.100586 C68.8387891,104.100586 69.4686719,104.796387 69.4686719,106.195312 L69.4686719,111 L70.7284375,111 L70.7284375,105.887695 C70.7284375,104.034668 69.67375,102.965332 68.0038281,102.965332 C66.795332,102.965332 65.9676953,103.478027 65.5721875,104.349609 L65.455,104.349609 L65.455,99.9697266 L64.1952344,99.9697266 L64.1952344,111 L65.455,111 Z M75.9523047,111.13916 C77.6808203,111.13916 78.8966406,110.311523 79.2775,108.956543 L78.0177344,108.956543 C77.6881445,109.652344 76.999668,110.025879 75.9816016,110.025879 C74.6412695,110.025879 73.7696875,109.037109 73.7037695,107.477051 L73.7037695,107.418457 L79.3800391,107.418457 L79.3800391,106.935059 C79.3800391,104.481445 78.0836523,102.965332 75.9523047,102.965332 C73.7843359,102.965332 72.3927344,104.57666 72.3927344,107.05957 C72.3927344,109.557129 73.7623633,111.13916 75.9523047,111.13916 Z M78.0543555,106.400391 L73.7037695,106.400391 C73.7989844,105.001465 74.6778906,104.078613 75.9376562,104.078613 C77.1900977,104.078613 78.0250586,105.001465 78.0543555,106.400391 Z M82.3773437,111 L82.3773437,106.107422 C82.3773437,104.994141 83.2489258,104.188477 84.4500977,104.188477 C84.6991211,104.188477 85.1532227,104.232422 85.2557617,104.261719 L85.2557617,103.001953 C85.0946289,102.97998 84.830957,102.965332 84.6258789,102.965332 C83.5785156,102.965332 82.6703125,103.507324 82.4359375,104.276367 L82.31875,104.276367 L82.31875,103.104492 L81.1175781,103.104492 L81.1175781,111 L82.3773437,111 Z M87.9967187,111 L87.9967187,106.107422 C87.9967187,104.994141 88.7950586,104.100586 89.8277734,104.100586 C90.8238672,104.100586 91.4757227,104.701172 91.4757227,105.638672 L91.4757227,111 L92.7354883,111 L92.7354883,105.924316 C92.7354883,104.920898 93.4679102,104.100586 94.566543,104.100586 C95.6798242,104.100586 96.2291406,104.671875 96.2291406,105.836426 L96.2291406,111 L97.4889062,111 L97.4889062,105.543457 C97.4889062,103.888184 96.5880273,102.965332 94.9766992,102.965332 C93.8853906,102.965332 92.9845117,103.514648 92.559707,104.349609 L92.4425195,104.349609 C92.0763086,103.529297 91.3292383,102.965332 90.2599023,102.965332 C89.2052148,102.965332 88.4141992,103.470703 88.0553125,104.349609 L87.938125,104.349609 L87.938125,103.104492 L86.7369531,103.104492 L86.7369531,111 L87.9967187,111 Z M102.79334,111.13916 C105.041875,111.13916 106.433477,109.586426 106.433477,107.052246 C106.433477,104.510742 105.041875,102.965332 102.79334,102.965332 C100.544805,102.965332 99.1532031,104.510742 99.1532031,107.052246 C99.1532031,109.586426 100.544805,111.13916 102.79334,111.13916 Z M102.79334,110.003906 C101.299199,110.003906 100.456914,108.919922 100.456914,107.052246 C100.456914,105.177246 101.299199,104.100586 102.79334,104.100586 C104.28748,104.100586 105.129766,105.177246 105.129766,107.052246 C105.129766,108.919922 104.28748,110.003906 102.79334,110.003906 Z M109.430781,111 L109.430781,106.107422 C109.430781,104.994141 110.229121,104.100586 111.261836,104.100586 C112.25793,104.100586 112.909785,104.701172 112.909785,105.638672 L112.909785,111 L114.169551,111 L114.169551,105.924316 C114.169551,104.920898 114.901973,104.100586 116.000605,104.100586 C117.113887,104.100586 117.663203,104.671875 117.663203,105.836426 L117.663203,111 L118.922969,111 L118.922969,105.543457 C118.922969,103.888184 118.02209,102.965332 116.410762,102.965332 C115.319453,102.965332 114.418574,103.514648 113.99377,104.349609 L113.876582,104.349609 C113.510371,103.529297 112.763301,102.965332 111.693965,102.965332 C110.639277,102.965332 109.848262,103.470703 109.489375,104.349609 L109.372188,104.349609 L109.372188,103.104492 L108.171016,103.104492 L108.171016,111 L109.430781,111 Z M124.146836,111.13916 C125.875352,111.13916 127.091172,110.311523 127.472031,108.956543 L126.212266,108.956543 C125.882676,109.652344 125.194199,110.025879 124.176133,110.025879 C122.835801,110.025879 121.964219,109.037109 121.898301,107.477051 L121.898301,107.418457 L127.57457,107.418457 L127.57457,106.935059 C127.57457,104.481445 126.278184,102.965332 124.146836,102.965332 C121.978867,102.965332 120.587266,104.57666 120.587266,107.05957 C120.587266,109.557129 121.956895,111.13916 124.146836,111.13916 Z M126.248887,106.400391 L121.898301,106.400391 C121.993516,105.001465 122.872422,104.078613 124.132188,104.078613 C125.384629,104.078613 126.21959,105.001465 126.248887,106.400391 Z M132.117285,111.058594 C132.366309,111.058594 132.608008,111.029297 132.857031,110.985352 L132.857031,109.92334 C132.622656,109.945312 132.498145,109.952637 132.271094,109.952637 C131.450781,109.952637 131.099219,109.557129 131.099219,108.626953 L131.099219,104.15918 L132.857031,104.15918 L132.857031,103.104492 L131.099219,103.104492 L131.099219,101.061035 L129.839453,101.061035 L129.839453,103.104492 L128.565039,103.104492 L128.565039,104.15918 L129.839453,104.15918 L129.839453,108.949219 C129.839453,110.458008 130.491309,111.058594 132.117285,111.058594 Z M137.575527,111.13916 C139.304043,111.13916 140.519863,110.311523 140.900723,108.956543 L139.640957,108.956543 C139.311367,109.652344 138.622891,110.025879 137.604824,110.025879 C136.264492,110.025879 135.39291,109.037109 135.326992,107.477051 L135.326992,107.418457 L141.003262,107.418457 L141.003262,106.935059 C141.003262,104.481445 139.706875,102.965332 137.575527,102.965332 C135.407559,102.965332 134.015957,104.57666 134.015957,107.05957 C134.015957,109.557129 135.385586,111.13916 137.575527,111.13916 Z M139.677578,106.400391 L135.326992,106.400391 C135.422207,105.001465 136.301113,104.078613 137.560879,104.078613 C138.81332,104.078613 139.648281,105.001465 139.677578,106.400391 Z M144.000566,111 L144.000566,106.107422 C144.000566,104.994141 144.872148,104.188477 146.07332,104.188477 C146.322344,104.188477 146.776445,104.232422 146.878984,104.261719 L146.878984,103.001953 C146.717852,102.97998 146.45418,102.965332 146.249102,102.965332 C145.201738,102.965332 144.293535,103.507324 144.05916,104.276367 L143.941973,104.276367 L143.941973,103.104492 L142.740801,103.104492 L142.740801,111 L144.000566,111 Z" id="Yourheartrateatrestisabnormallyhigh.Itisrecommendedtocheckyourbodytemperaturewithathermometer" fill="#000000" fill-rule="nonzero" mask="url(#mask-3)"></path>
                <path d="M15.1933594,53 L15.1933594,48.715332 L19.6245117,48.715332 L19.6245117,47.140625 L15.1933594,47.140625 L15.1933594,44.0644531 L20.0419922,44.0644531 L20.0419922,42.4311523 L13.3037109,42.4311523 L13.3037109,53 L15.1933594,53 Z M25.0827539,53.1611328 C26.9724023,53.1611328 28.2980859,52.2529297 28.6423242,50.7954102 L26.9211328,50.7954102 C26.6574609,51.3886719 26.0349023,51.7182617 25.1340234,51.7182617 C23.9401758,51.7182617 23.1711328,50.8833008 23.1271875,49.550293 L23.1271875,49.4550781 L28.7228906,49.4550781 L28.7228906,48.8691406 C28.7228906,46.3422852 27.3532617,44.8261719 25.0681055,44.8261719 C22.7463281,44.8261719 21.303457,46.4448242 21.303457,49.0229492 C21.303457,51.6010742 22.7243555,53.1611328 25.0827539,53.1611328 Z M26.9064844,48.2172852 L23.1345117,48.2172852 C23.2150781,47.0454102 23.9767969,46.269043 25.0607812,46.269043 C26.1520898,46.269043 26.8698633,47.0307617 26.9064844,48.2172852 Z M34.2690234,53 L37.1034961,44.9873047 L35.1845508,44.9873047 L33.3461719,51.1835938 L33.2216602,51.1835938 L31.3686328,44.9873047 L29.4203906,44.9873047 L32.2695117,53 L34.2690234,53 Z M41.4631055,53.1611328 C43.3527539,53.1611328 44.6784375,52.2529297 45.0226758,50.7954102 L43.3014844,50.7954102 C43.0378125,51.3886719 42.4152539,51.7182617 41.514375,51.7182617 C40.3205273,51.7182617 39.5514844,50.8833008 39.5075391,49.550293 L39.5075391,49.4550781 L45.1032422,49.4550781 L45.1032422,48.8691406 C45.1032422,46.3422852 43.7336133,44.8261719 41.448457,44.8261719 C39.1266797,44.8261719 37.6838086,46.4448242 37.6838086,49.0229492 C37.6838086,51.6010742 39.104707,53.1611328 41.4631055,53.1611328 Z M43.2868359,48.2172852 L39.5148633,48.2172852 C39.5954297,47.0454102 40.3571484,46.269043 41.4411328,46.269043 C42.5324414,46.269043 43.2502148,47.0307617 43.2868359,48.2172852 Z M48.5033789,53 L48.5033789,48.3710938 C48.5033789,47.2504883 49.3236914,46.5180664 50.5028906,46.5180664 C50.8105078,46.5180664 51.2939062,46.5693359 51.4330664,46.6206055 L51.4330664,44.9360352 C51.2646094,44.8847656 50.9423437,44.8554688 50.6786719,44.8554688 C49.645957,44.8554688 48.7816992,45.4414062 48.5619727,46.2324219 L48.4374609,46.2324219 L48.4374609,44.9873047 L46.6869727,44.9873047 L46.6869727,53 L48.5033789,53 Z M57.7572656,53 L58.6654688,50.2973633 L62.5546289,50.2973633 L63.4481836,53 L65.4769922,53 L61.719668,42.4311523 L59.5956445,42.4311523 L55.8456445,53 L57.7572656,53 Z M62.1151758,48.8032227 L59.1049219,48.8032227 L60.5551172,44.4453125 L60.6796289,44.4453125 L62.1151758,48.8032227 Z M68.7526172,53 L68.7526172,41.8891602 L66.9362109,41.8891602 L66.9362109,53 L68.7526172,53 Z M74.1888867,53.1611328 C76.0785352,53.1611328 77.4042187,52.2529297 77.748457,50.7954102 L76.0272656,50.7954102 C75.7635937,51.3886719 75.1410352,51.7182617 74.2401562,51.7182617 C73.0463086,51.7182617 72.2772656,50.8833008 72.2333203,49.550293 L72.2333203,49.4550781 L77.8290234,49.4550781 L77.8290234,48.8691406 C77.8290234,46.3422852 76.4593945,44.8261719 74.1742383,44.8261719 C71.8524609,44.8261719 70.4095898,46.4448242 70.4095898,49.0229492 C70.4095898,51.6010742 71.8304883,53.1611328 74.1888867,53.1611328 Z M76.0126172,48.2172852 L72.2406445,48.2172852 C72.3212109,47.0454102 73.0829297,46.269043 74.1669141,46.269043 C75.2582227,46.269043 75.9759961,47.0307617 76.0126172,48.2172852 Z M81.2291602,53 L81.2291602,48.3710938 C81.2291602,47.2504883 82.0494727,46.5180664 83.2286719,46.5180664 C83.5362891,46.5180664 84.0196875,46.5693359 84.1588477,46.6206055 L84.1588477,44.9360352 C83.9903906,44.8847656 83.668125,44.8554688 83.4044531,44.8554688 C82.3717383,44.8554688 81.5074805,45.4414062 81.2877539,46.2324219 L81.1632422,46.2324219 L81.1632422,44.9873047 L79.4127539,44.9873047 L79.4127539,53 L81.2291602,53 Z M88.9212891,53.0366211 C89.2728516,53.0366211 89.6097656,53 89.8734375,52.9487305 L89.8734375,51.527832 C89.6537109,51.5498047 89.5145508,51.5644531 89.2582031,51.5644531 C88.4964844,51.5644531 88.1595703,51.2128906 88.1595703,50.421875 L88.1595703,46.4887695 L89.8734375,46.4887695 L89.8734375,45.0385742 L88.1595703,45.0385742 L88.1595703,43.0244141 L86.3504883,43.0244141 L86.3504883,45.0385742 L85.0833984,45.0385742 L85.0833984,46.4887695 L86.3504883,46.4887695 L86.3504883,50.8613281 C86.3504883,52.4140625 87.0829102,53.0366211 88.9212891,53.0366211 Z" id="FeverAlert" fill="#000000" fill-rule="nonzero" mask="url(#mask-3)"></path>
                <g id="Header" mask="url(#mask-3)">
                    <g transform="translate(10.000000, 10.000000)">
                        <path d="M310.274527,15 L310.274527,10.9501953 C310.274527,9.75048828 310.979117,9.02050781 312.070914,9.02050781 C313.162711,9.02050781 313.683219,9.60449219 313.683219,10.8359375 L313.683219,15 L314.775016,15 L314.775016,10.5693359 C314.775016,8.94433594 313.918082,8.03662109 312.381949,8.03662109 C311.334586,8.03662109 310.668082,8.48095703 310.325309,9.23632812 L310.223746,9.23632812 L310.223746,8.15722656 L309.18273,8.15722656 L309.18273,15 L310.274527,15 Z M319.502191,15.1206055 C321.450922,15.1206055 322.656977,13.7749023 322.656977,11.5786133 C322.656977,9.37597656 321.450922,8.03662109 319.502191,8.03662109 C317.553461,8.03662109 316.347406,9.37597656 316.347406,11.5786133 C316.347406,13.7749023 317.553461,15.1206055 319.502191,15.1206055 Z M319.502191,14.1367188 C318.20727,14.1367188 317.477289,13.1972656 317.477289,11.5786133 C317.477289,9.95361328 318.20727,9.02050781 319.502191,9.02050781 C320.797113,9.02050781 321.527094,9.95361328 321.527094,11.5786133 C321.527094,13.1972656 320.797113,14.1367188 319.502191,14.1367188 Z M326.463742,15 L327.98718,9.70605469 L328.088742,9.70605469 L329.618527,15 L330.729367,15 L332.646359,8.15722656 L331.548215,8.15722656 L330.202512,13.6289062 L330.100949,13.6289062 L328.571164,8.15722656 L327.523801,8.15722656 L325.994016,13.6289062 L325.892453,13.6289062 L324.54675,8.15722656 L323.442258,8.15722656 L325.35925,15 L326.463742,15 Z" id="now" fill="#8E8E93" fill-rule="nonzero"></path>
                        <path d="M29.234375,15 L29.234375,8.00488281 L29.3105469,8.00488281 L32.1987305,14.9365234 L33.1635742,14.9365234 L36.0517578,8.00488281 L36.1279297,8.00488281 L36.1279297,15 L37.1943359,15 L37.1943359,5.84033203 L35.8676758,5.84033203 L32.7319336,13.4194336 L32.6303711,13.4194336 L29.4946289,5.84033203 L28.1679688,5.84033203 L28.1679688,15 L29.234375,15 Z M45.1270781,15 L45.1270781,13.9716797 L40.5948516,13.9716797 L40.5948516,10.8232422 L44.8922148,10.8232422 L44.8922148,9.80761719 L40.5948516,9.80761719 L40.5948516,6.86865234 L45.1270781,6.86865234 L45.1270781,5.84033203 L39.4522734,5.84033203 L39.4522734,15 L45.1270781,15 Z M50.0827695,15.2158203 C52.1774961,15.2158203 53.5041563,14.1430664 53.5041563,12.4609375 C53.5041563,11.1152344 52.7424375,10.3789062 50.8444883,9.90283203 L49.8859922,9.64892578 C48.6228086,9.32519531 48.1213438,8.91259766 48.1213438,8.1953125 C48.1213438,7.26855469 48.9274961,6.65917969 50.1462461,6.65917969 C51.2888242,6.65917969 52.0632383,7.21777344 52.2219297,8.15722656 L53.3708555,8.15722656 C53.2756406,6.67822266 51.9553281,5.62451172 50.184332,5.62451172 C48.2482969,5.62451172 46.9470273,6.67822266 46.9470273,8.23339844 C46.9470273,9.53466797 47.6643125,10.2836914 49.3210508,10.7026367 L50.4953672,11.0073242 C51.7585508,11.324707 52.3298398,11.8198242 52.3298398,12.6005859 C52.3298398,13.5083008 51.422125,14.1748047 50.1906797,14.1748047 C48.8894102,14.1748047 47.9753477,13.5654297 47.8356992,12.6069336 L46.6804258,12.6069336 C46.8010313,14.1875 48.1403867,15.2158203 50.0827695,15.2158203 Z M58.2884609,15.2158203 C60.3831875,15.2158203 61.7098477,14.1430664 61.7098477,12.4609375 C61.7098477,11.1152344 60.9481289,10.3789062 59.0501797,9.90283203 L58.0916836,9.64892578 C56.8285,9.32519531 56.3270352,8.91259766 56.3270352,8.1953125 C56.3270352,7.26855469 57.1331875,6.65917969 58.3519375,6.65917969 C59.4945156,6.65917969 60.2689297,7.21777344 60.4276211,8.15722656 L61.5765469,8.15722656 C61.481332,6.67822266 60.1610195,5.62451172 58.3900234,5.62451172 C56.4539883,5.62451172 55.1527188,6.67822266 55.1527188,8.23339844 C55.1527188,9.53466797 55.8700039,10.2836914 57.5267422,10.7026367 L58.7010586,11.0073242 C59.9642422,11.324707 60.5355313,11.8198242 60.5355313,12.6005859 C60.5355313,13.5083008 59.6278164,14.1748047 58.3963711,14.1748047 C57.0951016,14.1748047 56.1810391,13.5654297 56.0413906,12.6069336 L54.8861172,12.6069336 C55.0067227,14.1875 56.3460781,15.2158203 58.2884609,15.2158203 Z M63.9995234,15 L64.9199336,12.378418 L68.5634883,12.378418 L69.4838984,15 L70.6836055,15 L67.3066523,5.84033203 L66.1767695,5.84033203 L62.7998164,15 L63.9995234,15 Z M68.2270625,11.4072266 L65.2563594,11.4072266 L66.6909297,7.31933594 L66.7924922,7.31933594 L68.2270625,11.4072266 Z M75.563125,15.2158203 C77.9054102,15.2158203 79.4542383,13.7177734 79.4542383,11.4580078 L79.4542383,10.3408203 L75.7408594,10.3408203 L75.7408594,11.34375 L78.3180078,11.34375 L78.3180078,11.565918 C78.3180078,13.1147461 77.207168,14.1621094 75.5694727,14.1621094 C73.7286523,14.1621094 72.5860742,12.7275391 72.5860742,10.4169922 C72.5860742,8.13818359 73.7476953,6.67822266 75.563125,6.67822266 C76.9215234,6.67822266 77.8419336,7.33203125 78.2354883,8.56982422 L79.3971094,8.56982422 C79.0670312,6.75439453 77.594375,5.62451172 75.563125,5.62451172 C73.0558008,5.62451172 71.4117578,7.52246094 71.4117578,10.4169922 C71.4117578,13.3496094 73.0304102,15.2158203 75.563125,15.2158203 Z M87.0695977,15 L87.0695977,13.9716797 L82.5373711,13.9716797 L82.5373711,10.8232422 L86.8347344,10.8232422 L86.8347344,9.80761719 L82.5373711,9.80761719 L82.5373711,6.86865234 L87.0695977,6.86865234 L87.0695977,5.84033203 L81.394793,5.84033203 L81.394793,15 L87.0695977,15 Z M92.0252891,15.2158203 C94.1200156,15.2158203 95.4466758,14.1430664 95.4466758,12.4609375 C95.4466758,11.1152344 94.684957,10.3789062 92.7870078,9.90283203 L91.8285117,9.64892578 C90.5653281,9.32519531 90.0638633,8.91259766 90.0638633,8.1953125 C90.0638633,7.26855469 90.8700156,6.65917969 92.0887656,6.65917969 C93.2313437,6.65917969 94.0057578,7.21777344 94.1644492,8.15722656 L95.313375,8.15722656 C95.2181602,6.67822266 93.8978477,5.62451172 92.1268516,5.62451172 C90.1908164,5.62451172 88.8895469,6.67822266 88.8895469,8.23339844 C88.8895469,9.53466797 89.606832,10.2836914 91.2635703,10.7026367 L92.4378867,11.0073242 C93.7010703,11.324707 94.2723594,11.8198242 94.2723594,12.6005859 C94.2723594,13.5083008 93.3646445,14.1748047 92.1331992,14.1748047 C90.8319297,14.1748047 89.9178672,13.5654297 89.7782187,12.6069336 L88.6229453,12.6069336 C88.7435508,14.1875 90.0829062,15.2158203 92.0252891,15.2158203 Z" id="MESSAGES" fill="#8E8E93" fill-rule="nonzero"></path>
                        <g id="Glyphs/Notification-Icon" fill="none" fill-rule="evenodd">
                            <path d="M20,6.25633333 C20,6.01733333 20,5.77866667 19.9986667,5.53966667 C19.9973333,5.33866667 19.995,5.13733333 19.9896667,4.93633333 C19.978,4.498 19.952,4.056 19.8743333,3.62266667 C19.7953333,3.18266667 19.6663333,2.77333333 19.4626667,2.37366667 C19.2626667,1.98066667 19.0016667,1.62166667 18.69,1.31 C18.3783333,0.998666667 18.0193333,0.737333333 17.6263333,0.537333333 C17.227,0.334 16.8176667,0.205 16.378,0.126 C15.9443333,0.048 15.5023333,0.0223333333 15.064,0.0103333333 C14.8626667,0.005 14.6616667,0.00266666667 14.4603333,0.00133333333 C14.2216667,1.77635684e-15 13.9826667,1.77635684e-15 13.7436667,1.77635684e-15 L6.25633333,1.77635684e-15 C6.01766667,1.77635684e-15 5.77866667,1.77635684e-15 5.54,0.00133333333 C5.33866667,0.00266666667 5.13733333,0.005 4.93633333,0.0103333333 C4.498,0.0223333333 4.05566667,0.048 3.62233333,0.126 C3.18266667,0.205 2.77333333,0.334 2.374,0.537333333 C1.981,0.737333333 1.62166667,0.998666667 1.31033333,1.31 C0.998666667,1.62166667 0.737666667,1.98066667 0.537666667,2.37366667 C0.334,2.77333333 0.205,3.18266667 0.126,3.62266667 C0.0483333333,4.056 0.0223333333,4.498 0.0106666667,4.93633333 C0.00533333333,5.13733333 0.00266666667,5.33866667 0.00166666667,5.53966667 C0,5.77866667 0,6.01733333 0,6.25633333 L0,13.7436667 C0,13.9826667 0,14.2213333 0.00166666667,14.4603333 C0.00266666667,14.6613333 0.00533333333,14.8626667 0.0106666667,15.0636667 C0.0223333333,15.502 0.0483333333,15.944 0.126,16.3773333 C0.205,16.8173333 0.334,17.227 0.537666667,17.6266667 C0.737666667,18.0193333 0.998666667,18.3783333 1.31033333,18.6896667 C1.62166667,19.0016667 1.981,19.2626667 2.374,19.4626667 C2.77333333,19.666 3.18266667,19.795 3.62233333,19.874 C4.05566667,19.9516667 4.498,19.978 4.93633333,19.9896667 C5.13733333,19.995 5.33866667,19.9973333 5.54,19.9986667 C5.77866667,20 6.01766667,20 6.25633333,20 L13.7436667,20 C13.9826667,20 14.2216667,20 14.4603333,19.9986667 C14.6616667,19.9973333 14.8626667,19.995 15.064,19.9896667 C15.5023333,19.978 15.9443333,19.9516667 16.378,19.874 C16.8176667,19.795 17.227,19.666 17.6263333,19.4626667 C18.0193333,19.2626667 18.3783333,19.0016667 18.69,18.6896667 C19.0016667,18.3783333 19.2626667,18.0193333 19.4626667,17.6266667 C19.6663333,17.227 19.7953333,16.8173333 19.8743333,16.3773333 C19.952,15.944 19.978,15.502 19.9896667,15.0636667 C19.995,14.8626667 19.9973333,14.6613333 19.9986667,14.4603333 C20,14.2213333 20,13.9826667 20,13.7436667 L20,6.25633333 Z" id="App-Icon" fill="#FF3B30"></path>
                        </g>
                    </g>
                </g>
            </g>
            <g id="Group-8" transform="translate(402.000000, 0.000000)">
                <g id="hero-watchOS">
                    <path d="M123.54,310.05 C136.13,308.05 136.44,298.4 136.44,298.4 C136.44,298.4 137.2,294.93 139.36,272.62 C139.683972,268.830549 140.487041,265.097455 141.75,261.51 C143.22,257.51 145.07,253.26 148.54,250.69 L156,244.4 L85.43,251.69 L14.86,244.4 L22.32,250.69 C25.79,253.26 27.64,257.51 29.1,261.51 C30.3716115,265.09552 31.1781893,268.829303 31.5,272.62 C33.66,294.93 34.42,298.4 34.42,298.4 C34.42,298.4 34.72,308.01 47.32,310.05 L47.32,310.05 C72.616957,312.645014 98.113043,312.645014 123.41,310.05 L123.54,310.05 Z" id="Path" fill="#E1E1E1" fill-rule="nonzero"></path>
                    <path d="M47.32,2 C34.72,4 34.42,13.65 34.42,13.65 C34.42,13.65 33.66,17.12 31.5,39.43 C31.1781893,43.2206973 30.3716115,46.9544802 29.1,50.54 C27.64,54.54 25.79,58.79 22.32,61.36 L14.86,66.91 L85.43,60.36 L156,66.86 L148.54,61.31 C145.07,58.74 143.22,54.49 141.75,50.49 C140.487041,46.9025448 139.683972,43.1694513 139.36,39.38 C137.2,17.07 136.44,13.6 136.44,13.6 C136.44,13.6 136.13,4 123.54,2 L123.54,2 C98.2397001,-0.594998722 72.7402999,-0.594998722 47.44,2 L47.32,2 Z" id="Path" fill="#E1E1E1" fill-rule="nonzero"></path>
                    <path d="M173.51,98.8 L169.999999,98.8 L169.999999,96.52 C170.002653,86.0926073 165.862246,76.0913857 158.489904,68.7171677 C151.117561,61.3429497 141.117393,57.2 130.69,57.2 L39.28,57.2 C17.5774979,57.2165619 -0.00552718142,74.8174923 -1.30273474e-06,96.52 L-1.30273474e-06,215.52 C0.0165443594,237.206888 17.5931116,254.783456 39.28,254.8 L130.69,254.8 C141.117393,254.8 151.117561,250.65705 158.489904,243.282832 C165.862246,235.908614 170.002653,225.907393 169.999999,215.48 L169.999999,135.94 L173.54,135.94 C175.967937,135.967833 177.961618,134.027793 177.999999,131.6 L177.999999,103.14 C177.956191,100.7027 175.947381,98.7610003 173.51,98.8 Z" id="Path" fill="#B3B3B3" fill-rule="nonzero"></path>
                    <rect id="Rectangle" fill="#0B3051" fill-rule="nonzero" x="6" y="63" width="158" height="186" rx="36.16"></rect>
                    <g id="Group" opacity="0.4" transform="translate(20.000000, 78.000000)" fill="#0B3051" fill-rule="nonzero">
                        <path d="M0,0 L0,156 L130,156 L130,0 L0,0 Z M129.5,131.83 C129.5,144.90258 118.90258,155.5 105.83,155.5 L24.17,155.5 C11.09742,155.5 0.5,144.90258 0.5,131.83 L0.5,24.17 C0.5,11.09742 11.09742,0.5 24.17,0.5 L105.83,0.5 C118.90258,0.5 129.5,11.09742 129.5,24.17 L129.5,131.83 Z" id="Shape"></path>
                    </g>
                    <path d="M44.17,78.5 L125.83,78.5 C138.90258,78.5 149.5,89.09742 149.5,102.17 L149.5,209.83 C149.5,222.90258 138.90258,233.5 125.83,233.5 L44.17,233.5 C31.09742,233.5 20.5,222.90258 20.5,209.83 L20.5,102.17 C20.5,89.09742 31.09742,78.5 44.17,78.5 Z" id="Rectangle" stroke="#FFFFFF" stroke-dasharray="4"></path>
                    <circle id="Oval" fill="#5AAEF9" fill-rule="nonzero" cx="40.53" cy="212.95" r="17.53"></circle>
                    <circle id="Oval" fill="#5AAEF9" fill-rule="nonzero" cx="84.53" cy="213.95" r="17.53"></circle>
                    <circle id="Oval" fill="#5AAEF9" fill-rule="nonzero" cx="128.53" cy="212.95" r="17.53"></circle>
                    <rect id="Rectangle" fill="#5AAEF9" fill-rule="nonzero" x="22" y="140" width="126" height="48" rx="3.1"></rect>
                    <rect id="Rectangle" fill="#5AAEF9" fill-rule="nonzero" x="105" y="85" width="37" height="9"></rect>
                    <rect id="Rectangle" fill="#5AAEF9" fill-rule="nonzero" x="65" y="100" width="77" height="30"></rect>
                </g>
                <g id="Group-4" transform="translate(20.000000, 77.000000)">
                    <rect id="Rectangle" fill="#EF4A4A" x="0" y="0" width="132" height="158" rx="8"></rect>
                    <g id="flame" transform="translate(46.000000, 29.000000)" fill-rule="nonzero">
                        <path d="M9.62646864,57.3069083 C6.70020582,54.020923 3.7740677,50.6035821 1.91184377,46.5289702 C0.049744534,42.1915238 -0.48233726,37.1969297 0.448774705,32.46517 C1.37988667,27.7334103 3.50796445,23.2644851 6.5672789,19.4528309 C6.30130035,22.7388162 7.49839086,26.1561571 9.75952027,28.6535158 C8.42937813,22.3445029 10.5575806,15.5096978 14.8138609,10.5151037 C19.0701411,5.52050952 24.9226668,2.234401 31.0410463,0 C27.9818565,3.15450645 27.5828263,8.1491006 28.7799169,12.3551913 C29.9770074,16.5611589 32.50424,20.2414575 34.7653694,24.0531117 C37.0264988,27.8647659 39.1547013,31.807899 39.2877529,36.1453454 C40.4848434,33.9109444 41.8149856,31.6764202 42.6130459,29.1791847 C43.4111063,26.681826 43.8101364,24.0531117 43.1451277,21.555753 C45.5393087,24.447425 46.8694509,27.3389738 47.5344596,31.0192724 C48.1994683,34.699571 48.0665414,38.5112252 47.6675112,42.1915238 C47.1354294,46.2661357 46.0713905,50.4721033 43.8102611,53.8894442 C41.1501016,57.9640561 36.8936966,60.8556048 32.2383862,62.4328581 C23.9915548,63.8787557 15.8778998,62.6958158 9.62646864,57.3069083 Z" id="Path" stroke="#FFFFFF" stroke-width="3" fill="#F3705A"></path>
                        <path d="M19.7220448,62.1621715 C30.5470401,66.4323367 41.2401048,53.4886096 35.2995133,43.4806055 C35.2995133,43.3471237 35.1674589,43.3471237 35.1674589,43.2137671 C35.6955528,48.6847676 34.3753801,52.6879693 31.8670891,54.9565336 C33.1872618,51.7539723 32.2631285,48.0176091 30.6789708,44.8150478 C29.094813,41.7459682 26.8506308,38.943727 25.1344187,36.0080041 C23.4182066,32.9389246 22.0981576,29.4693997 22.8902365,26 C19.721921,28.401921 17.4777388,32.0048025 16.5536056,35.8745224 C15.6294723,39.7442423 16.1575661,44.0144074 17.8737783,47.6172889 C15.8935811,46.14949 14.4414778,43.747569 14.3094234,41.2121663 C12.1971718,43.747569 10.8771229,47.083487 11.0090535,50.4195301 C11.0091773,55.6236922 15.1015022,60.2940524 19.7220448,62.1621715 Z" id="Path" fill="#FFD15C"></path>
                    </g>
                    <path d="M36.1520996,118.205078 C38.473877,118.205078 40.0266113,116.740234 40.0266113,114.52832 L40.0266113,108.002441 L38.5178223,108.002441 L38.5178223,114.425781 C38.5178223,115.897949 37.5876465,116.791504 36.1520996,116.791504 C34.7092285,116.791504 33.786377,115.897949 33.786377,114.425781 L33.786377,108.002441 L32.2775879,108.002441 L32.2775879,114.506348 C32.2775879,116.718262 33.8303223,118.205078 36.1520996,118.205078 Z M44.0036621,120.636719 L44.0036621,116.835449 L44.0769043,116.835449 C44.369873,117.516602 45.036377,118.109863 46.2888184,118.109863 C48.083252,118.109863 49.2624512,116.879395 49.2624512,114.733398 L49.2624512,113.524902 C49.2624512,111.393555 48.0979004,110.155762 46.3327637,110.155762 C45.072998,110.155762 44.3039551,110.770996 44.032959,111.48877 L43.9597168,111.48877 L43.9597168,110.258301 L42.5241699,110.258301 L42.5241699,120.636719 L44.0036621,120.636719 Z M45.9226074,116.798828 C44.7727051,116.798828 44.0036621,115.98584 44.0036621,114.791992 L44.0036621,113.598145 C44.0036621,112.272461 44.7141113,111.466797 45.8933105,111.466797 C47.0505371,111.466797 47.7683105,112.250488 47.7683105,113.759277 L47.7683105,114.513672 C47.7683105,116.07373 47.0065918,116.798828 45.9226074,116.798828 Z M54.3381348,118.131836 C56.3376465,118.131836 57.3703613,117.0625 57.4143066,115.70752 L55.9934082,115.70752 C55.8762207,116.271484 55.4807129,116.806152 54.3747559,116.806152 C53.239502,116.806152 52.5437012,115.993164 52.5437012,114.682129 L52.5437012,113.583496 C52.5437012,112.287109 53.173584,111.459473 54.3747559,111.459473 C55.517334,111.459473 55.8762207,112.162598 55.9494629,112.638672 L57.3630371,112.638672 C57.3337402,111.349609 56.3010254,110.133789 54.345459,110.133789 C52.3166504,110.133789 51.064209,111.48877 51.064209,113.546875 L51.064209,114.682129 C51.064209,116.842773 52.338623,118.131836 54.3381348,118.131836 Z M62.4606934,118.131836 C64.4309082,118.131836 65.8444824,116.864746 65.8444824,114.630859 L65.8444824,113.612793 C65.8444824,111.4375 64.4309082,110.133789 62.4606934,110.133789 C60.4831543,110.133789 59.0695801,111.503418 59.0695801,113.612793 L59.0695801,114.630859 C59.0695801,116.879395 60.4611816,118.131836 62.4606934,118.131836 Z M62.4680176,116.842773 C61.2229004,116.842773 60.5563965,115.883301 60.5563965,114.572266 L60.5563965,113.693359 C60.5563965,112.389648 61.2741699,111.422852 62.4680176,111.422852 C63.6618652,111.422852 64.357666,112.389648 64.357666,113.693359 L64.357666,114.572266 C64.357666,115.890625 63.6984863,116.842773 62.4680176,116.842773 Z M69.4772949,118 L69.4772949,113.17334 C69.4772949,112.133301 70.151123,111.481445 71.0739746,111.481445 C72.0187988,111.481445 72.6340332,112.082031 72.6340332,113.085449 L72.6340332,118 L74.0842285,118 L74.0842285,113.187988 C74.0842285,112.155273 74.7873535,111.481445 75.7028809,111.481445 C76.6843262,111.481445 77.2336426,112.060059 77.2336426,113.041504 L77.2336426,118 L78.7131348,118 L78.7131348,112.580078 C78.7131348,111.041992 77.7609863,110.148438 76.1862793,110.148438 C74.8752441,110.148438 74.135498,110.858887 73.8352051,111.598633 L73.7692871,111.598633 C73.5275879,110.770996 72.8024902,110.148438 71.6306152,110.148438 C70.217041,110.148438 69.7116699,110.961426 69.5358887,111.518066 L69.4626465,111.518066 L69.4626465,110.265625 L67.9978027,110.265625 L67.9978027,118 L69.4772949,118 Z M82.1115723,108.90332 C82.7194824,108.90332 83.1369629,108.493164 83.1369629,107.929199 C83.1369629,107.35791 82.7194824,106.947754 82.1115723,106.947754 C81.5256348,106.947754 81.1081543,107.35791 81.1081543,107.929199 C81.1081543,108.493164 81.532959,108.90332 82.1115723,108.90332 Z M82.8586426,118 L82.8586426,110.265625 L81.3791504,110.265625 L81.3791504,118 L82.8586426,118 Z M87.0334473,118 L87.0334473,113.700684 C87.0334473,112.440918 87.6779785,111.503418 88.9597168,111.503418 C89.9338379,111.503418 90.5563965,112.052734 90.5563965,113.231934 L90.5563965,118 L92.0358887,118 L92.0358887,112.763184 C92.0358887,111.005371 90.9812012,110.148438 89.4211426,110.148438 C87.8317871,110.148438 87.2897949,111.049316 87.092041,111.649902 L87.0187988,111.649902 L87.0187988,110.265625 L85.5539551,110.265625 L85.5539551,118 L87.0334473,118 Z M97.338623,120.885742 C99.3234863,120.885742 100.810303,120.021484 100.810303,117.853516 L100.810303,110.265625 L99.3820801,110.265625 L99.3820801,111.4375 L99.3161621,111.4375 C99.0598145,110.785645 98.2321777,110.155762 97.0822754,110.155762 C95.3757324,110.155762 94.0720215,111.38623 94.0720215,113.488281 L94.0720215,114.535645 C94.0720215,116.637695 95.3830566,117.86084 97.0895996,117.86084 C98.1662598,117.86084 98.9572754,117.318848 99.2575684,116.64502 L99.3381348,116.64502 L99.3381348,117.794922 C99.3381348,118.944824 98.6936035,119.633301 97.3972168,119.633301 C96.4304199,119.633301 95.829834,119.237793 95.7199707,118.710449 L94.2404785,118.710449 C94.3356934,119.875 95.2731934,120.885742 97.338623,120.885742 Z M97.5217285,116.601074 C96.3791504,116.601074 95.5734863,115.722168 95.5734863,114.374512 L95.5734863,113.700684 C95.5734863,112.345703 96.3132324,111.466797 97.5070801,111.466797 C98.6496582,111.466797 99.3381348,112.411621 99.3381348,113.524902 L99.3381348,114.572266 C99.3381348,115.663574 98.6862793,116.601074 97.5217285,116.601074 Z M12.2971191,136 L12.2971191,131.847168 L16.4645996,131.847168 L16.4645996,130.484863 L12.2971191,130.484863 L12.2971191,127.386719 L16.8527832,127.386719 L16.8527832,126.002441 L10.7883301,126.002441 L10.7883301,136 L12.2971191,136 Z M21.7233887,136.131836 C23.7375488,136.131836 24.6750488,134.850098 24.7849121,133.963867 L23.3054199,133.963867 C23.1809082,134.439941 22.5876465,134.850098 21.7087402,134.850098 C20.5002441,134.850098 19.826416,134.015137 19.826416,132.894531 L19.826416,132.513672 L24.880127,132.513672 L24.880127,131.598145 C24.880127,129.474121 23.5251465,128.133789 21.6208496,128.133789 C19.7531738,128.133789 18.3615723,129.415527 18.3615723,131.598145 L18.3615723,132.660156 C18.3615723,134.835449 19.6286621,136.131836 21.7233887,136.131836 Z M23.4226074,131.466309 L19.826416,131.466309 L19.826416,131.356445 C19.826416,130.177246 20.5441895,129.393555 21.6281738,129.393555 C22.7121582,129.393555 23.4226074,130.177246 23.4226074,131.356445 L23.4226074,131.466309 Z M30.3439941,136 L33.1125488,128.265625 L31.545166,128.265625 L29.5895996,134.447266 L29.5236816,134.447266 L27.7219238,128.265625 L26.0959473,128.265625 L28.7692871,136 L30.3439941,136 Z M37.7268066,136.131836 C39.7409668,136.131836 40.6784668,134.850098 40.7883301,133.963867 L39.3088379,133.963867 C39.1843262,134.439941 38.5910645,134.850098 37.7121582,134.850098 C36.5036621,134.850098 35.829834,134.015137 35.829834,132.894531 L35.829834,132.513672 L40.8835449,132.513672 L40.8835449,131.598145 C40.8835449,129.474121 39.5285645,128.133789 37.6242676,128.133789 C35.7565918,128.133789 34.3649902,129.415527 34.3649902,131.598145 L34.3649902,132.660156 C34.3649902,134.835449 35.6320801,136.131836 37.7268066,136.131836 Z M39.4260254,131.466309 L35.829834,131.466309 L35.829834,131.356445 C35.829834,130.177246 36.5476074,129.393555 37.6315918,129.393555 C38.7155762,129.393555 39.4260254,130.177246 39.4260254,131.356445 L39.4260254,131.466309 Z M44.6115723,136 L44.6115723,131.371094 C44.6115723,130.331055 45.2634277,129.547363 46.5891113,129.547363 C46.845459,129.547363 47.1164551,129.562012 47.248291,129.598633 L47.248291,128.192383 C47.1018066,128.17041 46.9260254,128.148438 46.7355957,128.148438 C45.4099121,128.148438 44.8459473,128.946777 44.6628418,129.466797 L44.5895996,129.466797 L44.5895996,128.265625 L43.1101074,128.265625 L43.1101074,136 L44.6115723,136 Z M54.8068848,136.131836 C56.7111816,136.131836 57.9489746,135.230957 57.9489746,133.670898 C57.9489746,132.206055 56.791748,131.751953 55.3562012,131.50293 C54.4919434,131.349121 53.4152832,131.239258 53.4152832,130.367676 C53.4152832,129.693848 54.0231934,129.305664 54.8874512,129.305664 C55.8688965,129.305664 56.3449707,129.833008 56.3962402,130.345703 L57.7438965,130.345703 C57.7438965,128.983398 56.6086426,128.133789 54.9313965,128.133789 C53.3933105,128.133789 51.9943848,128.836914 51.9943848,130.506836 C51.9943848,132.030273 53.1516113,132.418457 54.5725098,132.704102 C55.6345215,132.90918 56.5061035,133.041016 56.5061035,133.854004 C56.5061035,134.469238 56.0300293,134.967285 54.880127,134.967285 C53.8474121,134.967285 53.3859863,134.557129 53.2907715,133.927246 L51.8479004,133.927246 C51.8479004,135.304199 53.0270996,136.131836 54.8068848,136.131836 Z M62.614502,136.124512 C63.9694824,136.124512 64.6872559,135.333496 64.8996582,134.710938 L64.9802246,134.710938 L64.9802246,136 L66.4377441,136 L66.4377441,128.265625 L64.9655762,128.265625 L64.9655762,133.041016 C64.9655762,134.015137 64.1379395,134.769531 63.0759277,134.769531 C62.2043457,134.769531 61.4645996,134.395996 61.4645996,133.158203 L61.4645996,128.265625 L59.9851074,128.265625 L59.9851074,133.575684 C59.9851074,135.384766 61.0690918,136.124512 62.614502,136.124512 Z M71.4328613,136.131836 C73.3371582,136.131836 74.5749512,135.230957 74.5749512,133.670898 C74.5749512,132.206055 73.4177246,131.751953 71.9821777,131.50293 C71.1179199,131.349121 70.0412598,131.239258 70.0412598,130.367676 C70.0412598,129.693848 70.6491699,129.305664 71.5134277,129.305664 C72.494873,129.305664 72.9709473,129.833008 73.0222168,130.345703 L74.369873,130.345703 C74.369873,128.983398 73.2346191,128.133789 71.557373,128.133789 C70.0192871,128.133789 68.6203613,128.836914 68.6203613,130.506836 C68.6203613,132.030273 69.7775879,132.418457 71.1984863,132.704102 C72.260498,132.90918 73.1320801,133.041016 73.1320801,133.854004 C73.1320801,134.469238 72.6560059,134.967285 71.5061035,134.967285 C70.4733887,134.967285 70.0119629,134.557129 69.916748,133.927246 L68.473877,133.927246 C68.473877,135.304199 69.6530762,136.131836 71.4328613,136.131836 Z M78.1491699,138.636719 L78.1491699,134.835449 L78.2224121,134.835449 C78.5153809,135.516602 79.1818848,136.109863 80.4343262,136.109863 C82.2287598,136.109863 83.407959,134.879395 83.407959,132.733398 L83.407959,131.524902 C83.407959,129.393555 82.2434082,128.155762 80.4782715,128.155762 C79.2185059,128.155762 78.4494629,128.770996 78.1784668,129.48877 L78.1052246,129.48877 L78.1052246,128.258301 L76.6696777,128.258301 L76.6696777,138.636719 L78.1491699,138.636719 Z M80.0681152,134.798828 C78.9182129,134.798828 78.1491699,133.98584 78.1491699,132.791992 L78.1491699,131.598145 C78.1491699,130.272461 78.8596191,129.466797 80.0388184,129.466797 C81.1960449,129.466797 81.9138184,130.250488 81.9138184,131.759277 L81.9138184,132.513672 C81.9138184,134.07373 81.1520996,134.798828 80.0681152,134.798828 Z M88.5715332,136.131836 C90.5856934,136.131836 91.5231934,134.850098 91.6330566,133.963867 L90.1535645,133.963867 C90.0290527,134.439941 89.435791,134.850098 88.5568848,134.850098 C87.3483887,134.850098 86.6745605,134.015137 86.6745605,132.894531 L86.6745605,132.513672 L91.7282715,132.513672 L91.7282715,131.598145 C91.7282715,129.474121 90.373291,128.133789 88.4689941,128.133789 C86.6013184,128.133789 85.2097168,129.415527 85.2097168,131.598145 L85.2097168,132.660156 C85.2097168,134.835449 86.4768066,136.131836 88.5715332,136.131836 Z M90.270752,131.466309 L86.6745605,131.466309 L86.6745605,131.356445 C86.6745605,130.177246 87.392334,129.393555 88.4763184,129.393555 C89.5603027,129.393555 90.270752,130.177246 90.270752,131.356445 L90.270752,131.466309 Z M96.7526855,136.131836 C98.7521973,136.131836 99.7849121,135.0625 99.8288574,133.70752 L98.407959,133.70752 C98.2907715,134.271484 97.8952637,134.806152 96.7893066,134.806152 C95.6540527,134.806152 94.958252,133.993164 94.958252,132.682129 L94.958252,131.583496 C94.958252,130.287109 95.5881348,129.459473 96.7893066,129.459473 C97.9318848,129.459473 98.2907715,130.162598 98.3640137,130.638672 L99.7775879,130.638672 C99.748291,129.349609 98.7155762,128.133789 96.7600098,128.133789 C94.7312012,128.133789 93.4787598,129.48877 93.4787598,131.546875 L93.4787598,132.682129 C93.4787598,134.842773 94.7531738,136.131836 96.7526855,136.131836 Z M104.626221,136.058594 C104.955811,136.058594 105.497803,136.014648 105.61499,135.985352 L105.61499,134.762207 C105.490479,134.776855 105.19751,134.791504 104.992432,134.791504 C104.091553,134.791504 103.783936,134.557129 103.783936,133.70752 L103.783936,129.562012 L105.519775,129.562012 L105.519775,128.30957 L103.783936,128.30957 L103.783936,126.375977 L102.326416,126.375977 L102.326416,128.30957 L101.132568,128.30957 L101.132568,129.562012 L102.311768,129.562012 L102.311768,133.824707 C102.311768,135.377441 102.765869,136.058594 104.626221,136.058594 Z M110.602783,136.131836 C112.616943,136.131836 113.554443,134.850098 113.664307,133.963867 L112.184814,133.963867 C112.060303,134.439941 111.467041,134.850098 110.588135,134.850098 C109.379639,134.850098 108.705811,134.015137 108.705811,132.894531 L108.705811,132.513672 L113.759521,132.513672 L113.759521,131.598145 C113.759521,129.474121 112.404541,128.133789 110.500244,128.133789 C108.632568,128.133789 107.240967,129.415527 107.240967,131.598145 L107.240967,132.660156 C107.240967,134.835449 108.508057,136.131836 110.602783,136.131836 Z M112.302002,131.466309 L108.705811,131.466309 L108.705811,131.356445 C108.705811,130.177246 109.423584,129.393555 110.507568,129.393555 C111.591553,129.393555 112.302002,130.177246 112.302002,131.356445 L112.302002,131.466309 Z M118.46167,136.102539 C119.765381,136.102539 120.571045,135.436035 120.768799,134.769531 L120.842041,134.769531 L120.842041,136 L122.270264,136 L122.270264,125.255371 L120.790771,125.255371 L120.790771,129.422852 L120.717529,129.422852 C120.461182,128.749023 119.736084,128.155762 118.490967,128.155762 C116.674561,128.155762 115.517334,129.444824 115.517334,131.458984 L115.517334,132.806641 C115.517334,134.857422 116.689209,136.102539 118.46167,136.102539 Z M118.886475,134.798828 C117.743896,134.798828 117.011475,134.000488 117.011475,132.557617 L117.011475,131.693359 C117.011475,130.272461 117.721924,129.466797 118.849854,129.466797 C119.985107,129.466797 120.790771,130.279785 120.790771,131.473633 L120.790771,132.660156 C120.790771,133.993164 120.036377,134.798828 118.886475,134.798828 Z" id="UpcomingFeversuspected" fill="#FFFFFF" fill-rule="nonzero"></path>
                </g>
            </g>
        </g>
    </g>
</svg>