<?xml version="1.0" encoding="UTF-8"?>
<svg width="480px" height="251px" viewBox="0 0 480 251" version="1.1" xmlns="http://www.w3.org/2000/svg" xmlns:xlink="http://www.w3.org/1999/xlink">
    <title>Zoom</title>
    <defs>
        <rect id="path-1" x="0" y="0" width="339" height="207" rx="5"></rect>
        <filter x="-2.2%" y="-3.6%" width="104.4%" height="107.2%" filterUnits="objectBoundingBox" id="filter-2">
            <feOffset dx="0" dy="0" in="SourceAlpha" result="shadowOffsetOuter1"></feOffset>
            <feGaussianBlur stdDeviation="2.5" in="shadowOffsetOuter1" result="shadowBlurOuter1"></feGaussianBlur>
            <feColorMatrix values="0 0 0 0 0   0 0 0 0 0   0 0 0 0 0  0 0 0 0.36098667 0" type="matrix" in="shadowBlurOuter1"></feColorMatrix>
        </filter>
        <path d="M334,0 C336.761424,-5.07265313e-16 339,2.23857625 339,5 L339,202 C339,204.761424 336.761424,207 334,207 L5,207 C2.23857625,207 3.38176876e-16,204.761424 0,202 L0,5 C-3.38176876e-16,2.23857625 2.23857625,5.07265313e-16 5,0 L334,0 Z M275.5,77 C257.550746,77 243,91.5507456 243,109.5 C243,127.449254 257.550746,142 275.5,142 C293.449254,142 308,127.449254 308,109.5 C308,91.5507456 293.449254,77 275.5,77 Z" id="path-3"></path>
        <filter x="-2.2%" y="-3.6%" width="104.4%" height="107.2%" filterUnits="objectBoundingBox" id="filter-4">
            <feOffset dx="0" dy="0" in="SourceAlpha" result="shadowOffsetOuter1"></feOffset>
            <feGaussianBlur stdDeviation="2.5" in="shadowOffsetOuter1" result="shadowBlurOuter1"></feGaussianBlur>
            <feComposite in="shadowBlurOuter1" in2="SourceAlpha" operator="out" result="shadowBlurOuter1"></feComposite>
            <feColorMatrix values="0 0 0 0 0   0 0 0 0 0   0 0 0 0 0  0 0 0 0.36098667 0" type="matrix" in="shadowBlurOuter1"></feColorMatrix>
        </filter>
    </defs>
    <g id="Page-1" stroke="none" stroke-width="1" fill="none" fill-rule="evenodd">
        <g id="Zoom" transform="translate(5.000000, 1.000000)">
            <g id="History-Zoom" transform="translate(0.000000, 38.000000)">
                <g id="Rectangle">
                    <use fill="black" fill-opacity="1" filter="url(#filter-2)" xlink:href="#path-1"></use>
                    <use fill="#FFFFFF" fill-rule="evenodd" xlink:href="#path-1"></use>
                </g>
                <g id="Combined-Shape">
                    <use fill="black" fill-opacity="1" filter="url(#filter-4)" xlink:href="#path-3"></use>
                    <use fill-opacity="0.1" fill="#000000" fill-rule="evenodd" xlink:href="#path-3"></use>
                </g>
                <circle id="Oval-Copy-2" stroke="#000000" fill="#FFFFFF" cx="275.5" cy="109.5" r="32.5"></circle>
                <g id="Group-7" transform="translate(32.000000, 166.000000)">
                    <path d="M3.02246094,11.1171875 C4.69238281,11.1171875 5.7421875,10.2919922 5.7421875,8.97363281 C5.7421875,7.94335938 5.14160156,7.36230469 3.69628906,7.02050781 L2.91992188,6.83007812 C2.01171875,6.60546875 1.640625,6.3125 1.640625,5.81445312 C1.640625,5.18945312 2.22167969,4.75976562 3.07128906,4.75976562 C3.92089844,4.75976562 4.50195312,5.18457031 4.56542969,5.88769531 L5.62988281,5.88769531 C5.59570312,4.671875 4.57519531,3.83691406 3.0859375,3.83691406 C1.58203125,3.83691406 0.522460938,4.671875 0.522460938,5.88769531 C0.522460938,6.86914062 1.12304688,7.47460938 2.41699219,7.78710938 L3.33007813,8.00683594 C4.24316406,8.23144531 4.62890625,8.55859375 4.62890625,9.10546875 C4.62890625,9.73535156 3.98925781,10.1943359 3.10058594,10.1943359 C2.17285156,10.1943359 1.49414062,9.73535156 1.41601562,9.03710938 L0.336914062,9.03710938 C0.405273438,10.3115234 1.45996094,11.1171875 3.02246094,11.1171875 Z" id="S" fill="#000000" fill-rule="nonzero"></path>
                    <polygon id="M" fill="#000000" fill-rule="nonzero" points="42.6455078 11 42.6455078 5.81445312 42.6796875 5.81445312 44.8085938 10.9462891 45.6191406 10.9462891 47.7431641 5.81445312 47.7773438 5.81445312 47.7773438 11 48.7783203 11 48.7783203 3.95410156 47.5087891 3.95410156 45.2333984 9.515625 45.1943359 9.515625 42.9140625 3.95410156 41.6494141 3.95410156 41.6494141 11"></polygon>
                    <polygon id="T" fill="#000000" fill-rule="nonzero" points="88.5302734 11 88.5302734 4.89648438 90.7226562 4.89648438 90.7226562 3.95410156 85.2392578 3.95410156 85.2392578 4.89648438 87.4365234 4.89648438 87.4365234 11"></polygon>
                    <polygon id="W" fill="#000000" fill-rule="nonzero" points="128.149414 11 129.667969 5.6875 129.716797 5.6875 131.240234 11 132.270508 11 134.174805 3.95410156 133.037109 3.95410156 131.733398 9.47167969 131.694336 9.47167969 130.200195 3.95410156 129.18457 3.95410156 127.695312 9.47167969 127.65625 9.47167969 126.352539 3.95410156 125.214844 3.95410156 127.114258 11"></polygon>
                    <polygon id="T" fill="#000000" fill-rule="nonzero" points="173.530273 11 173.530273 4.89648438 175.722656 4.89648438 175.722656 3.95410156 170.239258 3.95410156 170.239258 4.89648438 172.436523 4.89648438 172.436523 11"></polygon>
                    <circle id="Oval" fill="#FD605E" cx="214.5" cy="7.5" r="7.5"></circle>
                    <polygon id="F" fill="#FFFFFF" fill-rule="nonzero" points="213.743164 11 213.743164 8.05078125 216.770508 8.05078125 216.770508 7.12792969 213.743164 7.12792969 213.743164 4.89648438 217.048828 4.89648438 217.048828 3.95410156 212.649414 3.95410156 212.649414 11"></polygon>
                    <path d="M5.02246094,11.1171875 C6.69238281,11.1171875 7.7421875,10.2919922 7.7421875,8.97363281 C7.7421875,7.94335938 7.14160156,7.36230469 5.69628906,7.02050781 L4.91992188,6.83007812 C4.01171875,6.60546875 3.640625,6.3125 3.640625,5.81445312 C3.640625,5.18945312 4.22167969,4.75976562 5.07128906,4.75976562 C5.92089844,4.75976562 6.50195312,5.18457031 6.56542969,5.88769531 L7.62988281,5.88769531 C7.59570312,4.671875 6.57519531,3.83691406 5.0859375,3.83691406 C3.58203125,3.83691406 2.52246094,4.671875 2.52246094,5.88769531 C2.52246094,6.86914062 3.12304688,7.47460938 4.41699219,7.78710938 L5.33007812,8.00683594 C6.24316406,8.23144531 6.62890625,8.55859375 6.62890625,9.10546875 C6.62890625,9.73535156 5.98925781,10.1943359 5.10058594,10.1943359 C4.17285156,10.1943359 3.49414062,9.73535156 3.41601562,9.03710938 L2.33691406,9.03710938 C2.40527344,10.3115234 3.45996094,11.1171875 5.02246094,11.1171875 Z" id="S" fill="#000000" fill-rule="nonzero"></path>
                </g>
                <path d="M13.8847656,22 L13.8847656,17.84375 L18.328125,17.84375 L18.328125,22 L20.3925781,22 L20.3925781,12.1357422 L18.328125,12.1357422 L18.328125,16.1416016 L13.8847656,16.1416016 L13.8847656,12.1357422 L11.8203125,12.1357422 L11.8203125,22 L13.8847656,22 Z M22.921875,13.6533203 C23.5166016,13.6533203 24.0019531,13.2021484 24.0019531,12.6074219 C24.0019531,12.0126953 23.5166016,11.5683594 22.921875,11.5683594 C22.3339844,11.5683594 21.8486328,12.0126953 21.8486328,12.6074219 C21.8486328,13.2021484 22.3339844,13.6533203 22.921875,13.6533203 Z M23.9199219,22 L23.9199219,14.4736328 L21.9238281,14.4736328 L21.9238281,22 L23.9199219,22 Z M28.3222656,22.1298828 C30.2910156,22.1298828 31.6376953,21.1660156 31.6376953,19.703125 C31.6376953,18.5820312 31.0361328,18.0009766 29.5253906,17.6591797 L28.1103516,17.3515625 C27.4335938,17.1943359 27.1054688,16.9414062 27.1054688,16.5654297 C27.1054688,16.0800781 27.5839844,15.7587891 28.3017578,15.7587891 C29.0673828,15.7587891 29.5664062,16.1347656 29.6074219,16.7294922 L31.453125,16.7294922 C31.4257812,15.2939453 30.1884766,14.34375 28.3291016,14.34375 C26.421875,14.34375 25.1777344,15.2734375 25.1777344,16.6884766 C25.1777344,17.7890625 25.9091797,18.5205078 27.3242188,18.8417969 L28.7119141,19.15625 C29.3955078,19.3203125 29.6552734,19.5253906 29.6552734,19.9150391 C29.6552734,20.4072266 29.1699219,20.7148438 28.3769531,20.7148438 C27.5498047,20.7148438 27.0371094,20.359375 26.9414062,19.7236328 L24.9931641,19.7236328 C25.0957031,21.1728516 26.3398438,22.1298828 28.3222656,22.1298828 Z M35.6367188,22.0273438 C36.0400391,22.0273438 36.3955078,21.9863281 36.6005859,21.9453125 L36.6005859,20.46875 C36.4775391,20.4892578 36.2792969,20.5029297 36.1015625,20.5029297 C35.4931641,20.5029297 35.2060547,20.2226562 35.2060547,19.6416016 L35.2060547,15.984375 L36.6005859,15.984375 L36.6005859,14.4736328 L35.2060547,14.4736328 L35.2060547,12.7988281 L33.2099609,12.7988281 L33.2099609,14.4736328 L32.1914062,14.4736328 L32.1914062,15.984375 L33.2099609,15.984375 L33.2099609,19.9697266 C33.2099609,21.4394531 33.8935547,22.0273438 35.6367188,22.0273438 Z M41.1738281,22.1298828 C43.4570312,22.1298828 44.8857422,20.6738281 44.8857422,18.2333984 C44.8857422,15.8203125 43.4433594,14.34375 41.1738281,14.34375 C38.9111328,14.34375 37.4619141,15.8271484 37.4619141,18.2333984 C37.4619141,20.6669922 38.890625,22.1298828 41.1738281,22.1298828 Z M41.1738281,20.5917969 C40.1210938,20.5917969 39.4853516,19.7304688 39.4853516,18.2333984 C39.4853516,16.7568359 40.1210938,15.875 41.1738281,15.875 C42.2197266,15.875 42.8554688,16.75 42.8554688,18.2333984 C42.8554688,19.7304688 42.2265625,20.5917969 41.1738281,20.5917969 Z M47.9482422,22 L47.9482422,17.7890625 C47.9482422,16.7363281 48.5429688,16.1074219 49.5546875,16.1074219 C49.8007812,16.1074219 50.1083984,16.1552734 50.2724609,16.2304688 L50.2724609,14.4599609 C50.1289062,14.4121094 49.9101562,14.3847656 49.7119141,14.3847656 C48.8232422,14.3847656 48.1738281,14.890625 47.9208984,15.8203125 L47.8798828,15.8203125 L47.8798828,14.4736328 L45.9521484,14.4736328 L45.9521484,22 L47.9482422,22 Z M52.0976562,24.7480469 C53.9775391,24.7480469 54.9003906,24.0712891 55.5429688,22.1503906 L58.1474609,14.4736328 L56.0419922,14.4736328 L54.4082031,20.3798828 L54.3671875,20.3798828 L52.7402344,14.4736328 L50.5527344,14.4736328 L53.1914062,22.0478516 L53.1230469,22.3349609 C52.9658203,22.9365234 52.5351562,23.1962891 51.7900391,23.1962891 C51.7080078,23.1962891 51.4072266,23.1894531 51.3388672,23.1757812 L51.3388672,24.7207031 C51.4140625,24.734375 52.0224609,24.7480469 52.0976562,24.7480469 Z" id="History" fill="#000000" fill-rule="nonzero"></path>
                <path d="M14.359375,47 L14.359375,39.8222656 L16.9257812,39.8222656 L16.9257812,38.5449219 L10.28125,38.5449219 L10.28125,39.8222656 L12.8476562,39.8222656 L12.8476562,47 L14.359375,47 Z M19.3339844,47 L19.3339844,43.3496094 C19.3339844,42.3945312 19.9609375,41.7558594 20.875,41.7558594 C21.7597656,41.7558594 22.2929688,42.3007812 22.2929688,43.203125 L22.2929688,47 L23.7519531,47 L23.7519531,42.9101562 C23.7519531,41.4511719 22.8378906,40.5195312 21.4257812,40.5195312 C20.4472656,40.5195312 19.7207031,40.9296875 19.3457031,41.7089844 L19.3164062,41.7089844 L19.3164062,38.1523438 L17.875,38.1523438 L17.875,47 L19.3339844,47 Z M25.7324219,39.78125 C26.1894531,39.78125 26.5527344,39.4296875 26.5527344,38.9785156 C26.5527344,38.5214844 26.1894531,38.1757812 25.7324219,38.1757812 C25.28125,38.1757812 24.9121094,38.5214844 24.9121094,38.9785156 C24.9121094,39.4296875 25.28125,39.78125 25.7324219,39.78125 Z M26.4648438,47 L26.4648438,40.5957031 L25.0058594,40.5957031 L25.0058594,47 L26.4648438,47 Z M30.1738281,47.09375 C31.7792969,47.09375 32.8925781,46.2910156 32.8925781,45.1015625 C32.8925781,44.1582031 32.4003906,43.671875 31.1113281,43.3730469 L29.9863281,43.1152344 C29.3535156,42.96875 29.0546875,42.7226562 29.0546875,42.3652344 C29.0546875,41.8964844 29.5,41.5859375 30.1796875,41.5859375 C30.8769531,41.5859375 31.3398438,41.9257812 31.3867188,42.4648438 L32.7460938,42.4648438 C32.7167969,41.3046875 31.6855469,40.5078125 30.2089844,40.5078125 C28.6679688,40.5078125 27.6367188,41.2871094 27.6367188,42.4472656 C27.6367188,43.3554688 28.234375,43.9589844 29.40625,44.234375 L30.5664062,44.515625 C31.2050781,44.6679688 31.4394531,44.8671875 31.4394531,45.2421875 C31.4394531,45.7167969 30.9765625,46.015625 30.2324219,46.015625 C29.4707031,46.015625 28.9960938,45.6933594 28.9082031,45.1132812 L27.4726562,45.1132812 C27.5664062,46.3027344 28.6035156,47.09375 30.1738281,47.09375 Z M39.3261719,47 L40.5976562,42.2949219 L40.6328125,42.2949219 L41.9101562,47 L43.4394531,47 L45.1796875,40.5957031 L43.7382812,40.5957031 L42.6308594,45.5410156 L42.6015625,45.5410156 L41.3300781,40.5957031 L39.9296875,40.5957031 L38.6582031,45.5410156 L38.6289062,45.5410156 L37.5273438,40.5957031 L36.0683594,40.5957031 L37.8085938,47 L39.3261719,47 Z M48.7304688,47.09375 C50.2246094,47.09375 51.3613281,46.2792969 51.5488281,45.0957031 L50.1777344,45.0957031 C50.0078125,45.6230469 49.4628906,45.9570312 48.7597656,45.9570312 C47.78125,45.9570312 47.125,45.2714844 47.125,44.2402344 L47.125,44.1523438 L51.6074219,44.1523438 L51.6074219,43.671875 C51.6074219,41.7324219 50.4707031,40.5078125 48.6777344,40.5078125 C46.84375,40.5078125 45.6660156,41.8085938 45.6660156,43.8242188 C45.6660156,45.8398438 46.8378906,47.09375 48.7304688,47.09375 Z M50.171875,43.1796875 L47.1367188,43.1796875 C47.2011719,42.265625 47.8222656,41.6445312 48.6777344,41.6445312 C49.5449219,41.6445312 50.1425781,42.2539062 50.171875,43.1796875 Z M55.3808594,47.09375 C56.875,47.09375 58.0117188,46.2792969 58.1992188,45.0957031 L56.828125,45.0957031 C56.6582031,45.6230469 56.1132812,45.9570312 55.4101562,45.9570312 C54.4316406,45.9570312 53.7753906,45.2714844 53.7753906,44.2402344 L53.7753906,44.1523438 L58.2578125,44.1523438 L58.2578125,43.671875 C58.2578125,41.7324219 57.1210938,40.5078125 55.328125,40.5078125 C53.4941406,40.5078125 52.3164062,41.8085938 52.3164062,43.8242188 C52.3164062,45.8398438 53.4882812,47.09375 55.3808594,47.09375 Z M56.8222656,43.1796875 L53.7871094,43.1796875 C53.8515625,42.265625 54.4726562,41.6445312 55.328125,41.6445312 C56.1953125,41.6445312 56.7929688,42.2539062 56.8222656,43.1796875 Z M60.7421875,47 L60.7421875,44.7617188 L61.2578125,44.2402344 L63.3203125,47 L65.0078125,47 L62.3125,43.3554688 L64.9023438,40.5957031 L63.2089844,40.5957031 L60.7597656,43.2851562 L60.7421875,43.2851562 L60.7421875,38.1523438 L59.2832031,38.1523438 L59.2832031,47 L60.7421875,47 Z" id="Thisweek" fill="#000000" fill-rule="nonzero"></path>
                <g id="Group-6" transform="translate(92.000000, 188.000000)">
                    <path d="M16.5688477,9 L16.5688477,6.56103516 L17.9575195,6.56103516 L19.2495117,9 L20.3876953,9 L18.9638672,6.40722656 C19.7373047,6.14794922 20.1943359,5.45361328 20.1943359,4.59667969 C20.1943359,3.41455078 19.3813477,2.65869141 18.0761719,2.65869141 L15.5844727,2.65869141 L15.5844727,9 L16.5688477,9 Z M17.9838867,5.765625 L16.5688477,5.765625 L16.5688477,3.48486328 L17.9575195,3.48486328 C18.7177734,3.48486328 19.1835938,3.91552734 19.1835938,4.62304688 C19.1835938,5.34814453 18.7441406,5.765625 17.9838867,5.765625 Z M23.0771484,9.05712891 C24.1494141,9.05712891 24.9887695,8.45947266 25.125,7.60253906 L24.215332,7.60253906 C24.0834961,8.02001953 23.6484375,8.28369141 23.0947266,8.28369141 C22.3125,8.28369141 21.7939453,7.73876953 21.7939453,6.91259766 L21.7939453,6.85546875 L25.1733398,6.85546875 L25.1733398,6.52148438 C25.1733398,5.07568359 24.347168,4.16601562 23.0375977,4.16601562 C21.7016602,4.16601562 20.831543,5.13720703 20.831543,6.63134766 C20.831543,8.12548828 21.6928711,9.05712891 23.0771484,9.05712891 Z M24.2197266,6.17871094 L21.7983398,6.17871094 C21.8510742,5.44482422 22.3476562,4.94384766 23.0332031,4.94384766 C23.7275391,4.94384766 24.1977539,5.43603516 24.2197266,6.17871094 Z M27.6738281,9.05712891 C28.8295898,9.05712891 29.6381836,8.46826172 29.6381836,7.61572266 C29.6381836,6.91259766 29.2822266,6.56542969 28.3198242,6.33251953 L27.5288086,6.14355469 C27.0234375,6.02050781 26.7861328,5.82275391 26.7861328,5.53271484 C26.7861328,5.15478516 27.1464844,4.90429688 27.6870117,4.90429688 C28.2319336,4.90429688 28.5966797,5.16796875 28.6362305,5.58984375 L29.5327148,5.58984375 C29.5107422,4.75927734 28.7548828,4.17041016 27.7089844,4.17041016 C26.6103516,4.17041016 25.8588867,4.74609375 25.8588867,5.58544922 C25.8588867,6.24462891 26.2851562,6.68408203 27.1464844,6.89501953 L27.9990234,7.10595703 C28.5,7.23339844 28.6889648,7.39160156 28.6889648,7.69482422 C28.6889648,8.08154297 28.3154297,8.32763672 27.722168,8.32763672 C27.1157227,8.32763672 26.746582,8.07714844 26.671875,7.62011719 L25.7314453,7.62011719 C25.8017578,8.48144531 26.5620117,9.05712891 27.6738281,9.05712891 Z M32.0200195,9.03076172 C32.2265625,9.03076172 32.4506836,9.00878906 32.5561523,8.98242188 L32.5561523,8.23095703 C32.4946289,8.23974609 32.3320312,8.25292969 32.230957,8.25292969 C31.8310547,8.25292969 31.6464844,8.05957031 31.6464844,7.64648438 L31.6464844,4.97900391 L32.5605469,4.97900391 L32.5605469,4.22753906 L31.6464844,4.22753906 L31.6464844,3.15527344 L30.6972656,3.15527344 L30.6972656,4.22753906 L30.0380859,4.22753906 L30.0380859,4.97900391 L30.6972656,4.97900391 L30.6972656,7.74316406 C30.6972656,8.66601562 31.0664062,9.03076172 32.0200195,9.03076172 Z M33.8789062,3.54638672 C34.1865234,3.54638672 34.4370117,3.30029297 34.4370117,2.99707031 C34.4370117,2.68505859 34.1865234,2.44775391 33.8789062,2.44775391 C33.5712891,2.44775391 33.3208008,2.68505859 33.3208008,2.99707031 C33.3208008,3.30029297 33.5712891,3.54638672 33.8789062,3.54638672 Z M34.3535156,9 L34.3535156,4.22753906 L33.3999023,4.22753906 L33.3999023,9 L34.3535156,9 Z M36.3178711,9 L36.3178711,6.24462891 C36.3178711,5.49316406 36.7924805,4.9921875 37.5131836,4.9921875 C38.2119141,4.9921875 38.5898438,5.39648438 38.5898438,6.12158203 L38.5898438,9 L39.543457,9 L39.543457,5.94140625 C39.543457,4.84277344 38.8974609,4.17480469 37.8427734,4.17480469 C37.1044922,4.17480469 36.581543,4.46923828 36.2915039,5.03173828 L36.2739258,5.03173828 L36.2739258,4.22753906 L35.3642578,4.22753906 L35.3642578,9 L36.3178711,9 Z M42.5273438,10.7182617 C43.902832,10.7182617 44.7597656,10.0151367 44.7597656,8.87695312 L44.7597656,4.22753906 L43.8369141,4.22753906 L43.8369141,5.01855469 L43.8193359,5.01855469 C43.5249023,4.49121094 42.9711914,4.17919922 42.2944336,4.17919922 C41.0727539,4.17919922 40.2817383,5.12402344 40.2817383,6.59619141 C40.2817383,8.05078125 41.081543,8.98681641 42.2724609,8.98681641 C42.9492188,8.98681641 43.5117188,8.67919922 43.7885742,8.16503906 L43.8105469,8.16503906 L43.8105469,8.95166016 C43.8105469,9.57568359 43.3227539,9.97119141 42.5668945,9.97119141 C41.9824219,9.97119141 41.5385742,9.73828125 41.4331055,9.36914062 L40.4707031,9.36914062 C40.5629883,10.1865234 41.3803711,10.7182617 42.5273438,10.7182617 Z M42.5229492,8.19580078 C41.7539062,8.19580078 41.2573242,7.57617188 41.2573242,6.60058594 C41.2573242,5.62060547 41.7539062,4.98779297 42.5229492,4.98779297 C43.2963867,4.98779297 43.8105469,5.63378906 43.8105469,6.60058594 C43.8105469,7.56298828 43.2963867,8.19580078 42.5229492,8.19580078 Z M48.8027344,9 L48.8027344,6.26660156 C48.8027344,5.50195312 49.2993164,4.9921875 50.0375977,4.9921875 C50.7363281,4.9921875 51.1582031,5.42285156 51.1582031,6.13476562 L51.1582031,9 L52.1074219,9 L52.1074219,5.95019531 C52.1074219,4.87353516 51.4174805,4.17480469 50.3671875,4.17480469 C49.6376953,4.17480469 49.1015625,4.46923828 48.815918,5.03173828 L48.7939453,5.03173828 L48.7939453,2.37304688 L47.8491211,2.37304688 L47.8491211,9 L48.8027344,9 Z M55.0913086,9.05712891 C56.1635742,9.05712891 57.0029297,8.45947266 57.1391602,7.60253906 L56.2294922,7.60253906 C56.0976562,8.02001953 55.6625977,8.28369141 55.1088867,8.28369141 C54.3266602,8.28369141 53.8081055,7.73876953 53.8081055,6.91259766 L53.8081055,6.85546875 L57.1875,6.85546875 L57.1875,6.52148438 C57.1875,5.07568359 56.3613281,4.16601562 55.0517578,4.16601562 C53.7158203,4.16601562 52.8457031,5.13720703 52.8457031,6.63134766 C52.8457031,8.12548828 53.7070312,9.05712891 55.0913086,9.05712891 Z M56.2338867,6.17871094 L53.8125,6.17871094 C53.8652344,5.44482422 54.3618164,4.94384766 55.0473633,4.94384766 C55.7416992,4.94384766 56.2119141,5.43603516 56.2338867,6.17871094 Z M59.3540039,9.04833984 C60.0043945,9.04833984 60.5976562,8.72314453 60.8613281,8.20458984 L60.8833008,8.20458984 L60.8833008,9 L61.7929688,9 L61.7929688,5.72607422 C61.7929688,4.78125 61.0415039,4.16601562 59.8769531,4.16601562 C58.8046875,4.16601562 58.0048828,4.79003906 57.9785156,5.63378906 L58.8706055,5.63378906 C58.9541016,5.22070312 59.3320312,4.95263672 59.8505859,4.95263672 C60.487793,4.95263672 60.8525391,5.25146484 60.8525391,5.79638672 L60.8525391,6.16552734 L59.5649414,6.24023438 C58.387207,6.31494141 57.7412109,6.79833984 57.7412109,7.63330078 C57.7412109,8.48583984 58.4003906,9.04833984 59.3540039,9.04833984 Z M59.6088867,8.28808594 C59.0595703,8.28808594 58.7036133,8.02441406 58.7036133,7.61572266 C58.7036133,7.19384766 59.0419922,6.95214844 59.6923828,6.91259766 L60.8525391,6.83349609 L60.8525391,7.20703125 C60.8525391,7.83544922 60.3164062,8.28808594 59.6088867,8.28808594 Z M63.7045898,9 L63.7045898,6.15234375 C63.7045898,5.47998047 64.1000977,5.04492188 64.7285156,5.04492188 C64.8691406,5.04492188 65.0668945,5.07568359 65.1459961,5.10644531 L65.1459961,4.21435547 C65.0712891,4.19238281 64.9350586,4.17919922 64.8295898,4.17919922 C64.2670898,4.17919922 63.8276367,4.5 63.6782227,5.03173828 L63.6606445,5.03173828 L63.6606445,4.22753906 L62.7509766,4.22753906 L62.7509766,9 L63.7045898,9 Z M67.3828125,9.03076172 C67.5893555,9.03076172 67.8134766,9.00878906 67.9189453,8.98242188 L67.9189453,8.23095703 C67.8574219,8.23974609 67.6948242,8.25292969 67.59375,8.25292969 C67.1938477,8.25292969 67.0092773,8.05957031 67.0092773,7.64648438 L67.0092773,4.97900391 L67.9233398,4.97900391 L67.9233398,4.22753906 L67.0092773,4.22753906 L67.0092773,3.15527344 L66.0600586,3.15527344 L66.0600586,4.22753906 L65.4008789,4.22753906 L65.4008789,4.97900391 L66.0600586,4.97900391 L66.0600586,7.74316406 C66.0600586,8.66601562 66.4291992,9.03076172 67.3828125,9.03076172 Z M71.7553711,9 L71.7553711,6.15234375 C71.7553711,5.47998047 72.1508789,5.04492188 72.7792969,5.04492188 C72.9199219,5.04492188 73.1176758,5.07568359 73.1967773,5.10644531 L73.1967773,4.21435547 C73.1220703,4.19238281 72.9858398,4.17919922 72.8803711,4.17919922 C72.3178711,4.17919922 71.878418,4.5 71.7290039,5.03173828 L71.7114258,5.03173828 L71.7114258,4.22753906 L70.8017578,4.22753906 L70.8017578,9 L71.7553711,9 Z M75.2270508,9.04833984 C75.8774414,9.04833984 76.4707031,8.72314453 76.734375,8.20458984 L76.7563477,8.20458984 L76.7563477,9 L77.6660156,9 L77.6660156,5.72607422 C77.6660156,4.78125 76.9145508,4.16601562 75.75,4.16601562 C74.6777344,4.16601562 73.8779297,4.79003906 73.8515625,5.63378906 L74.7436523,5.63378906 C74.8271484,5.22070312 75.2050781,4.95263672 75.7236328,4.95263672 C76.3608398,4.95263672 76.7255859,5.25146484 76.7255859,5.79638672 L76.7255859,6.16552734 L75.4379883,6.24023438 C74.2602539,6.31494141 73.6142578,6.79833984 73.6142578,7.63330078 C73.6142578,8.48583984 74.2734375,9.04833984 75.2270508,9.04833984 Z M75.4819336,8.28808594 C74.9326172,8.28808594 74.5766602,8.02441406 74.5766602,7.61572266 C74.5766602,7.19384766 74.9150391,6.95214844 75.5654297,6.91259766 L76.7255859,6.83349609 L76.7255859,7.20703125 C76.7255859,7.83544922 76.1894531,8.28808594 75.4819336,8.28808594 Z M80.2324219,9.03076172 C80.4389648,9.03076172 80.6630859,9.00878906 80.7685547,8.98242188 L80.7685547,8.23095703 C80.7070312,8.23974609 80.5444336,8.25292969 80.4433594,8.25292969 C80.043457,8.25292969 79.8588867,8.05957031 79.8588867,7.64648438 L79.8588867,4.97900391 L80.7729492,4.97900391 L80.7729492,4.22753906 L79.8588867,4.22753906 L79.8588867,3.15527344 L78.909668,3.15527344 L78.909668,4.22753906 L78.2504883,4.22753906 L78.2504883,4.97900391 L78.909668,4.97900391 L78.909668,7.74316406 C78.909668,8.66601562 79.2788086,9.03076172 80.2324219,9.03076172 Z M83.6074219,9.05712891 C84.6796875,9.05712891 85.519043,8.45947266 85.6552734,7.60253906 L84.7456055,7.60253906 C84.6137695,8.02001953 84.1787109,8.28369141 83.625,8.28369141 C82.8427734,8.28369141 82.3242188,7.73876953 82.3242188,6.91259766 L82.3242188,6.85546875 L85.7036133,6.85546875 L85.7036133,6.52148438 C85.7036133,5.07568359 84.8774414,4.16601562 83.5678711,4.16601562 C82.2319336,4.16601562 81.3618164,5.13720703 81.3618164,6.63134766 C81.3618164,8.12548828 82.2231445,9.05712891 83.6074219,9.05712891 Z M84.75,6.17871094 L82.3286133,6.17871094 C82.3813477,5.44482422 82.8779297,4.94384766 83.5634766,4.94384766 C84.2578125,4.94384766 84.7280273,5.43603516 84.75,6.17871094 Z" id="Restingheartrate" fill="#FD605E" fill-rule="nonzero"></path>
                    <rect id="Rectangle" fill="#FD605E" x="0" y="1" width="10" height="10" rx="3"></rect>
                    <path d="M112.177246,9 L112.177246,3.50683594 L114.150391,3.50683594 L114.150391,2.65869141 L109.215332,2.65869141 L109.215332,3.50683594 L111.192871,3.50683594 L111.192871,9 L112.177246,9 Z M115.851074,9 L115.851074,6.26660156 C115.851074,5.50195312 116.347656,4.9921875 117.085938,4.9921875 C117.784668,4.9921875 118.206543,5.42285156 118.206543,6.13476562 L118.206543,9 L119.155762,9 L119.155762,5.95019531 C119.155762,4.87353516 118.46582,4.17480469 117.415527,4.17480469 C116.686035,4.17480469 116.149902,4.46923828 115.864258,5.03173828 L115.842285,5.03173828 L115.842285,2.37304688 L114.897461,2.37304688 L114.897461,9 L115.851074,9 Z M121.062988,9 L121.062988,6.15234375 C121.062988,5.47998047 121.458496,5.04492188 122.086914,5.04492188 C122.227539,5.04492188 122.425293,5.07568359 122.504395,5.10644531 L122.504395,4.21435547 C122.429688,4.19238281 122.293457,4.17919922 122.187988,4.17919922 C121.625488,4.17919922 121.186035,4.5 121.036621,5.03173828 L121.019043,5.03173828 L121.019043,4.22753906 L120.109375,4.22753906 L120.109375,9 L121.062988,9 Z M125.163086,9.05712891 C126.235352,9.05712891 127.074707,8.45947266 127.210938,7.60253906 L126.30127,7.60253906 C126.169434,8.02001953 125.734375,8.28369141 125.180664,8.28369141 C124.398438,8.28369141 123.879883,7.73876953 123.879883,6.91259766 L123.879883,6.85546875 L127.259277,6.85546875 L127.259277,6.52148438 C127.259277,5.07568359 126.433105,4.16601562 125.123535,4.16601562 C123.787598,4.16601562 122.91748,5.13720703 122.91748,6.63134766 C122.91748,8.12548828 123.778809,9.05712891 125.163086,9.05712891 Z M126.305664,6.17871094 L123.884277,6.17871094 C123.937012,5.44482422 124.433594,4.94384766 125.119141,4.94384766 C125.813477,4.94384766 126.283691,5.43603516 126.305664,6.17871094 Z M129.759766,9.05712891 C130.915527,9.05712891 131.724121,8.46826172 131.724121,7.61572266 C131.724121,6.91259766 131.368164,6.56542969 130.405762,6.33251953 L129.614746,6.14355469 C129.109375,6.02050781 128.87207,5.82275391 128.87207,5.53271484 C128.87207,5.15478516 129.232422,4.90429688 129.772949,4.90429688 C130.317871,4.90429688 130.682617,5.16796875 130.722168,5.58984375 L131.618652,5.58984375 C131.59668,4.75927734 130.84082,4.17041016 129.794922,4.17041016 C128.696289,4.17041016 127.944824,4.74609375 127.944824,5.58544922 C127.944824,6.24462891 128.371094,6.68408203 129.232422,6.89501953 L130.084961,7.10595703 C130.585938,7.23339844 130.774902,7.39160156 130.774902,7.69482422 C130.774902,8.08154297 130.401367,8.32763672 129.808105,8.32763672 C129.20166,8.32763672 128.83252,8.07714844 128.757812,7.62011719 L127.817383,7.62011719 C127.887695,8.48144531 128.647949,9.05712891 129.759766,9.05712891 Z M133.490723,9 L133.490723,6.26660156 C133.490723,5.50195312 133.987305,4.9921875 134.725586,4.9921875 C135.424316,4.9921875 135.846191,5.42285156 135.846191,6.13476562 L135.846191,9 L136.79541,9 L136.79541,5.95019531 C136.79541,4.87353516 136.105469,4.17480469 135.055176,4.17480469 C134.325684,4.17480469 133.789551,4.46923828 133.503906,5.03173828 L133.481934,5.03173828 L133.481934,2.37304688 L132.537109,2.37304688 L132.537109,9 L133.490723,9 Z M139.79248,9.05712891 C141.172363,9.05712891 142.046875,8.11669922 142.046875,6.61376953 C142.046875,5.11083984 141.167969,4.16601562 139.79248,4.16601562 C138.416992,4.16601562 137.533691,5.11523438 137.533691,6.61376953 C137.533691,8.11669922 138.412598,9.05712891 139.79248,9.05712891 Z M139.79248,8.26611328 C138.983887,8.26611328 138.500488,7.65527344 138.500488,6.61376953 C138.500488,5.57666016 138.983887,4.95703125 139.79248,4.95703125 C140.601074,4.95703125 141.080078,5.57226562 141.080078,6.61376953 C141.080078,7.65527344 140.601074,8.26611328 139.79248,8.26611328 Z M143.804688,9 L143.804688,2.37304688 L142.851074,2.37304688 L142.851074,9 L143.804688,9 Z M146.617188,9.04833984 C147.315918,9.04833984 147.86084,8.73193359 148.14209,8.19140625 L148.159668,8.19140625 L148.159668,9 L149.08252,9 L149.08252,2.37304688 L148.133301,2.37304688 L148.133301,5.01855469 L148.111328,5.01855469 C147.838867,4.49121094 147.293945,4.17919922 146.608398,4.17919922 C145.421875,4.17919922 144.604492,5.14160156 144.604492,6.609375 C144.604492,8.0859375 145.421875,9.04833984 146.617188,9.04833984 Z M146.858887,8.23974609 C146.085449,8.23974609 145.580078,7.60253906 145.580078,6.61376953 C145.580078,5.62939453 146.089844,4.98779297 146.858887,4.98779297 C147.623535,4.98779297 148.137695,5.64257812 148.137695,6.61376953 C148.137695,7.58935547 147.623535,8.23974609 146.858887,8.23974609 Z" id="Threshold" fill="#74C315" fill-rule="nonzero"></path>
                    <rect id="Rectangle-Copy" fill="#74C315" x="94" y="1" width="10" height="10" rx="3"></rect>
                </g>
                <g id="Group-2" transform="translate(17.750000, 85.250000)" stroke="#979797" stroke-linecap="square" stroke-opacity="0.565887238" stroke-width="0.5">
                    <line x1="294" y1="68" x2="0.5" y2="67.5" id="Line-2"></line>
                    <line x1="294" y1="52" x2="0.5" y2="51.5" id="Line-2-Copy" stroke-dasharray="2,3"></line>
                    <line x1="294" y1="35" x2="0.5" y2="34.5" id="Line-2-Copy-2" stroke-dasharray="2,3"></line>
                    <line x1="294" y1="18" x2="0.5" y2="17.5" id="Line-2-Copy-3" stroke-dasharray="2,3"></line>
                    <line x1="294" y1="1" x2="0.5" y2="0.5" id="Line-2-Copy-4" stroke-dasharray="2,3"></line>
                </g>
                <line x1="311.75" y1="110.25" x2="18.25" y2="109.75" id="Threshold" stroke="#74C315" stroke-width="2" stroke-linecap="square" stroke-dasharray="0,4"></line>
                <polyline id="Path-3" stroke="#FD605E" stroke-width="2" points="32 142.979976 53.991024 134 77.5 134 97 128.931872 114.5 134 131.657815 134 148.702343 137.25 169.5 137.25 191 134 208 128.931872 221.5 128.931872 239 142.979976 254 142.979976 266.5 128.931872 275.321537 103.5 280.496444 86.25 293 95.2261425 300.680469 120.25 308 142 311.75 142.979976"></polyline>
            </g>
            <g id="Zoom-Zoom" transform="translate(303.000000, 0.000000)">
                <circle id="Oval-Copy" stroke="#000000" fill="#FFFFFF" cx="86.25" cy="85" r="85"></circle>
                <line x1="171" y1="86.25" x2="0.25" y2="86" id="Threshold-Copy" stroke="#74C315" stroke-width="2" stroke-linecap="square" stroke-dasharray="0,4"></line>
                <path d="M91.2860088,17 L125.144436,41.3667643 L139.233718,87.3850315 L69.25,87.0137536 L77.2728596,63.8270957 L91.2860088,17 Z" id="Combined-Shape" fill-opacity="0.38710118" fill="#FD605E"></path>
                <polyline id="Path-3" stroke="#FD605E" stroke-width="2" points="35.5869179 152.291171 53.717354 131.864819 77.6052277 62.8270957 91.6183769 16 125.476804 40.3667643 146.274776 108.296884 155.016286 134.33667"></polyline>
            </g>
            <line x1="251.5" y1="125.5" x2="322.5" y2="32.5" id="Line-5" stroke="#000000" stroke-linecap="square" stroke-dasharray="3,1"></line>
            <line x1="281.5" y1="179.5" x2="398.5" y2="169.5" id="Line-5-Copy" stroke="#000000" stroke-linecap="square" stroke-dasharray="3,1"></line>
            <path id="Line-6" d="M397,19.5 L401.5,28.5 L397.5,28.5 L397.5,76.5 L401.5,76.5 L397,85.5 L392.5,76.5 L396.5,76.5 L396.5,28.5 L392.5,28.5 L397,19.5 Z" fill="#FD605E" fill-rule="nonzero"></path>
        </g>
    </g>
</svg>